<?xml version="1.0" encoding="utf-8"?>
<!-- Generator: Adobe Illustrator 23.1.1, SVG Export Plug-In . SVG Version: 6.00 Build 0)  -->
<svg version="1.1" id="Layer_1" xmlns="http://www.w3.org/2000/svg" xmlns:xlink="http://www.w3.org/1999/xlink" x="0px" y="0px"
	 viewBox="0 0 534.1 481.4" style="enable-background:new 0 0 534.1 481.4;" xml:space="preserve">
<style type="text/css">
	.st0{fill:#FEFEFE;}
	.st1{fill:#FDFDFD;}
</style>
<g>
	<path d="M424,475.9c-3.7,2.2-6.4,1.6-8.9-2.1c-2.8-4.2-3.9-9.1-5-14c-2.3-10-3.9-20.1-5-30.3c-0.2-1.8-1.3-1.9-2.5-2.1
		c-9.7-1.9-19.1-4.9-28.2-8.8c-1.6-0.7-1.8-1.3-1.5-2.9c3.5-24.6,6.8-49.3,10.2-73.9c2.7-19.6,5.7-39.2,8.2-58.8
		c0.8-6.5,0.8-13.1,1.6-19.6c1.5-12,3.8-23.8,6.9-35.5c0.4-1.6,0.3-2.7-1.1-3.9c-14.7-12.6-27.3-27-38.6-42.7
		c-2.8-4-3.5-7.9-2.2-12.6c4.4-15.9,14.6-27.2,28.3-35.6c11-6.7,22.5-12.5,34.5-17.3c5-2,10-4.1,15.2-5.3c7.7-1.7,15.1-0.6,22.8,1.7
		c14.4,4.4,27.6,11.3,40.7,18.3c12,6.3,21.8,15.2,28.5,27.1c2.8,4.9,4.8,10.2,5.9,15.8c0.7,3.4-0.2,6.4-2.2,9.1
		c-11.6,15.8-24.9,30.1-39.4,43.3c-1.2,1.1-1.6,2.3-1.1,3.7c3.7,11.2,4,22.9,5.8,34.3c1.2,7.8,2.4,15.6,3.3,23.5
		c1.5,13.4,3.5,26.7,5.2,40.1c2.4,17.9,4.8,35.8,7.2,53.7c1.7,12.8,3.4,25.6,5.2,38.3c0.2,1.5-0.3,2-1.6,2.4c-8.8,2.8-17.9,4.4-27,6
		c-1.8,0.3-2.5,0.9-2.6,2.7c-1.1,12.1-2.9,24.1-6.2,35.8c-0.8,2.9-1.8,5.7-3.4,8.3c-3.1,4.9-6.2,5.4-10.5,1.7
		c-1.8-0.8-2.3-2.5-3-4.1c-3-7.2-4.4-14.8-5.8-22.5c-0.9-4.7-1.6-9.4-2.2-14.1c-0.4-2.9-0.8-3.4-3.7-3c-4.2,0.5-8.3,0.5-12.4,0
		c-2.6-0.3-3.1,0.1-3.4,2.7c-1.4,10.2-3.1,20.4-6,30.4c-0.8,2.7-1.8,5.4-3.4,7.7C426.1,474.5,425.4,475.6,424,475.9z"/>
	<path d="M279.1,480.5c-1.6,0.8-3.3,0.3-4.9,0.4c-1.9-1.3-3.2-3.2-4.5-5c-1.4-0.9-1.8-2.4-2.3-3.8c-2.7-6.8-3.6-14-4.9-21.1
		c-2.6-14.7-3.9-29.5-4.9-44.4c-0.6-8.2-1.1-16.4-1.2-24.7c-0.1-5.8-0.5-11.6-0.4-17.5c0-1.7-0.7-2.4-2.4-2.3
		c-2.2,0.1-4.3,0.1-6.5,0c-1.8,0-2.6,0.6-2.6,2.5c0.1,5.4-0.3,10.8-0.4,16.2c-0.9,27.2-2.9,54.3-8.5,81c-0.8,4-2,7.9-3.8,11.6
		c-0.5,1-0.8,2-2.1,2.3c-0.9,0.8-1.7,1.7-2.7,2.5c-2.1,1.7-4.9,1.5-7-0.4c-3.7-3.4-5.1-7.9-6.3-12.5c-3-12-4.7-24.1-6.1-36.4
		c-1.7-15.9-2.7-31.8-3.4-47.8c-0.2-5.8-0.4-11.6-0.6-17.5c0-0.8,0.2-1.6,0.6-2.6c-4.4,0-8.5,0-12.5,0c-1.5,0-1.9-0.3-1.9-2
		c1.3-27.2,2.7-54.5,3.7-81.8c0.7-19.4,3.5-38.6,8.3-57.4c0.5-1.9,0.1-3-1.4-4.3c-15.4-13.4-28.5-28.8-40.4-45.4
		c-2.5-3.5-3-7.3-1.8-11.6c4.7-16.8,15.6-28.7,30.1-37.6c11.1-6.8,22.6-12.7,34.6-17.6c7.8-3.2,15.9-6.3,24.6-6.4
		c2.4,0,4.8,0.1,7.2,0.4c10.1,1.5,19.4,5.3,28.6,9.7c10,4.9,20.3,9.1,29.5,15.5c13.5,9.4,23.2,21.4,27.8,37.5
		c1.5,5.3,0.4,9.6-2.6,13.7c-11.8,16.1-25,30.9-40.1,44c-1,0.8-1.5,1.4-1,2.9c4.2,12.5,6.4,25.5,8,38.5c1.4,11.2,1.2,22.5,1.7,33.8
		c0.9,21.9,2,43.9,3,65.8c0.1,1.7-0.3,2.1-2,2.1c-3.4-0.1-6.8,0-10.2,0c-0.7,0-1.6-0.3-1.4,1c0.9,5.7,0,11.4-0.1,17.2
		c-0.5,18.7-1.7,37.4-3.9,56c-1.4,11.7-3,23.4-6.4,34.8C284.4,474.1,282.8,478,279.1,480.5z"/>
	<path d="M95.2,480.5c-1.7,0-3.3,0-5,0c-3.2,0.8-6.1-0.8-8.3-4.6c-1.4-2.3-1.5-4.9-1.5-7.5c0-33.4,0-66.8,0-100.2
		c0-6.1,0.3-5.5-5.5-5.5c-7,0-6.3-0.8-6.3,6.2c0,32.9,0,65.8,0,98.7c0,2.8-0.3,5.5-1.9,7.9c-1.4,2.1-3,3.9-5.5,4.8
		c-1,0.3-1.9,0.7-2.9,0.2c-1.5,0-3,0-4.5,0c-6.5-1.4-9.9-5.6-9.9-12.4c0-60.2,0-120.5,0-180.7c0-1,0-2,0-2.9c-0.1,0-0.3-0.1-0.4-0.1
		c-2.4,6.3-4.8,12.6-7.2,18.9c-6.2,16.3-12.4,32.6-18.6,48.9c-0.5,1.3-1.1,2.6-2,3.7c-2.5,3.3-6.6,4.4-10.2,2.9
		c-3.7-1.6-6-5.8-5.1-9.8c1-4.7,3.2-9.1,4.9-13.6c10.5-27.3,21-54.5,31.5-81.7c1.2-3.2,4.8-5.7,8.3-5.8c5.1,0,10.2-0.1,15.2,0
		c1.5,0,1.9-0.3,2-1.9c0.4-4.5-0.2-7.7-5.1-10c-4.8-2.2-7.9-6.7-10.8-11.2c-0.5-0.8-0.5-2.1-2.1-1.9c-0.8,0.1-0.5-0.9-0.4-1.4
		c0.3-2.1-0.4-3.8-1.7-5.5c-2.5-3.5-3.1-7.3-0.8-11.2c1.5-2.6,1.1-5-0.9-6.8c-2.4,10.1-8,16.9-18.6,18.9c3.6-3.6,5.5-7.9,5.9-12.9
		c0.6-5.9-0.9-11.6-2.2-17.2c-1.2-5-2.4-10-3.5-15c-1.7-7.5,1.8-15.7,8.4-19.9c6.6-4.2,14.9-3.9,21.1,0.7c3.1,2.4,5.4,5.4,6.2,9.3
		c0.4,1.7,1.1,2.1,2.7,2c1.6-0.1,3.1-0.3,4.6-0.8c19.3-6,39.5,6.9,42.3,27.1c0.4,2.8,0.8,5.5-0.4,8.3c-0.8,1.9-0.1,3.9,1,5.7
		c2.8,4.7,2.9,9.1-1.1,13.2c-1.2,1.2-1.6,2.9-1.2,4.7c0.1,0.5,0.9,2.1-1,1.1c-0.9-0.5-0.9,0.5-1.1,0.9c-3.7,6.4-8.7,11.6-15.7,14.4
		c-0.8,0.3-1.2,0.8-1.1,1.7c0,0.2,0,0.3,0,0.5c0.1,2.3-0.8,5.3,0.4,6.8c1.2,1.5,4.4,0.4,6.7,0.5c3.2,0.1,6.5,0,9.7,0
		c4.6,0,8.1,2.4,9.7,6.8c11.5,30.5,23.1,61,34.6,91.5c1.7,4.5,1,8.1-2,10.7c-2.8,2.4-6.9,2.7-10.5,0.8c-2.1-1.1-3.2-3.1-4-5.2
		c-8.3-21.9-16.7-43.7-25-65.6c-0.3-0.7-0.3-1.6-1.3-2.3c0,1.3,0,2.4,0,3.5c0,12.2,0.2,24.3,0,36.5c-1,48.3-0.5,96.6-0.6,144.8
		C104.2,475.1,101.8,478,95.2,480.5z"/>
	<path d="M206,42.6C205.7,19.6,225.1-0.3,248.9,0c23.9,0.3,43.4,19.5,43.2,42.9c-0.2,24.5-19.4,43.5-43.8,43.2
		C224.3,85.8,205.8,66.8,206,42.6z"/>
	<path d="M484.7,59.7c0,4.8-0.9,9.4-2.5,13.9c-0.7,2-1.6,3.8-1.4,6c0,0.6-0.2,1.5-0.6,1.8c-1.1,0.9-1.2,1.7-0.7,2.9
		c0.4,1.1,0.2,2.4-1,3.1c-1,0.6-2.1,0.5-3-0.5c-1.1-1.2-1.5-0.1-2.1,0.5c-12.9,12.4-31.1,15-47,6.8c-3.4-1.7-6.3-4-8.9-6.8
		c-0.6-0.6-1-1.6-2.1-0.5c-1.2,1.2-2.6,1.1-3.8-0.1c-1.1-1.1-1.1-2.4,0-3.5c0.7-0.6,0.3-0.9-0.2-1.2c-0.7-0.5-1.6-1.1-1.5-1.9
		c0.4-4.6-2.3-8.4-3.1-12.6c-3.2-16.1,1.8-29.2,14.6-39c20.6-15.7,49.4-8.1,60.1,15.5C483.5,48.3,484.7,54.3,484.7,59.7z"/>
	<path class="st0" d="M229.6,475.8c3.9-6.6,5.1-14,6.5-21.3c3.8-19.9,5.4-40,6.5-60.2c0.5-10.5,0.8-20.9,1.1-31.4
		c0-1.3,0.4-1.7,1.7-1.7c3.3,0.1,6.7,0,10,0c0.9,0,1.2,0.2,1.2,1.2c0.2,16.4,0.8,32.8,2.1,49.1c1.4,18.2,3.3,36.3,7.4,54.1
		c0.8,3.6,2.1,7,3.5,10.3c-0.6,0.8-1.5,0.5-2.3,0.5c-11.8,0-23.6,0-35.4,0C231.1,476.4,230.2,476.7,229.6,475.8z"/>
	<path class="st0" d="M424,475.9c3.4-3.3,4.8-7.6,6-12.1c2.6-9.6,4.3-19.5,5.5-29.4c0.2-1.9,0.5-2.9,2.9-2.6
		c5.1,0.7,10.3,0.4,15.4,0c1.4-0.1,2.1,0,2.3,1.8c1.5,11.2,3.2,22.3,6.2,33.3c0.9,3.4,2.3,6.5,4.2,9.5c-13.6,0-27.2,0-40.8,0
		C425.2,476.4,424.5,476.5,424,475.9z"/>
	<path d="M462.3,22.7c-3.9-1.6-7.9-2.4-12-3.2c-6.7-1.3-13-0.1-19.3,2.4c-2.5,1-2.6,0.9-2.3-1.8c0.9-8.2,5.3-14,12.1-16
		C452.4,0.6,463.8,10.4,462.3,22.7z"/>
	<path class="st1" d="M58.2,480.5c3.2-0.4,5.5-2.2,7.5-4.5c5.2-0.7,10.4-0.3,15.7-0.2c0.5,0,0.9,0.3,1.3,0.6c1.9,2.4,4.3,4,7.4,4.1
		c-0.5,1-1.5,0.9-2.4,0.9c-9,0-18.1,0-27.1,0C59.7,481.4,58.8,481.5,58.2,480.5z"/>
	<path class="st0" d="M380.3,171.4c7.3-3.7,14.4-7.5,21.1-12.4c0.8,5.1,1.9,9.9,4.1,14.3c0.1,0.1,0.1,0.3,0.2,0.4
		c5.8,8.1,4.1,17,2.9,25.9c-0.5,4.1-1.3,8.2-4,11.8C397.4,197.6,389.3,184.1,380.3,171.4z"/>
	<path class="st0" d="M485.4,212.4c-2.4-4.7-3.2-9.3-3.9-13.9c-0.8-5.8-0.9-11.6-0.2-17.4c0.3-2.3,0.8-4.3,2-6.3
		c2.5-4.3,3.4-9.1,4.7-13.9c3.1,2,6.1,3.8,9,5.8c3.4,2.4,7,4.4,11,5.8c1.4,0.5,1.7,1,0.8,2.2C500.3,186.5,492.8,199.1,485.4,212.4z"
		/>
	<path class="st1" d="M444.5,125.7c6.8-0.9,9.4-3.9,9.8-11.5c1.5,0.2,2.5,1.1,3.2,2.3c2,3.6,1.3,8.3-1.6,10.7
		c-3,2.4-6.9,2.3-10.3-0.3c-0.4-0.3-0.7-0.6-1.1-1L444.5,125.7z"/>
	<path class="st1" d="M444.5,125.7l0,0.2c-2.5,2.9-5.6,3.8-8.9,2.5c-2.8-1.1-4.7-4-4.7-7.2c0-3.5,1.5-5.7,4.3-6.7
		C435.9,121.8,438.2,124.7,444.5,125.7z"/>
	<path class="st0" d="M203.8,148.4c0.6,7.8,3.9,14.2,7.4,20.6c1.4,2.5,1.3,5.5,1.4,8.3c0.2,6.6-0.6,13.1-2.5,19.4
		c-0.7,2.3-1.8,4.3-3.2,6.2c-7.1-14.1-15-27.7-24.4-40.2c-0.9-1.2-0.9-1.6,0.5-2.2C190.3,157.3,196.9,153.1,203.8,148.4z"/>
	<path class="st0" d="M290.9,203.7c-1.4-1.2-1.7-2.9-2.1-4.5c-1.9-8.1-3.4-16.3-2.7-24.7c0.3-3.8,0.8-7.5,2.8-11
		c2.3-4,3.7-8.5,4.2-13.4c4.1,1.7,7.5,4.4,11.1,6.6c3.3,2,6.6,4.1,10.2,5.6c1.3,0.5,1.4,1.1,0.6,2.2c-8.7,12-16.2,24.7-23.1,37.8
		C291.7,202.9,291.3,203.3,290.9,203.7z"/>
	<path class="st0" d="M82.7,476.4c-5,0-9.9,0-14.9,0c-0.7,0-1.5,0.2-2.1-0.4c1.6-2.7,2-5.5,2-8.6c0-34.1,0-68.3,0-102.4
		c0-3.3,0-3.3,3.4-3.3c2.3,0,4.7,0.2,7,0c2.3-0.2,3.1,0.4,3,2.9c-0.1,34,0,68.1-0.1,102.1C81.1,470.1,81.1,473.3,82.7,476.4z"/>
</g>
</svg>
