<svg xmlns="http://www.w3.org/2000/svg" width="31.575" height="46.063" viewBox="0 0 31.575 46.063">
  <path id="Path_2277" data-name="Path 2277" d="M36.135,44.158a30.42,30.42,0,0,1-14.6,3.609q-7.218,0-10.989-3.124a10.526,10.526,0,0,1-3.771-8.565q0-8.349,7.757-12.174a8.7,8.7,0,0,1-3.313-3.878,12.922,12.922,0,0,1-1.158-5.441A10.736,10.736,0,0,1,13,6.64,10.312,10.312,0,0,1,20.621,3.7a22.922,22.922,0,0,1,9.211,2.1L28.109,11.73A21.364,21.364,0,0,0,22.076,10.6a5.977,5.977,0,0,0-3.851,1.185,4.279,4.279,0,0,0-1.481,3.555,5.558,5.558,0,0,0,1.454,3.69,4.178,4.178,0,0,0,3.178,1.7,13.1,13.1,0,0,0,2.37-.3q1.508-.3,3.744-.781t3.69-.754l1.131,6.679Q21.537,27.89,17.739,29.937t-3.8,5.01a4.253,4.253,0,0,0,2.424,3.959,13.671,13.671,0,0,0,6.518,1.32,31.9,31.9,0,0,0,11.2-2.155Z" transform="translate(-5.778 -2.704)" fill="none" stroke="#0060e2" stroke-width="2"/>
</svg>
