<svg xmlns="http://www.w3.org/2000/svg" xmlns:xlink="http://www.w3.org/1999/xlink" width="426.269" height="368.848" viewBox="0 0 426.269 368.848"><defs><style>.a{opacity:0.8;}.b{fill:url(#a);}.c,.e{fill:#ff595a;}.d,.h{fill:#fff;}.d,.m{opacity:0.1;}.e,.i{opacity:0.2;}.f{opacity:0.3;}.g{fill:url(#b);}.j{fill:#e0e0e0;}.k,.o,.q{opacity:0.5;}.l{fill:url(#c);}.n{opacity:0.05;}.o{fill:#4d8af0;}.p{fill:#47e6b1;}.q{fill:#f55f44;}</style><linearGradient id="a" x1="0.5" y1="1" x2="0.5" gradientUnits="objectBoundingBox"><stop offset="0" stop-color="gray" stop-opacity="0.251"/><stop offset="0.54" stop-color="gray" stop-opacity="0.122"/><stop offset="1" stop-color="gray" stop-opacity="0.102"/></linearGradient><linearGradient id="b" x1="-0.512" y1="7.758" x2="-0.512" y2="6.717" xlink:href="#a"/><linearGradient id="c" x1="-1.386" y1="7.85" x2="-1.386" y2="6.809" xlink:href="#a"/></defs><g transform="translate(0 -0.001)"><g class="a" transform="translate(144.901 9.566)"><ellipse class="b" cx="74.323" cy="57.577" rx="74.323" ry="57.577"/></g><ellipse class="c" cx="72.674" cy="56.298" rx="72.674" ry="56.298" transform="translate(146.55 10.845)"/><path class="d" d="M480.715,170.362c0-31.092,32.533-56.3,72.669-56.3a89.08,89.08,0,0,1,36.213,7.475c-12.773-8.627-29.484-13.869-47.773-13.869-40.135,0-72.674,25.206-72.674,56.3,0,20.877,14.671,39.1,36.466,48.823C490.357,202.469,480.715,187.291,480.715,170.362Z" transform="translate(-322.417 -96.962)"/><path class="e" d="M275.61,176.9l80.565,139.542,80.565,139.537H114.48l80.565-139.537Z" transform="translate(-56.386 -87.129)"/><g class="f" transform="translate(173.088 226.989)"><path class="g" d="M586.337,594.218l6.257-18.568a31.8,31.8,0,0,0-11.773-35.974l.051-.03a31.2,31.2,0,0,0-8.013-4.06h0l-.086-.03-.1-.031h0a31.237,31.237,0,0,0-8.576-1.614,30.076,30.076,0,0,0-3.1,0,31.626,31.626,0,0,0-5.323.736c-.507.112-1.015.238-1.477.376s-.979.284-1.462.441c-.964.32-1.913.68-2.842,1.091-.467.2-.929.416-1.38.644a31.2,31.2,0,0,0-3.933,2.314c-.421.289-.832.589-1.238.893a31.463,31.463,0,0,0-10.779,15.021l-9.835,29.255a31.391,31.391,0,0,0-1.36,14.27c.1.736.228,1.467.375,2.192s.33,1.441.507,2.152c.137.472.279.944.436,1.411.233.7.507,1.39.766,2.07.188.452.386.9.594,1.35.411.888.868,1.756,1.36,2.6a27.466,27.466,0,0,0,1.6,2.476c.426.6.878,1.187,1.345,1.756a26.5,26.5,0,0,0,1.989,2.2,31.366,31.366,0,0,0,10.657,7.049h0l.173.071a10.987,10.987,0,0,1,.71-1.1c1.522-2.086,4.171-3.552,6.693-3,.183.041.365.1.548.152,1.279.452,2.537,1.259,3.771,1.654a3.38,3.38,0,0,0,2.847-.036c2.466-1.314,1.553-5.46,3.669-7.277a3.308,3.308,0,0,1,.31-.233.96.96,0,0,1-.081-.117c1.634-1.015,3.9-.34,5.78.315,2.03.716,4.679,1.2,6.089-.462.954-1.137.883-2.867,1.791-4.06,1.056-1.37,3.045-1.522,4.765-1.279l.086.025A4.657,4.657,0,0,0,584.8,604.4,27.792,27.792,0,0,1,586.337,594.218Z" transform="translate(-521.084 -533.871)"/></g><path class="h" d="M543.843,623.267c1.482-2.03,4.024-3.451,6.46-2.9s4.745,2.872,6.912,1.71c2.964-1.583.863-7.4,5.673-7.835a6.315,6.315,0,0,1,2.928.507c2.03.827,5.207,1.761,6.77-.1.919-1.1.853-2.766,1.73-3.9,1.015-1.319,2.948-1.487,4.6-1.233l.081.025a4.493,4.493,0,0,0,6.414-4.3,26.54,26.54,0,0,1,1.446-9.8l6.029-17.919a30.641,30.641,0,0,0-19.207-38.714h0a30.641,30.641,0,0,0-38.7,19.213l-9.5,28.179a30.646,30.646,0,0,0,17.67,38.136A10.871,10.871,0,0,1,543.843,623.267Z" transform="translate(-349.378 -308.533)"/><circle class="i" cx="3.304" cy="3.304" r="3.304" transform="translate(202.396 243.365)"/><circle class="i" cx="3.304" cy="3.304" r="3.304" transform="translate(221.183 249.682)"/><ellipse class="j" cx="4.953" cy="3.304" rx="4.953" ry="3.304" transform="matrix(0.319, -0.948, 0.948, 0.319, 206.182, 266.023)"/><circle class="h" cx="4.953" cy="4.953" r="4.953" transform="translate(275.435 242.446)"/><circle class="h" cx="2.476" cy="2.476" r="2.476" transform="translate(293.603 237.133)"/><g class="k" transform="translate(179.685 27.557)"><g class="f"><path class="l" d="M599.337,201.218l6.257-18.568a31.8,31.8,0,0,0-11.773-35.974l.051-.03a31.2,31.2,0,0,0-8.013-4.06h0l-.086-.03-.1-.03h0a31.234,31.234,0,0,0-8.576-1.614,30.083,30.083,0,0,0-3.1,0,31.626,31.626,0,0,0-5.323.736c-.507.112-1.015.239-1.477.376s-.979.284-1.462.441c-.964.32-1.913.68-2.842,1.091-.467.2-.929.416-1.38.644a31.2,31.2,0,0,0-3.933,2.314c-.421.289-.832.589-1.238.893a31.463,31.463,0,0,0-10.779,15.021l-9.835,29.255a31.391,31.391,0,0,0-1.36,14.27c.1.736.228,1.467.375,2.192s.33,1.441.507,2.152c.137.472.279.944.436,1.411.233.7.507,1.39.766,2.07.188.452.386.9.594,1.35.411.888.868,1.756,1.36,2.6a27.461,27.461,0,0,0,1.6,2.476c.426.6.878,1.187,1.345,1.756.629.761,1.289,1.5,1.989,2.2a31.367,31.367,0,0,0,10.657,7.049h0l.173.071a10.974,10.974,0,0,1,.71-1.1c1.522-2.086,4.171-3.552,6.693-3,.183.041.365.1.548.152,1.279.452,2.537,1.259,3.771,1.654a3.38,3.38,0,0,0,2.847-.036c2.466-1.314,1.553-5.46,3.669-7.277a3.3,3.3,0,0,1,.31-.233.955.955,0,0,1-.081-.117c1.634-1.015,3.9-.34,5.78.315,2.03.716,4.679,1.2,6.089-.462.954-1.137.883-2.867,1.791-4.06,1.056-1.37,3.045-1.522,4.765-1.279h.086a4.657,4.657,0,0,0,6.648-4.456A27.732,27.732,0,0,1,599.337,201.218Z" transform="translate(-534.084 -140.871)"/></g><path class="h" d="M556.843,230.267c1.482-2.03,4.024-3.451,6.46-2.9s4.745,2.872,6.912,1.71c2.964-1.583.863-7.4,5.673-7.835a6.313,6.313,0,0,1,2.928.507c2.03.827,5.207,1.761,6.77-.1.919-1.1.853-2.766,1.73-3.9,1.015-1.319,2.948-1.487,4.6-1.233l.081.025a4.493,4.493,0,0,0,6.414-4.3,26.541,26.541,0,0,1,1.446-9.8l6.029-17.918a30.641,30.641,0,0,0-19.207-38.714h0a30.641,30.641,0,0,0-38.7,19.213l-9.5,28.179a30.646,30.646,0,0,0,17.67,38.136A10.889,10.889,0,0,1,556.843,230.267Z" transform="translate(-535.465 -142.523)"/><circle class="i" cx="3.304" cy="3.304" r="3.304" transform="translate(29.309 16.375)"/><circle class="i" cx="3.304" cy="3.304" r="3.304" transform="translate(48.095 22.693)"/></g><path class="m" d="M612.831,186a44.412,44.412,0,0,1,1.416,11.164c0,31.092-32.533,56.3-72.669,56.3-32.848-.02-60.6-16.9-69.578-40.059,6.668,25.764,36.03,45.164,71.253,45.164,40.135,0,72.674-25.206,72.674-56.3A44.736,44.736,0,0,0,612.831,186Z" transform="translate(-323.821 -135.542)"/><g class="a" transform="translate(68.924 52.406)"><ellipse class="b" cx="150.3" cy="39.283" rx="150.3" ry="39.283"/></g><path class="h" d="M470.927,192.4c-80.27,0-145.347,17.005-145.347,37.989H616.275C616.275,209.405,551.2,192.4,470.927,192.4Z" transform="translate(-251.704 -138.695)"/><path class="h" d="M470.927,305.244c80.27,0,145.347-17.005,145.347-37.984H325.58C325.58,288.238,390.657,305.244,470.927,305.244Z" transform="translate(-251.704 -175.566)"/><path class="n" d="M470.927,305.244c80.27,0,145.347-17.005,145.347-37.984H325.58C325.58,288.238,390.657,305.244,470.927,305.244Z" transform="translate(-251.704 -175.566)"/><rect class="n" width="138.74" height="19.821" rx="9.911" transform="translate(149.854 81.778)"/><path class="o" d="M307.837,141.027a1.867,1.867,0,0,1-1.04-2.253.946.946,0,0,0,.041-.208h0a.934.934,0,0,0-1.68-.619h0a.925.925,0,0,0-.1.183,1.862,1.862,0,0,1-2.253,1.04,1.014,1.014,0,0,0-.208-.041h0a.934.934,0,0,0-.619,1.68h0a.821.821,0,0,0,.183.107,1.867,1.867,0,0,1,1.04,2.253.959.959,0,0,0-.041.2h0a.934.934,0,0,0,1.68.624h0a.837.837,0,0,0,.1-.188,1.862,1.862,0,0,1,2.253-1.015,1.015,1.015,0,0,0,.208.041h0a.934.934,0,0,0,.619-1.68h0A.822.822,0,0,0,307.837,141.027Z" transform="translate(-239.893 -111.689)"/><path class="o" d="M816.862,447.027a1.867,1.867,0,0,1-1.015-2.253.944.944,0,0,0,.041-.208h0a.934.934,0,0,0-1.68-.619h0a.926.926,0,0,0-.1.183,1.862,1.862,0,0,1-2.253,1.04,1.014,1.014,0,0,0-.208-.041h0a.934.934,0,0,0-.619,1.68h0a.824.824,0,0,0,.183.107,1.867,1.867,0,0,1,1.015,2.253.963.963,0,0,0-.041.2h0a.934.934,0,0,0,1.68.624h0a.836.836,0,0,0,.1-.188,1.862,1.862,0,0,1,2.253-1.015,1.015,1.015,0,0,0,.208.041h0a.934.934,0,0,0,.619-1.68h0a.822.822,0,0,0-.183-.127Z" transform="translate(-490.619 -262.406)"/><path class="o" d="M254.837,589.027a1.867,1.867,0,0,1-1.04-2.253.946.946,0,0,0,.041-.208h0a.934.934,0,0,0-1.68-.619h0a.924.924,0,0,0-.1.183,1.862,1.862,0,0,1-2.253,1.04,1.011,1.011,0,0,0-.208-.041h0a.934.934,0,0,0-.619,1.68h0a.821.821,0,0,0,.183.107,1.867,1.867,0,0,1,1.04,2.253.958.958,0,0,0-.041.2h0a.934.934,0,0,0,1.68.624h0a.837.837,0,0,0,.1-.188,1.862,1.862,0,0,1,2.253-1.015,1.015,1.015,0,0,0,.208.041h0a.934.934,0,0,0,.619-1.68h0A.82.82,0,0,0,254.837,589.027Z" transform="translate(-213.789 -332.346)"/><path class="o" d="M199.862,258.027a1.867,1.867,0,0,1-1.015-2.253.943.943,0,0,0,.041-.208h0a.934.934,0,0,0-1.68-.619h0a.922.922,0,0,0-.1.183,1.862,1.862,0,0,1-2.253,1.04,1.017,1.017,0,0,0-.208-.041h0a.934.934,0,0,0-.619,1.68h0a.822.822,0,0,0,.183.107,1.867,1.867,0,0,1,1.04,2.253.958.958,0,0,0-.041.2h0a.934.934,0,0,0,1.68.624h0a.836.836,0,0,0,.1-.188,1.862,1.862,0,0,1,2.253-1.015,1.017,1.017,0,0,0,.208.041h0a.934.934,0,0,0,.619-1.68h0A.822.822,0,0,0,199.862,258.027Z" transform="translate(-186.724 -169.316)"/><path class="o" d="M806.734,90.027a1.867,1.867,0,0,1-1.015-2.253.94.94,0,0,0,.041-.208h0a.934.934,0,0,0-1.68-.619h0a.922.922,0,0,0-.1.183,1.862,1.862,0,0,1-2.253,1.015,1.015,1.015,0,0,0-.208-.041h0a.934.934,0,0,0-.644,1.73h0a.821.821,0,0,0,.183.107,1.868,1.868,0,0,1,1.015,2.253.955.955,0,0,0-.041.2h0a.934.934,0,0,0,1.715.6h0a.838.838,0,0,0,.1-.188,1.862,1.862,0,0,1,2.253-1.015,1.014,1.014,0,0,0,.208.041h0a.934.934,0,0,0,.619-1.68h0a.822.822,0,0,0-.193-.127Z" transform="translate(-485.566 -86.57)"/><g class="k" transform="translate(52.269 130.85)"><rect class="p" width="1.522" height="8.627" transform="translate(3.552)"/><rect class="p" width="1.522" height="8.627" transform="translate(8.627 3.552) rotate(90)"/></g><g class="k" transform="translate(417.642 90.253)"><rect class="p" width="1.522" height="8.627" transform="translate(3.552)"/><rect class="p" width="1.522" height="8.627" transform="translate(8.627 3.552) rotate(90)"/></g><g class="k" transform="translate(366.896 231.835)"><rect class="p" width="1.522" height="8.627" transform="translate(3.552)"/><rect class="p" width="1.522" height="8.627" transform="translate(8.627 3.552) rotate(90)"/></g><circle class="q" cx="3.045" cy="3.045" r="3.045" transform="translate(363.851 38.492)"/><circle class="q" cx="3.045" cy="3.045" r="3.045" transform="translate(0 3.477)"/><circle class="q" cx="3.045" cy="3.045" r="3.045" transform="translate(91.343 178.551)"/><ellipse class="n" cx="17.254" cy="3.552" rx="17.254" ry="3.552" transform="translate(101.493 74.816)"/><ellipse class="n" cx="17.254" cy="3.552" rx="17.254" ry="3.552" transform="translate(101.493 101.711)"/><ellipse class="n" cx="17.254" cy="3.552" rx="17.254" ry="3.552" transform="translate(297.881 74.816)"/><ellipse class="n" cx="17.254" cy="3.552" rx="17.254" ry="3.552" transform="translate(297.881 101.711)"/><ellipse class="n" cx="17.254" cy="3.552" rx="17.254" ry="3.552" transform="translate(201.97 59.592)"/><ellipse class="n" cx="17.254" cy="3.552" rx="17.254" ry="3.552" transform="translate(214.657 22.547)"/><ellipse class="n" cx="17.254" cy="3.552" rx="17.254" ry="3.552" transform="translate(181.672 37.771)"/><ellipse class="n" cx="17.254" cy="3.552" rx="17.254" ry="3.552" transform="translate(245.104 44.368)"/><ellipse class="n" cx="17.254" cy="3.552" rx="17.254" ry="3.552" transform="translate(201.97 112.368)"/></g></svg>