<svg xmlns="http://www.w3.org/2000/svg" width="66.205" height="23.161" viewBox="0 0 66.205 23.161"><g transform="translate(-17.61 -9.482)"><path d="M60.769,8.7H47.254c-.436,0-.654.327-.654.763V27.011c0-.109,0,0,.109.109s.218.218.327.218h9.482l-1.744,1.744a.663.663,0,0,0,0,.872L56.3,31.479a.663.663,0,0,0,.872,0l4.142-4.251h0V9.463A.594.594,0,0,0,60.769,8.7ZM57.608,23.2a.7.7,0,0,1-.654.654H50.96a.7.7,0,0,1-.654-.654V13.169a.7.7,0,0,1,.654-.654h5.995a.7.7,0,0,1,.654.654Z" transform="translate(4.19 0.782)" fill="#fff"/><g transform="translate(17.61 9.482)"><g transform="translate(26.158)"><path d="M35.061,27.774H32.554a.7.7,0,0,1-.654-.654V9.354a.7.7,0,0,1,.654-.654h2.507a.7.7,0,0,1,.654.654V27.12A.628.628,0,0,1,35.061,27.774Z" transform="translate(-31.9 -8.7)" fill="#fff"/></g><g transform="translate(0 0.109)"><path d="M21.96,27.656H8.554c-.327,0-.654-.327-.654-.981V9.236s.327-.436.654-.436h8.61a.7.7,0,0,1,.654.654v2.507a.7.7,0,0,1-.654.654h-4.9a.7.7,0,0,0-.654.654V23.732c0,.327.545.218.872.218h5.559c.327,0,.872.109.872-.218V13.814a.566.566,0,0,1,.218-.436l2.834-3.161a.663.663,0,0,1,.872,0l1.853,1.853a.663.663,0,0,1,0,.872L22.723,14.9c-.109.109-.218.327-.218.109V26.675C22.614,27.329,22.4,27.656,21.96,27.656Z" transform="translate(-7.9 -8.8)" fill="#fff"/></g><g transform="translate(16.076)"><path d="M28.461,8.7H25.954a.7.7,0,0,0-.654.654v2.18a.7.7,0,0,0,.654.654h2.507a.7.7,0,0,0,.654-.654V9.354A.7.7,0,0,0,28.461,8.7Z" transform="translate(-22.412 -8.7)" fill="#fff"/><path d="M28.7,13.1H26.192a.691.691,0,0,0-.654.545V26.179l-.981.981h0L22.813,28.9a.663.663,0,0,0,0,.872L24.339,31.3a.663.663,0,0,0,.872,0l.327-.327,3.815-3.924V13.645A.61.61,0,0,0,28.7,13.1Z" transform="translate(-22.65 -8.304)" fill="#fff"/></g></g><path d="M77.631,8.809c-.109,0-.109-.109-.218-.109H63.9c-.327,0-.654.218-.654.763h0V27.556L61.609,29.19h0c-.109.109-.109.218-.109.436,0-.109.109-.327.109-.436-.109.109-.109.218-.109.436s0,.327.218.436l1.526,1.526a.663.663,0,0,0,.872,0L66.4,29.3l1.853-1.853h9.373c.327,0,.654-.327.654-.218V9.354C77.958,9.027,77.849,8.809,77.631,8.809ZM74.143,23.2a.7.7,0,0,1-.654.654H67.495a.7.7,0,0,1-.654-.654V13.169a.7.7,0,0,1,.654-.654h5.995a.7.7,0,0,1,.654.654Z" transform="translate(5.53 0.782)" fill="#fff"/></g></svg>