<svg xmlns="http://www.w3.org/2000/svg" width="16.785" height="23.052" viewBox="0 0 16.785 23.052">
  <path id="Path_2214" data-name="Path 2214" d="M77.631,8.809c-.109,0-.109-.109-.218-.109H63.9c-.327,0-.654.218-.654.763h0V27.556L61.609,29.19h0c-.109.109-.109.218-.109.436,0-.109.109-.327.109-.436-.109.109-.109.218-.109.436s0,.327.218.436l1.526,1.526a.663.663,0,0,0,.872,0L66.4,29.3l1.853-1.853h9.373c.327,0,.654-.327.654-.218V9.354C77.958,9.027,77.849,8.809,77.631,8.809ZM74.143,23.2a.7.7,0,0,1-.654.654H67.495a.7.7,0,0,1-.654-.654V13.169a.7.7,0,0,1,.654-.654h5.995a.7.7,0,0,1,.654.654Z" transform="translate(-61.5 -8.7)" fill="#fff"/>
</svg>
