<svg xmlns="http://www.w3.org/2000/svg" xmlns:xlink="http://www.w3.org/1999/xlink" width="500" height="500" viewBox="0 0 500 500"><defs><clipPath id="a"><path d="M132.351,453.916H455.413s26.2,0-20.792-12.458H149.613S114.116,453.916,132.351,453.916Z" transform="translate(-127.142 -441.458)" fill="none"/></clipPath></defs><g transform="translate(-152 -1295)"><g transform="translate(0 53)"><g transform="translate(652 1742) rotate(180)" fill="none"><path d="M260,500a10,10,0,0,1-10-10V250H10A10,10,0,0,1,0,240V10A10,10,0,0,1,10,0H500V490a10,10,0,0,1-10,10Z" stroke="none"/><path d="M 490.0004272460938 490.00048828125 L 490.0004272460938 250.0002136230469 L 490.0004272460938 9.999999046325684 L 250.0002136230469 9.999999046325684 L 9.999999046325684 10.0007848739624 L 9.999927520751953 240.0002136230469 L 250.0002136230469 240.0002136230469 L 260.0002136230469 240.0002136230469 L 260.0002136230469 250.0002136230469 L 260.0000610351562 490.0004272460938 L 489.9996337890625 490.0004272460938 L 490.0004272460938 490.00048828125 M 489.9996337890625 500.0004272460938 L 260.0000610351562 500.0004272460938 C 254.4767913818359 500.0004272460938 250.0002136230469 495.5229187011719 250.0002136230469 490.00048828125 L 250.0002136230469 250.0002136230469 L 9.999927520751953 250.0002136230469 C 4.477499485015869 250.0002136230469 -6.626673894061241e-07 245.5235748291016 -6.626673894061241e-07 240.0002899169922 L -6.626673894061241e-07 10.0007848739624 C -6.626673894061241e-07 4.477499485015869 4.477499485015869 -6.626673894061241e-07 9.999927520751953 -6.626673894061241e-07 L 250.0002136230469 -6.626673894061241e-07 L 500.0004272460938 -6.626673894061241e-07 L 500.0004272460938 250.0002136230469 L 500.0004272460938 490.00048828125 C 500.0004272460938 495.5229187011719 495.5229187011719 500.0004272460938 489.9996337890625 500.0004272460938 Z" stroke="none" fill="#fff"/></g><g transform="translate(172 1231)"><path d="M96.465,495.3c30.6,10.814,334.322,6.837,354.431,6.445,23.542-.458,48.027-16.445,1.036-28.9H117.726C94.556,472.839,73.3,487.113,96.465,495.3Z" transform="translate(-34.223 -68.059)" fill="#003"/><path d="M434.791,461.309V177.35c0-26.671-21.624-22.542-48.293-22.542H197.544c-26.674,0-48.293-4.129-48.293,22.542V461.309Z" transform="translate(-41.223 -67.059)" fill="#ffc055"/><rect width="285.54" height="101.138" transform="translate(108.028 150.244)" fill="#fff"/><rect width="73.374" height="66.759" rx="12.41" transform="translate(126.456 159.639)" fill="#ff595a"/><rect width="73.374" height="66.759" rx="12.41" transform="translate(214.482 159.639)" fill="#00b4a6"/><rect width="73.374" height="66.759" rx="12.41" transform="translate(302.507 159.639)" fill="#ffc055"/><path d="M311.121,243.719H298.87a.639.639,0,0,0-.639.639v10H286.189a.639.639,0,0,0-.639.639v9.98H273.662a.639.639,0,0,0-.638.639V275.8a.639.639,0,0,0,.638.639h12.251a.639.639,0,0,0,.639-.639v-9.981H298.44a.639.639,0,0,0,.638-.639v-10h12.043a.639.639,0,0,0,.639-.639V244.358A.639.639,0,0,0,311.121,243.719Z" transform="translate(-41.223 -67.059)" fill="#ffc055"/><rect width="15.573" height="14.169" rx="2.634" transform="translate(155.357 185.934)" fill="#00b4a6"/><path d="M391.834,272.052a.668.668,0,0,1-.667.668H380.522a.75.75,0,0,1-.105-.021.708.708,0,0,1-.1.021H369.668a.668.668,0,0,1-.668-.668V261.1a.668.668,0,0,1,.668-.668h10.186V248.1a.668.668,0,0,1,.668-.668h10.645a.668.668,0,0,1,.667.668v12.806a.592.592,0,0,1-.019.1.6.6,0,0,1,.019.094Z" transform="translate(-41.223 -67.059)" fill="#ff595a"/><rect width="36.364" height="9.395" transform="translate(144.961 226.398)" fill="#003"/><rect width="36.364" height="9.395" transform="translate(321.012 226.398)" fill="#003"/><path d="M132.351,453.916H455.413s26.2,0-20.792-12.458H149.613S114.116,453.916,132.351,453.916Z" transform="translate(-41.223 -67.059)" fill="#ff595a"/><path d="M462.3,452.4v22.8s1.934,4.99-22.684,4.99H149.748c-24.618,0-22.529-4.99-22.529-4.99V452.4s-.782,1.514,5.132,1.514H452.068S459.736,454.083,462.3,452.4Z" transform="translate(-41.223 -67.059)" fill="#ffc055"/><rect width="4.83" height="42.578" transform="translate(336.779 235.793)" fill="#003"/><rect width="4.83" height="21.831" transform="translate(350.053 277.384) rotate(90)" fill="#003"/><rect width="4.83" height="42.578" transform="translate(248.44 235.793)" fill="#003"/><rect width="4.83" height="21.831" transform="translate(261.714 277.384) rotate(90)" fill="#003"/><rect width="4.83" height="42.578" transform="translate(160.785 235.793)" fill="#003"/><rect width="4.83" height="21.831" transform="translate(174.059 277.384) rotate(90)" fill="#003"/><path d="M148.183,480.188v8.663s6.293,3.5,12.587,0v-8.663Z" transform="translate(-41.223 -67.059)" fill="#00b4a6" opacity="0.8"/><path d="M422.2,480.188v8.663s6.294,3.5,12.587,0v-8.663Z" transform="translate(-41.223 -67.059)" fill="#00b4a6" opacity="0.8"/><path d="M302.047,301.046s2.632,41.69,1.109,54.717c-1.765,15.1-6.567,34.172-4.228,54.834,0,0-.9,6.419,5.2,5.455s3.929,5.788,2.964,6.029,4.73,9.164-3.785,9.647-9.479-4.582-12.132-15.917,4.5-50.137,4.8-62.219-.063-44.643-2.474-52.633Z" transform="translate(-41.223 -67.059)" fill="#fff" stroke="#49c1ba" stroke-miterlimit="10" stroke-width="1" opacity="0.8"/><path d="M268.161,400.448c4.29,0,7.772,2.376,11.608,3.961,4.078,1.685,8.13,3.466,12.361,4.74,8.192,2.466,16.995,3.5,25.46,2a6.787,6.787,0,0,1,1.328-.1l1.148-5.694c-9.436,1.1-20.276-1.022-29.3-3.864-4.448-1.4-8.745-3.2-13.133-4.764-3.084-1.1-6.442-2.658-12.387-2.658l1.215,6.632A5.511,5.511,0,0,1,268.161,400.448Z" transform="translate(-41.223 -67.059)" fill="#fff" opacity="0.88"/><g transform="translate(85.919 374.399)"><g clip-path="url(#a)"><line x1="21.961" y2="14.66" transform="translate(12.957 -1.101)" fill="none" stroke="#00b4a6" stroke-miterlimit="10" stroke-width="3"/><line x1="20.791" y2="16.276" transform="translate(37.436 -1.909)" fill="none" stroke="#00b4a6" stroke-miterlimit="10" stroke-width="3"/><line x1="15.937" y2="21.052" transform="translate(68.779 -4.297)" fill="none" stroke="#00b4a6" stroke-miterlimit="10" stroke-width="3"/><line x1="11.223" y2="23.901" transform="translate(97.763 -5.721)" fill="none" stroke="#00b4a6" stroke-miterlimit="10" stroke-width="3"/><line x1="3.399" y2="26.185" transform="translate(133.579 -6.863)" fill="none" stroke="#00b4a6" stroke-miterlimit="10" stroke-width="3"/><line x2="22.678" y2="15.139" transform="translate(297.325 -1.58)" fill="none" stroke="#00b4a6" stroke-miterlimit="10" stroke-width="3"/><line x2="20.791" y2="16.276" transform="translate(274.733 -1.909)" fill="none" stroke="#00b4a6" stroke-miterlimit="10" stroke-width="3"/><line x2="15.937" y2="21.052" transform="translate(248.244 -4.297)" fill="none" stroke="#00b4a6" stroke-miterlimit="10" stroke-width="3"/><line x2="11.223" y2="23.901" transform="translate(223.974 -5.721)" fill="none" stroke="#00b4a6" stroke-miterlimit="10" stroke-width="3"/><line x2="3.399" y2="26.185" transform="translate(195.982 -6.863)" fill="none" stroke="#00b4a6" stroke-miterlimit="10" stroke-width="3"/><line x2="0.612" y2="26.397" transform="translate(165.208 -6.97)" fill="none" stroke="#00b4a6" stroke-miterlimit="10" stroke-width="3"/></g></g><path d="M268.847,159.24H400.978s26.816-1.95,26.816,24.378" transform="translate(-41.223 -67.059)" fill="none" stroke="#fff" stroke-linecap="round" stroke-linejoin="round" stroke-width="2"/><line y2="16.281" transform="translate(386.571 126.257)" stroke-width="2" stroke="#fff" stroke-linecap="round" stroke-linejoin="round" fill="none"/><line y2="36.737" transform="translate(386.571 261.431)" stroke-width="2" stroke="#fff" stroke-linecap="round" stroke-linejoin="round" fill="none"/><line y2="18.743" transform="translate(386.571 312.663)" stroke-width="2" stroke="#fff" stroke-linecap="round" stroke-linejoin="round" fill="none"/><path d="M458.417,457.9v15.1s.523,2.519-32.548,2.519" transform="translate(-41.223 -67.059)" fill="none" stroke="#fff" stroke-linecap="round" stroke-linejoin="round" stroke-width="2"/><path d="M454.753,469.012s.353,1.7-17.9,2.308" transform="translate(-41.223 -67.059)" fill="none" stroke="#fff" stroke-linecap="round" stroke-linejoin="round" stroke-width="2"/><path d="M382.832,230.577h17.8s10.141-.7,10.84,9.092v7.766" transform="translate(-41.223 -67.059)" fill="none" stroke="#fff" stroke-linecap="round" stroke-linejoin="round" stroke-width="2"/><line x2="7.804" transform="translate(328.88 163.518)" stroke-width="2" stroke="#fff" stroke-linecap="round" stroke-linejoin="round" fill="none"/><line x2="7.804" transform="translate(235.722 163.518)" stroke-width="2" stroke="#fff" stroke-linecap="round" stroke-linejoin="round" fill="none"/><path d="M293.945,230.577h17.8s10.14-.7,10.839,9.092v7.766" transform="translate(-41.223 -67.059)" fill="none" stroke="#fff" stroke-linecap="round" stroke-linejoin="round" stroke-width="2"/><path d="M205.153,230.577h17.8s10.141-.7,10.84,9.092v7.766" transform="translate(-41.223 -67.059)" fill="none" stroke="#fff" stroke-linecap="round" stroke-linejoin="round" stroke-width="2"/><line y2="7.766" transform="translate(192.573 189.731)" stroke-width="2" stroke="#fff" stroke-linecap="round" stroke-linejoin="round" fill="none"/><path d="M299.426,446.2a40.807,40.807,0,0,1-11.263.327" transform="translate(-41.223 -67.059)" fill="none" stroke="#fff" stroke-linecap="round" stroke-linejoin="round" stroke-width="2"/><line y2="4.292" transform="translate(390.791 415.725)" stroke-width="2" stroke="#fff" stroke-linecap="round" stroke-linejoin="round" fill="none"/><line y2="4.292" transform="translate(117.076 415.725)" stroke-width="2" stroke="#fff" stroke-linecap="round" stroke-linejoin="round" fill="none"/><line x1="259.874" transform="translate(106.96 408.451)" stroke-width="2" stroke="#fff" stroke-linecap="round" stroke-linejoin="round" fill="none"/><path d="M306.834,445.245c0,2.654-.808,3.842-5.467,4.643a135.138,135.138,0,0,1-19.008,1.2c-13.518,0-24.476-1.169-24.476-5.84,0-5.787,10.958-3.671,24.476-3.671S306.834,442.665,306.834,445.245Z" transform="translate(-41.223 -67.059)" fill="#003"/><path d="M292.139,427.869s3.5-3.859,7.334,0,2.071,13.023-7.334,12.059-3.618-6.852-3.618-6.852-11.334,4.386-8.8-6.922c0,0,1.085-2.68,5.185,0,0,0,.723-.214-1.447-10.343s.723-44.858,1.929-52.816,4.823-26.288,1.929-42.928-2.653-19.021-2.653-19.021h9.406a247.355,247.355,0,0,1,3.618,51.578S293.149,378,291.92,394.591c0,0-2.533,16.283.891,27.916C292.811,422.507,291.3,426.487,292.139,427.869Z" transform="translate(-41.223 -67.059)" fill="#00b4a6" stroke="#fff" stroke-miterlimit="10" stroke-width="1" opacity="0.8"/><path d="M268.11,394.383c9.426,2.151,18.168,6.336,27.358,9.233a51.06,51.06,0,0,0,14.032,2.7c3.339.084,7.149.321,10.477-.51,3.227-16.187,6.535-34.2,5.5-35.279-33.459,9.724-59.85,0-63.059,0-1.372,0,.411,11.161,2.9,23.94A5.255,5.255,0,0,1,268.11,394.383Z" transform="translate(-41.223 -67.059)" fill="#ff595a" opacity="0.6"/><path d="M262.421,370.522c2.791-6.458,46.954-10.369,63.06,0C321.272,371.746,296.817,380.665,262.421,370.522Z" transform="translate(-41.223 -67.059)" fill="#00b4a6" opacity="0.6"/><path d="M290.766,407.555c-4.448-1.4-8.745-3.2-13.133-4.764a66.332,66.332,0,0,0-7.348-2.236q-1.047-.244-2.106-.432l1.476.178a9.5,9.5,0,0,0-3.2-.177c3.158,15.576,6.817,31.478,6.817,31.478s3.462,18.961,15.412,18.267h10.543c12.351.019,15.413-18.267,15.413-18.267s1.989-9.229,4.278-20.513C309.478,412.193,299.79,410.4,290.766,407.555Z" transform="translate(-41.223 -67.059)" fill="#00b4a6" opacity="0.92"/><path d="M290.585,313.668s5.523,17.7,2.1,41.767" transform="translate(-41.223 -67.059)" fill="none" stroke="#fff" stroke-miterlimit="10" stroke-width="2"/><path d="M299.426,336.322a53.412,53.412,0,0,1,0,19.113" transform="translate(-41.223 -67.059)" fill="none" stroke="#00b4a6" stroke-miterlimit="10" stroke-width="2"/><path d="M299.849,331.6s-3.033-27.06-2.561-28.75" transform="translate(-41.223 -67.059)" fill="none" stroke="#00b4a6" stroke-miterlimit="10" stroke-width="2"/><line x1="3.751" y2="24.76" transform="translate(277.69 308.256)" stroke-width="2" stroke="#fff" stroke-linecap="round" stroke-linejoin="round" fill="none"/><path d="M315.437,414.332s-3.243,22.517-7.17,27.126" transform="translate(-41.223 -67.059)" fill="none" stroke="#fff" stroke-linecap="round" stroke-linejoin="round" stroke-width="2"/><rect width="36.364" height="9.395" transform="translate(232.616 226.398)" fill="#003"/></g></g></g></svg>