<svg xmlns="http://www.w3.org/2000/svg" xmlns:xlink="http://www.w3.org/1999/xlink" width="637.632" height="333.597" viewBox="0 0 637.632 333.597">
  <defs>
    <clipPath id="clip-path">
      <path id="Path_1896" data-name="Path 1896" d="M246.041,358.114s-.529,4.369,0,4.962,4.778,2.964,15.348,2.371,13.83-5.433,13.83-5.433l-.407-3.352s-.046,1.184-2.262.676c0,0-.944-.086-1.661,1.4,0,0-4.42,4.816-14.251,3.665a23.565,23.565,0,0,1-7.513-2.451s-1.009-.966-1.717-.751C247.41,359.2,246.152,358.962,246.041,358.114Z" transform="translate(-245.806 -356.662)" fill="none"/>
    </clipPath>
  </defs>
  <g id="Group_2163" data-name="Group 2163" transform="translate(20.229 -262.594)">
    <g id="Group_1705" data-name="Group 1705" transform="translate(148.548 126.941)">
      <path id="Path_1890" data-name="Path 1890" d="M438.437,425.2c-64.671-5.963-64.671-30.317-64.671-30.317v11.1c0,13.36,31.211,29.157,69.673,30.317,67.2,2.026,67.2-13.193,67.2-31.189,0,0,.169,8.589-13.454,14.2C497.185,419.308,462.253,427.394,438.437,425.2Z" transform="translate(-52.092 -51.352)" fill="#ffc055"/>
      <path id="Path_1893" data-name="Path 1893" d="M509.536,394.091c4.037,12.736.5,27.747-65.687,27.728-38.479-.011-70.083-18.243-70.083-31.6s30.421-25.123,68.9-25.123S505.662,381.87,509.536,394.091Z" transform="translate(-52.092 -46.686)" fill="#ff595a"/>
      <path id="Path_1894" data-name="Path 1894" d="M484.441,390.127c5.192,5.707.052,13.243-39.881,13.234-23.217-.006-35.045-5.142-35.045-11.829s11.082-9,34.3-9S480.034,385.284,484.441,390.127Z" transform="translate(-57.692 -49.418)" fill="#00b4a6"/>
      <line id="Line_189" data-name="Line 189" x2="8.786" y2="8.786" transform="translate(335.521 303.643)" fill="none" stroke="#ffc055" stroke-linecap="round" stroke-linejoin="round" stroke-width="4"/>
      <line id="Line_190" data-name="Line 190" x1="8.786" y2="8.786" transform="translate(432.469 303.643)" fill="none" stroke="#ffc055" stroke-linecap="round" stroke-linejoin="round" stroke-width="4"/>
      <line id="Line_191" data-name="Line 191" x2="4.52" y2="10.718" transform="translate(361.17 296.183)" fill="none" stroke="#ffc055" stroke-linecap="round" stroke-linejoin="round" stroke-width="4"/>
      <line id="Line_192" data-name="Line 192" x1="4.52" y2="10.718" transform="translate(412.523 296.183)" fill="none" stroke="#ffc055" stroke-linecap="round" stroke-linejoin="round" stroke-width="4"/>
      <line id="Line_193" data-name="Line 193" y2="9.095" transform="translate(390.11 294.548)" fill="none" stroke="#ffc055" stroke-linecap="round" stroke-linejoin="round" stroke-width="4"/>
      <path id="Path_1930" data-name="Path 1930" d="M514.119,425.308a7.454,7.454,0,0,0-7.812,2.008c-12.649,15.481-62.869,11.556-62.869,11.556-60.783-3.335-69.673-27.573-69.673-27.573" transform="translate(-52.092 -53.925)" fill="none" stroke="#fff" stroke-linecap="round" stroke-linejoin="round" stroke-width="2"/>
      <path id="Path_1931" data-name="Path 1931" d="M373.766,423.242s1.714,7.685,12.633,10.679" transform="translate(-52.092 -55.795)" fill="none" stroke="#fff" stroke-linecap="round" stroke-linejoin="round" stroke-width="1"/>
      <path id="Path_1932" data-name="Path 1932" d="M398.681,440.4s10.665,7.125,32.249,8.141" transform="translate(-55.995 -58.484)" fill="none" stroke="#fff" stroke-linecap="round" stroke-linejoin="round" stroke-width="1"/>
      <path id="Path_1933" data-name="Path 1933" d="M451.373,451.809s15.147,3,29.92,0" transform="translate(-64.249 -60.27)" fill="none" stroke="#fff" stroke-linecap="round" stroke-linejoin="round" stroke-width="1"/>
      <path id="Path_1934" data-name="Path 1934" d="M503.763,447.6s21.274-1.269,27.269-13.2" transform="translate(-72.456 -57.543)" fill="none" stroke="#fff" stroke-linecap="round" stroke-linejoin="round" stroke-width="1"/>
      <path id="Path_1935" data-name="Path 1935" d="M381.256,440.4a17.634,17.634,0,0,0,14.7,5.094" transform="translate(-53.265 -58.484)" fill="none" stroke="#fff" stroke-linecap="round" stroke-linejoin="round" stroke-width="1"/>
      <path id="Path_1936" data-name="Path 1936" d="M435.415,455.657a27.522,27.522,0,0,0,13.458,2.13" transform="translate(-61.749 -60.873)" fill="none" stroke="#fff" stroke-linecap="round" stroke-linejoin="round" stroke-width="1"/>
      <path id="Path_1937" data-name="Path 1937" d="M489.27,458.483a27.517,27.517,0,0,0,13.613-.587" transform="translate(-70.186 -61.224)" fill="none" stroke="#fff" stroke-linecap="round" stroke-linejoin="round" stroke-width="1"/>
      <path id="Path_1938" data-name="Path 1938" d="M538.809,421.225s3.658-2.378,6.586,0" transform="translate(-77.946 -55.314)" fill="none" stroke="#fff" stroke-linecap="round" stroke-linejoin="round" stroke-width="2"/>
      <path id="Path_1941" data-name="Path 1941" d="M538.809,416.143s4.582-1.563,6.586.6" transform="translate(-77.946 -54.598)" fill="none" stroke="#fff" stroke-linecap="round" stroke-linejoin="round" stroke-width="1"/>
      <path id="Path_1958" data-name="Path 1958" d="M467.593,425.308s50.158-.707,52.645-14.008" transform="translate(-66.79 -53.925)" fill="none" stroke="#fff" stroke-linecap="round" stroke-miterlimit="10" stroke-width="2"/>
      <path id="Path_1959" data-name="Path 1959" d="M528.437,403.088s2.291-8.816-8.507-15.77" transform="translate(-74.988 -50.168)" fill="none" stroke="#fff" stroke-linecap="round" stroke-miterlimit="10" stroke-width="2"/>
      <path id="Path_1960" data-name="Path 1960" d="M380.784,387.318s-8.792,8.859,6.316,17.719" transform="translate(-52.793 -50.168)" fill="none" stroke="#fff" stroke-linecap="round" stroke-miterlimit="10" stroke-width="2"/>
      <path id="Path_1961" data-name="Path 1961" d="M391.685,411.3a47.439,47.439,0,0,0,13.428,6.034" transform="translate(-54.899 -53.925)" fill="none" stroke="#fff" stroke-linecap="round" stroke-miterlimit="10" stroke-width="2"/>
    </g>
    <g id="Group_1707" data-name="Group 1707" transform="translate(110.548 116.941)">
      <rect id="Rectangle_887" data-name="Rectangle 887" width="448.229" height="11.03" rx="5.515" transform="translate(-130.777 187.702)" fill="#eee"/>
      <g id="Group_1706" data-name="Group 1706" transform="translate(3.532 148.255)">
        <path id="Path_1891" data-name="Path 1891" d="M419.147,241V222.156c0-26.617,19.315-27.426,19.315-1.038v70.549" transform="translate(-415.303 -201.355)" fill="none" stroke="#ff595a" stroke-linecap="square" stroke-linejoin="round" stroke-width="6"/>
        <path id="Path_1892" data-name="Path 1892" d="M472.91,240.155v-18c0-26.617,19.314-27.426,19.314-1.038v72.236" transform="translate(-423.724 -201.355)" fill="none" stroke="#ff595a" stroke-linecap="square" stroke-linejoin="round" stroke-width="6"/>
        <line id="Line_169" data-name="Line 169" x2="45.341" transform="translate(23.159 44.962)" fill="none" stroke="#ff595a" stroke-linecap="square" stroke-linejoin="round" stroke-width="6"/>
        <line id="Line_170" data-name="Line 170" x2="45.341" transform="translate(23.159 60.727)" fill="none" stroke="#ff595a" stroke-linecap="square" stroke-linejoin="round" stroke-width="6"/>
        <line id="Line_171" data-name="Line 171" x2="45.341" transform="translate(23.159 76.493)" fill="none" stroke="#ff595a" stroke-linecap="square" stroke-linejoin="round" stroke-width="6"/>
        <path id="Path_1928" data-name="Path 1928" d="M430.6,312.736s2.14-5.207,7.34-2.512c1.994,1.033,2.318,1.973,4.034.941,3.383-2.033,7.35-1.571,9.149,0" transform="translate(-417.096 -218.225)" fill="none" stroke="#fff" stroke-linecap="round" stroke-linejoin="round" stroke-width="2"/>
        <path id="Path_1929" data-name="Path 1929" d="M485.425,312.141s.813-2.947,7.316,0c0,0,2.033,1.241,5.182-1.31s7.621.815,7.621.815" transform="translate(-425.685 -218.292)" fill="none" stroke="#fff" stroke-linecap="round" stroke-linejoin="round" stroke-width="2"/>
        <rect id="Rectangle_896" data-name="Rectangle 896" width="8.225" height="3.775" transform="translate(0 39.447)" fill="#fff"/>
        <rect id="Rectangle_897" data-name="Rectangle 897" width="9.133" height="2.47" transform="translate(44.701 39.447)" fill="#fff"/>
        <path id="Path_1954" data-name="Path 1954" d="M427.724,201.7s8.779-3.142,11.153,10.318" transform="translate(-416.646 -201.296)" fill="none" stroke="#fff" stroke-linecap="round" stroke-miterlimit="10" stroke-width="2"/>
        <path id="Path_1955" data-name="Path 1955" d="M441.78,219.12s.227,2.461.227,7.379" transform="translate(-418.848 -204.075)" fill="none" stroke="#fff" stroke-linecap="round" stroke-miterlimit="10" stroke-width="2"/>
        <path id="Path_1956" data-name="Path 1956" d="M481.369,201.681s8.5-3.52,11.153,10.318" transform="translate(-425.049 -201.28)" fill="none" stroke="#fff" stroke-linecap="round" stroke-miterlimit="10" stroke-width="2"/>
        <path id="Path_1957" data-name="Path 1957" d="M495.425,219.12s.227,2.461.227,7.379" transform="translate(-427.251 -204.075)" fill="none" stroke="#fff" stroke-linecap="round" stroke-miterlimit="10" stroke-width="2"/>
        <line id="Line_198" data-name="Line 198" x2="15.8" transform="translate(48.424 43.879)" fill="none" stroke="#fff" stroke-linecap="round" stroke-miterlimit="10" stroke-width="1"/>
        <line id="Line_199" data-name="Line 199" x2="4.896" transform="translate(41.492 43.879)" fill="none" stroke="#fff" stroke-linecap="round" stroke-miterlimit="10" stroke-width="1"/>
        <line id="Line_200" data-name="Line 200" x2="15.8" transform="translate(48.424 75.459)" fill="none" stroke="#fff" stroke-linecap="round" stroke-miterlimit="10" stroke-width="1"/>
        <line id="Line_201" data-name="Line 201" x2="4.896" transform="translate(41.492 75.459)" fill="none" stroke="#fff" stroke-linecap="round" stroke-miterlimit="10" stroke-width="1"/>
        <line id="Line_202" data-name="Line 202" x2="12.211" transform="translate(52.014 59.376)" fill="none" stroke="#fff" stroke-linecap="round" stroke-miterlimit="10" stroke-width="1"/>
        <path id="Path_1969" data-name="Path 1969" d="M419.465,307.581s4.842-3.913,9.389-2.121" transform="translate(-415.352 -217.526)" fill="none" stroke="#fff" stroke-linecap="round" stroke-linejoin="round" stroke-width="1"/>
        <path id="Path_1970" data-name="Path 1970" d="M451.247,306.256a4.177,4.177,0,0,1,6.268,0" transform="translate(-420.331 -217.497)" fill="none" stroke="#fff" stroke-linecap="round" stroke-linejoin="round" stroke-width="1"/>
        <path id="Path_1971" data-name="Path 1971" d="M478.422,307.73a7.049,7.049,0,0,1,7.108-1.3" transform="translate(-424.588 -217.675)" fill="none" stroke="#fff" stroke-linecap="round" stroke-linejoin="round" stroke-width="1"/>
        <path id="Path_1972" data-name="Path 1972" d="M503.763,306.819s2.227-2.213,7.836,0" transform="translate(-428.557 -217.659)" fill="none" stroke="#fff" stroke-linecap="round" stroke-linejoin="round" stroke-width="1"/>
      </g>
    </g>
    <g id="Group_1704" data-name="Group 1704" transform="translate(94.548 193.941)">
      <path id="Path_1887" data-name="Path 1887" d="M325.844,364.917c3.661,11.549.42,26.02-59.592,26-34.89-.01-63.515-17.4-63.515-29.518s27.584-22.78,62.474-22.78S322.331,353.836,325.844,364.917Z" transform="translate(-85.301 -42.54)" fill="#fff"/>
      <path id="Path_1888" data-name="Path 1888" d="M261.375,393.123c-58.639-5.408-58.639-27.49-58.639-27.49V375.7c0,12.115,28.3,26.438,63.175,27.49,60.933,1.837,60.933-11.963,60.932-28.28,0,0,2.444,7.169-12.2,12.872C314.644,387.783,282.97,395.114,261.375,393.123Z" transform="translate(-85.301 -46.771)" fill="#003"/>
      <path id="Path_1889" data-name="Path 1889" d="M298.974,359.137c4.708,5.175.047,12.009-36.162,12-21.052-.005-31.777-4.662-31.777-10.726s10.049-8.162,31.1-8.162S294.978,354.745,298.974,359.137Z" transform="translate(-89.733 -44.674)" fill="#00b4a6"/>
      <path id="Path_1895" data-name="Path 1895" d="M246.041,358.114s-.529,4.369,0,4.962,4.778,2.964,15.348,2.371,13.83-5.433,13.83-5.433l-.407-3.352s-.046,1.184-2.262.676c0,0-.944-.086-1.661,1.4,0,0-4.42,4.816-14.251,3.665a23.565,23.565,0,0,1-7.513-2.451s-1.009-.966-1.717-.751C247.41,359.2,246.152,358.962,246.041,358.114Z" transform="translate(-92.048 -45.366)" fill="#fff"/>
      <g id="Group_1493" data-name="Group 1493" transform="translate(153.759 311.296)">
        <g id="Group_1492" data-name="Group 1492" clip-path="url(#clip-path)">
          <g id="Group_1491" data-name="Group 1491" transform="translate(2.763 1.014)">
            <line id="Line_180" data-name="Line 180" y1="5.28" x2="0.55" transform="translate(0 1.527)" fill="none" stroke="#00b4a6" stroke-linecap="round" stroke-miterlimit="10" stroke-width="2"/>
            <line id="Line_181" data-name="Line 181" y2="4.622" transform="translate(2.799 2.705)" fill="none" stroke="#00b4a6" stroke-linecap="round" stroke-miterlimit="10" stroke-width="2"/>
            <line id="Line_182" data-name="Line 182" y2="3.901" transform="translate(5.661 4.04)" fill="none" stroke="#00b4a6" stroke-linecap="round" stroke-miterlimit="10" stroke-width="2"/>
            <line id="Line_183" data-name="Line 183" y1="2.987" transform="translate(9.093 4.828)" fill="none" stroke="#00b4a6" stroke-linecap="round" stroke-miterlimit="10" stroke-width="2"/>
            <line id="Line_184" data-name="Line 184" x1="0.301" y1="3.499" transform="translate(12.519 4.273)" fill="none" stroke="#00b4a6" stroke-linecap="round" stroke-miterlimit="10" stroke-width="2"/>
            <line id="Line_185" data-name="Line 185" x2="0.869" y2="2.958" transform="translate(15.812 4.37)" fill="none" stroke="#00b4a6" stroke-linecap="round" stroke-miterlimit="10" stroke-width="2"/>
            <line id="Line_186" data-name="Line 186" x2="1.501" y2="4.31" transform="translate(19.22 2.422)" fill="none" stroke="#00b4a6" stroke-linecap="round" stroke-miterlimit="10" stroke-width="2"/>
            <line id="Line_187" data-name="Line 187" x2="1.728" y2="5.976" transform="translate(22.089)" fill="none" stroke="#00b4a6" stroke-linecap="round" stroke-miterlimit="10" stroke-width="2"/>
          </g>
        </g>
      </g>
      <path id="Path_1897" data-name="Path 1897" d="M274.875,360.637s2.5,10.171,3.522,11.466c0,0-13.162,1.556-23.438-.042,0,0-7.627-.627-11.352-1.88l1.892-7.173s6.641,3.984,16.9,2.958C271.839,365.024,274.875,360.637,274.875,360.637Z" transform="translate(-91.703 -45.988)" fill="#003"/>
      <ellipse id="Ellipse_208" data-name="Ellipse 208" cx="11.206" cy="13.628" rx="11.206" ry="13.628" transform="translate(153.759 245.943)" fill="#ff595a"/>
      <path id="Path_1898" data-name="Path 1898" d="M158.217,418.981c-74.617-5.7-74.563-27.848-74.563-27.848v10.614c0,12.773,35.692,29.031,80.069,30.139,77.536,1.937,77.855-13.769,77.855-30.972,0,0,.655,7.531-15.524,13.572C226.054,414.486,185.7,421.08,158.217,418.981Z" transform="translate(-66.647 -50.765)" fill="#ff595a"/>
      <path id="Path_1899" data-name="Path 1899" d="M240.306,390.378c4.658,12.176.1,25.3-76.264,25.277-44.4-.01-80.388-16.21-80.388-28.983s35.1-24.018,79.5-24.018S235.836,378.695,240.306,390.378Z" transform="translate(-66.647 -46.304)" fill="#ffc055"/>
      <path id="Path_1900" data-name="Path 1900" d="M206.114,384.283c5.99,5.456.06,12.661-46.015,12.652-26.788-.005-40.436-4.916-40.436-11.309s12.788-8.606,39.575-8.606S201.03,379.653,206.114,384.283Z" transform="translate(-72.287 -48.555)" fill="#00b4a6"/>
      <path id="Path_1901" data-name="Path 1901" d="M150.775,383.933l-3.866,4.471s5.666,3.63,20.838,3.187c7.228-.211,16.339-1.423,23.5-7.454l-5.29-3.1a77.454,77.454,0,0,1-20.036,4.7S151.81,386.085,150.775,383.933Z" transform="translate(-76.555 -49.184)" fill="#fff"/>
      <path id="Path_1902" data-name="Path 1902" d="M117.408,418.654s-1.731,6.07,6.846,7.351a95.718,95.718,0,0,1,17.155,4.536,4.108,4.108,0,0,0,4.509-1.277s-5.3-4.047-10.326-5.23a26.423,26.423,0,0,0-10.706-2.268S118.251,423.33,117.408,418.654Z" transform="translate(-71.912 -55.077)" fill="#00b4a6"/>
      <path id="Path_1903" data-name="Path 1903" d="M201.279,420.975s8.246,3.312,22.285,1.135c8.673-1.345,26.438-5.681,21.285-15.758,0,0-3.972,4.077-9.492,4.1a61.217,61.217,0,0,0-11.993.681s-8.315.635-12.3,5.338C211.064,416.472,209.469,418.29,201.279,420.975Z" transform="translate(-85.072 -53.15)" fill="#00b4a6"/>
      <path id="Path_1904" data-name="Path 1904" d="M91.869,416.133C95.054,419.378,115.8,427.8,115.8,427.8s32.832,8.8,55.163,8.65c27.888-.185,48.129-.111,63.4-9.83" transform="translate(-67.934 -54.682)" fill="none" stroke="#fff" stroke-linecap="round" stroke-linejoin="round" stroke-width="2"/>
      <ellipse id="Ellipse_209" data-name="Ellipse 209" cx="10.905" cy="13.262" rx="10.905" ry="13.262" transform="translate(73.957 268.253)" fill="#ffc055"/>
      <path id="Path_1905" data-name="Path 1905" d="M127.694,423.188s-3.131,4,0,10.957,1.78,20.433,4.833,21.74,6.819,0,6.819,0-2.533-16.805-.869-21.044c1.019-2.594,3.317-7.712,1.577-9.137A26.008,26.008,0,0,0,127.694,423.188Z" transform="translate(-73.327 -55.785)" fill="#ffc055"/>
      <path id="Path_1906" data-name="Path 1906" d="M231.736,408.366s7.021,2.344,5.393,8.856-2.124,24.708-.771,30.2c0,0-2.106,4.07-9.025,1.628s-1.6-17.993-1.8-25.522c-.083-3.109.713-14.055-8.236-13.038C217.294,410.491,225.124,407.994,231.736,408.366Z" transform="translate(-87.581 -53.459)" fill="#ffc055"/>
      <path id="Path_1907" data-name="Path 1907" d="M142.28,388.98s-25.727,10.791-24.857,24.357c0,0-1.392,3.826,8.87,3.826s19.641,6.783,19.641,6.783a14.771,14.771,0,0,0,6.795-10.784,13.4,13.4,0,0,1,5.958-10.261s8.3-.347,10.738-1.392,12.013,15.077,18.1,16.3,13.392-5.063,13.392-5.063,5.009-5.955,23.48-5.371c0,0,16.83-3.041-.565-11.259a45.263,45.263,0,0,0-11.621-1.906c-5.565,0-13.914-2.624-18.436-5.225,0,0-4.566-2.752-7.153-4.267,0,0-7.109,6.909-25.022,7.5C161.6,392.218,146.094,391.526,142.28,388.98Z" transform="translate(-71.927 -49.76)" fill="#003"/>
      <path id="Path_1908" data-name="Path 1908" d="M132.891,407.468l-1.9-.511a.1.1,0,0,0-.126.073l-.417,1.549-1.866-.5a.1.1,0,0,0-.126.073l-.416,1.547-1.842-.5a.1.1,0,0,0-.126.073l-.424,1.578a.1.1,0,0,0,.073.126l1.9.51a.1.1,0,0,0,.126-.073l.417-1.546,1.842.5a.1.1,0,0,0,.126-.073l.417-1.549,1.866.5a.1.1,0,0,0,.126-.073l.425-1.578A.1.1,0,0,0,132.891,407.468Z" transform="translate(-73.225 -53.244)" fill="#ffc055"/>
      <path id="Path_1909" data-name="Path 1909" d="M166.422,397.465l-1.9-.511a.1.1,0,0,0-.126.073l-.417,1.549-1.865-.5a.1.1,0,0,0-.126.073l-.417,1.546-1.842-.5a.1.1,0,0,0-.126.073l-.424,1.577a.1.1,0,0,0,.073.126l1.9.511a.1.1,0,0,0,.126-.073l.416-1.547,1.842.5a.1.1,0,0,0,.126-.073l.417-1.549,1.866.5a.1.1,0,0,0,.126-.073l.424-1.577A.1.1,0,0,0,166.422,397.465Z" transform="translate(-78.477 -51.677)" fill="#ff595a"/>
      <path id="Path_1910" data-name="Path 1910" d="M196.307,407.222l.777-1.806a.1.1,0,0,0-.054-.135l-1.474-.633.763-1.775a.1.1,0,0,0-.053-.135l-1.472-.633.754-1.753a.1.1,0,0,0-.054-.135l-1.5-.645a.1.1,0,0,0-.134.054l-.777,1.806a.1.1,0,0,0,.054.135l1.471.633-.753,1.752a.1.1,0,0,0,.053.134l1.474.634-.763,1.775a.1.1,0,0,0,.053.134l1.5.646A.1.1,0,0,0,196.307,407.222Z" transform="translate(-83.787 -52.086)" fill="#00b4a6"/>
      <rect id="Rectangle_891" data-name="Rectangle 891" width="2.273" height="2.499" rx="0.501" transform="translate(72.421 356.558) rotate(-67.758)" fill="#00b4a6"/>
      <rect id="Rectangle_892" data-name="Rectangle 892" width="2.273" height="2.499" rx="0.501" transform="translate(99.987 346.417) rotate(-67.758)" fill="#00b4a6"/>
      <rect id="Rectangle_893" data-name="Rectangle 893" width="2.273" height="2.499" rx="0.501" transform="translate(114.999 344.207) rotate(-67.758)" fill="#ff595a"/>
      <rect id="Rectangle_894" data-name="Rectangle 894" width="2.273" height="2.499" rx="0.501" transform="translate(67.229 364.156) rotate(-67.758)" fill="#ff595a"/>
      <rect id="Rectangle_895" data-name="Rectangle 895" width="2.273" height="2.499" rx="0.501" transform="translate(125.501 348.333) rotate(-67.758)" fill="#ffc055"/>
      <path id="Path_1911" data-name="Path 1911" d="M143.776,399.355a.107.107,0,0,1-.142.054l-1.557-.7c-.005,0-.009-.008-.013-.01a.1.1,0,0,1-.017,0l-1.557-.7a.107.107,0,0,1-.053-.142l.724-1.6a.107.107,0,0,1,.142-.054l1.489.674.815-1.8a.107.107,0,0,1,.142-.053l1.556.7a.107.107,0,0,1,.054.142l-.847,1.873-.009.013a.044.044,0,0,1,0,.014Z" transform="translate(-75.54 -51.371)" fill="#ff595a"/>
      <path id="Path_1912" data-name="Path 1912" d="M229.614,404.537a.107.107,0,0,1-.011.151l-1.29,1.119s-.01.005-.014.008-.006.01-.011.013L227,406.948a.107.107,0,0,1-.151-.01l-1.152-1.327a.108.108,0,0,1,.011-.152l1.235-1.071-1.3-1.494a.108.108,0,0,1,.011-.152l1.289-1.119a.107.107,0,0,1,.151.011l1.347,1.552a.057.057,0,0,1,.008.014l.013.009Z" transform="translate(-88.885 -52.405)" fill="#ffc055"/>
      <path id="Path_1913" data-name="Path 1913" d="M208.469,406.91a.107.107,0,0,1,.041-.146l1.493-.829a.064.064,0,0,1,.017-.005.08.08,0,0,1,.013-.011l1.494-.83a.106.106,0,0,1,.145.042l.853,1.537a.107.107,0,0,1-.041.145l-1.429.794.961,1.73a.106.106,0,0,1-.042.145l-1.493.83a.107.107,0,0,1-.146-.042l-1-1.8s0-.009-.005-.014-.007-.007-.01-.012Z" transform="translate(-86.197 -52.95)" fill="#ff595a"/>
      <path id="Path_1914" data-name="Path 1914" d="M120.248,462.3s5.952-2.721,10.4-.581,8.159.968,13.35-.775,10.287,1.356,10.287,1.356" transform="translate(-72.379 -61.618)" fill="none" stroke="#fff" stroke-linecap="round" stroke-linejoin="round" stroke-width="2"/>
      <path id="Path_1915" data-name="Path 1915" d="M215.114,456.069s5.6-6.795,9.005-3.221c2.873,3.015,6.8,4.723,11.9,1.387,4.584-3,13.134,1.833,13.134,1.833" transform="translate(-87.24 -60.27)" fill="none" stroke="#fff" stroke-linecap="round" stroke-linejoin="round" stroke-width="2"/>
      <path id="Path_1916" data-name="Path 1916" d="M59.763,432.861a7.992,7.992,0,0,1,9.034,3.019c3.935,5.028,8.111,2.869,10.74,1.276,4.777-2.9,10.9.433,11.459,1.367" transform="translate(-62.904 -57.24)" fill="none" stroke="#fff" stroke-linecap="round" stroke-linejoin="round" stroke-width="2"/>
      <path id="Path_1917" data-name="Path 1917" d="M98.977,425.5a6.936,6.936,0,0,0,4.59,3.52,59.5,59.5,0,0,1,10.912,3.366" transform="translate(-69.047 -56.149)" fill="none" stroke="#fff" stroke-linecap="round" stroke-linejoin="round" stroke-width="1"/>
      <path id="Path_1918" data-name="Path 1918" d="M149.512,440.4a45.785,45.785,0,0,0,19.022,3.21" transform="translate(-76.963 -58.484)" fill="none" stroke="#fff" stroke-linecap="round" stroke-linejoin="round" stroke-width="1"/>
      <path id="Path_1919" data-name="Path 1919" d="M202.736,444.057s12.05.009,16.353-1.145" transform="translate(-85.301 -58.877)" fill="none" stroke="#fff" stroke-linecap="round" stroke-linejoin="round" stroke-width="1"/>
      <path id="Path_1920" data-name="Path 1920" d="M250.7,437.5s18.785-3.531,18.143-11.583" transform="translate(-92.815 -56.214)" fill="none" stroke="#fff" stroke-linecap="round" stroke-linejoin="round" stroke-width="1"/>
      <path id="Path_1921" data-name="Path 1921" d="M176.351,449.707a45.475,45.475,0,0,0,7.848,1.773c5.223.81,9.651-.287,13.175-.886" transform="translate(-81.168 -59.941)" fill="none" stroke="#fff" stroke-linecap="round" stroke-linejoin="round" stroke-width="1"/>
      <path id="Path_1922" data-name="Path 1922" d="M273.244,407.09s31.487,3.179,51.036-3.852c0,0,10.172-3.136,11.777-9.9" transform="translate(-96.346 -51.112)" fill="none" stroke="#fff" stroke-linecap="round" stroke-linejoin="round" stroke-width="2"/>
      <path id="Path_1923" data-name="Path 1923" d="M310.484,415.45s14.37.774,20.517-4.15" transform="translate(-102.179 -53.925)" fill="none" stroke="#fff" stroke-linecap="round" stroke-linejoin="round" stroke-width="1"/>
      <path id="Path_1924" data-name="Path 1924" d="M278.062,416.2a49.364,49.364,0,0,0,17.783-.072" transform="translate(-97.1 -54.682)" fill="none" stroke="#fff" stroke-linecap="round" stroke-linejoin="round" stroke-width="1"/>
      <path id="Path_1925" data-name="Path 1925" d="M343.924,406.31s13.612-5.952,9.879-12.967" transform="translate(-107.417 -51.112)" fill="none" stroke="#fff" stroke-linecap="round" stroke-linejoin="round" stroke-width="1"/>
      <path id="Path_1926" data-name="Path 1926" d="M337.148,415.468s9.025-1.531,11.428-4.13" transform="translate(-106.356 -53.931)" fill="none" stroke="#fff" stroke-linecap="round" stroke-linejoin="round" stroke-width="1"/>
      <path id="Path_1927" data-name="Path 1927" d="M297.638,422.725s9.089,1.085,12.129-.728" transform="translate(-100.167 -55.6)" fill="none" stroke="#fff" stroke-linecap="round" stroke-linejoin="round" stroke-width="1"/>
      <path id="Path_1939" data-name="Path 1939" d="M368.107,408.911s-4.326-2.179-7.419.284" transform="translate(-110.043 -53.411)" fill="none" stroke="#fff" stroke-linecap="round" stroke-linejoin="round" stroke-width="1"/>
      <path id="Path_1940" data-name="Path 1940" d="M367.629,413.566s-4.646-2.679-9.148,0" transform="translate(-109.698 -54.093)" fill="none" stroke="#fff" stroke-linecap="round" stroke-linejoin="round" stroke-width="2"/>
      <path id="Path_1947" data-name="Path 1947" d="M164.111,307.984s6.06-1.338,7.841,6.856" transform="translate(-79.25 -37.728)" fill="none" stroke="#fff" stroke-linecap="round" stroke-miterlimit="10" stroke-width="1.5"/>
      <path id="Path_1948" data-name="Path 1948" d="M174.519,318.737a14.127,14.127,0,0,1,0,4.759" transform="translate(-80.881 -39.425)" fill="none" stroke="#fff" stroke-linecap="round" stroke-miterlimit="10" stroke-width="1.5"/>
      <path id="Path_1949" data-name="Path 1949" d="M259.512,281.731s6.227-1.375,8.057,7.045" transform="translate(-94.194 -33.615)" fill="none" stroke="#fff" stroke-linecap="round" stroke-miterlimit="10" stroke-width="1.5"/>
      <path id="Path_1950" data-name="Path 1950" d="M270.207,292.78a14.518,14.518,0,0,1,0,4.89" transform="translate(-95.87 -35.359)" fill="none" stroke="#fff" stroke-linecap="round" stroke-miterlimit="10" stroke-width="1.5"/>
      <path id="Path_1951" data-name="Path 1951" d="M175.984,341.3s2.134.4,5.241,6.56" transform="translate(-81.11 -42.959)" fill="none" stroke="#fff" stroke-linecap="round" stroke-miterlimit="10" stroke-width="1.5"/>
      <path id="Path_1952" data-name="Path 1952" d="M353.013,372.991s1.2-1.013,4.146.432,7.113-.536,7.217-1.37" transform="translate(-108.841 -47.777)" fill="none" stroke="#fff" stroke-linecap="round" stroke-linejoin="round" stroke-width="2"/>
      <path id="Path_1953" data-name="Path 1953" d="M214.168,364.55s7.309-.959,11.667,1.517" transform="translate(-87.091 -46.573)" fill="none" stroke="#fff" stroke-linecap="round" stroke-miterlimit="10" stroke-width="1.5"/>
      <path id="Path_1962" data-name="Path 1962" d="M234.47,398.527s7.5,1.251,11.19,4.222c0,0,3.3,2.377.983,3.4" transform="translate(-90.272 -51.924)" fill="none" stroke="#fff" stroke-linecap="round" stroke-miterlimit="10" stroke-width="1.5"/>
      <path id="Path_1963" data-name="Path 1963" d="M279.781,393.724s28.352,1.846,44.9-5.726" transform="translate(-97.37 -50.274)" fill="none" stroke="#003" stroke-linecap="round" stroke-miterlimit="10" stroke-width="2"/>
      <path id="Path_1964" data-name="Path 1964" d="M337.906,383.107s11.869-4.237,5.075-15.916" transform="translate(-106.475 -47.015)" fill="none" stroke="#003" stroke-linecap="round" stroke-miterlimit="10" stroke-width="2"/>
      <path id="Path_1965" data-name="Path 1965" d="M263.207,395.963s7.525,8.331-7.734,15.952" transform="translate(-93.562 -51.522)" fill="none" stroke="#ff595a" stroke-linecap="round" stroke-miterlimit="10" stroke-width="2"/>
      <path id="Path_1966" data-name="Path 1966" d="M187.085,421.43s-14.367.713-23.375-.467" transform="translate(-79.187 -55.438)" fill="none" stroke="#ff595a" stroke-linecap="round" stroke-miterlimit="10" stroke-width="2"/>
      <path id="Path_1967" data-name="Path 1967" d="M89.069,393s-9.036-5.244,7.981-15.975" transform="translate(-67.119 -48.555)" fill="none" stroke="#ff595a" stroke-linecap="round" stroke-miterlimit="10" stroke-width="2"/>
      <path id="Path_1968" data-name="Path 1968" d="M104,406.954s5.113,2.177,7.954,2.985" transform="translate(-69.833 -53.244)" fill="none" stroke="#ff595a" stroke-linecap="round" stroke-miterlimit="10" stroke-width="2"/>
      <path id="Path_1973" data-name="Path 1973" d="M366.487,367.026s4.216-2.324,6.139.546" transform="translate(-110.952 -46.85)" fill="none" stroke="#fff" stroke-linecap="round" stroke-linejoin="round" stroke-width="1"/>
      <path id="Path_1974" data-name="Path 1974" d="M144.331,342.216s10.152,3.858,14.949-4.414c0,0,2.409-.481,6.9,7.962,0,0,8.17,16.4,22.506,13.665,12.413-2.37,18.888,1.927,36.2,14.836,8.343,6.221,16.2,1.418,21.866.875s6.43,6.307-7.7,9.249-28.137-8.513-28.137-8.513c-8.778-7.611-15.923-7.751-20.416-7.088s-12.863,2.246-18.579-5.129-7.293-4.9-7.293-4.9c3.456,4.054,8.962,15.505,8.962,15.505-10.873,6.734-39.031,5.349-35.4,2.179s2.9-20.01,2.112-13.783a54.445,54.445,0,0,1-2.112,10.019c-6.074,7.132-15.719,10.7-15.719,10.7-28.531,7.132-37.842,23.18-37.842,23.18-3.438,6.691-.991,19.218-7.963,17.634S68,418.448,68,418.448c3.764-28.926,42.6-42.2,52.7-43.786s14.459-10.328,15.454-17.6c1.2-8.761,5.123-12.908,8.179-14.843" transform="translate(-64.194 -42.411)" fill="#ff595a"/>
      <path id="Path_1975" data-name="Path 1975" d="M251.1,315.73" transform="translate(-92.877 -38.954)" fill="#ffc055"/>
      <path id="Path_1976" data-name="Path 1976" d="M242.384,315.06s7.353,4.1,12.83-.46a14.3,14.3,0,0,1,19.312,1.29c11.994,13.193,14.529,20.848,30.579,20.919,15.4.067,31.688,6.057,32.884,26.763,0,0-1.117,1.861-6.7,0,0,0-5.518-18.88-23.393-16.118-11.724,1.812-18.749-1.842-24.746-7.367-12.134-11.176-16.951-19.942-21.577-17.734-1.095.523,5.747,20.889,5.354,27.228-.09,1.467-2.477.307-3.036,1.286-2.978,5.211-16.441,6.743-23.348,1.81-.977-.7-2.234.072-2.508-1.452-1.187-6.6,4.294-24.875,4.294-24.875s-5.585-2.819-8.4,2.266c-4.834,8.741-10.361,17.243-21.791,19.338-6.546,0-8.374,15.4-9.344,16.563-1.861,2.233-7.34-2.605-7.34-2.605s4.621-19.772,13-21.153c13.265-2.185,11.963-17.161,22.662-25a11.559,11.559,0,0,1,11.266-.7" transform="translate(-84.16 -38.284)" fill="#ffc055"/>
    </g>
  </g>
</svg>
