<svg xmlns="http://www.w3.org/2000/svg" width="496.488" height="461.559" viewBox="0 0 496.488 461.559"><g transform="translate(-663.512 -1911)"><g transform="translate(663.512 1911)"><rect width="459.133" height="417.738" rx="77.652" transform="translate(37.355)" fill="#ffc055"/><path d="M94.883,1090.021s3.986,58.649,58.795,66.693" transform="translate(-49.514 -746.676)" fill="none" stroke="#fff" stroke-linecap="round" stroke-linejoin="round" stroke-width="4"/><rect width="143.765" height="39.377" rx="8.173" transform="translate(112.072 30.781)" fill="#ff595a"/><rect width="116.214" height="39.377" rx="8.173" transform="translate(70.866 57.414)" fill="#ff595a"/><path d="M125.064,826.2V814.941s-.6-7.427,9.894-7.171" transform="translate(-49.514 -746.676)" fill="none" stroke="#fff" stroke-linecap="round" stroke-miterlimit="10" stroke-width="2"/><path d="M233.3,833.017s.6,7.427-9.894,7.172" transform="translate(-49.514 -746.676)" fill="none" stroke="#fff" stroke-linecap="round" stroke-miterlimit="10" stroke-width="2"/><path d="M300.031,804.175s.6,7.427-9.894,7.171" transform="translate(-49.514 -746.676)" fill="none" stroke="#fff" stroke-linecap="round" stroke-miterlimit="10" stroke-width="2"/><line x2="12.27" transform="translate(87.707 61.088)" fill="none" stroke="#fff" stroke-linecap="round" stroke-miterlimit="10" stroke-width="2"/><line x2="64.086" transform="translate(103.034 61.088)" fill="none" stroke="#fff" stroke-linecap="round" stroke-miterlimit="10" stroke-width="2"/><path d="M167.838,800.67V789.411s-.6-7.427,9.894-7.171" transform="translate(-49.514 -746.676)" fill="none" stroke="#fff" stroke-linecap="round" stroke-miterlimit="10" stroke-width="2"/><line x2="110.259" transform="translate(130.481 35.557)" fill="none" stroke="#fff" stroke-linecap="round" stroke-miterlimit="10" stroke-width="2"/><ellipse cx="17.055" cy="20.742" rx="17.055" ry="20.742" transform="translate(251.296 95.59)" fill="#ff595a"/><path d="M318.4,845.573s9.478-2.093,12.263,10.723" transform="translate(-49.514 -746.676)" fill="none" stroke="#fff" stroke-linecap="round" stroke-miterlimit="10" stroke-width="1.5"/><path d="M332.13,859.736a22.093,22.093,0,0,1,0,7.442" transform="translate(-49.514 -746.676)" fill="none" stroke="#fff" stroke-linecap="round" stroke-miterlimit="10" stroke-width="1.5"/><path d="M52.084,926.983v53.7h35.8v-30.42a1.947,1.947,0,0,1,1.947-1.947h36.7v-28.2H58.953A6.869,6.869,0,0,0,52.084,926.983Z" transform="translate(-49.514 -746.676)" fill="#ff595a"/><path d="M416.882,993.133a1.944,1.944,0,0,0,1.944,1.945h31a1.809,1.809,0,0,0,.3-.062,1.841,1.841,0,0,0,.306.062h31a1.944,1.944,0,0,0,1.944-1.945v-31.9a1.944,1.944,0,0,0-1.944-1.944H451.77v-35.9a1.945,1.945,0,0,0-1.945-1.945h-31a1.944,1.944,0,0,0-1.944,1.945v37.3a1.833,1.833,0,0,0,.055.275,1.8,1.8,0,0,0-.055.274Z" transform="translate(-49.514 -746.676)" fill="#003"/><path d="M165.631,912.492H128.292a1.947,1.947,0,0,0-1.947,1.947v30.474H89.64a1.947,1.947,0,0,0-1.947,1.947v30.419H51.461a1.947,1.947,0,0,0-1.947,1.947v31.035a1.947,1.947,0,0,0,1.947,1.947H88.8a1.947,1.947,0,0,0,1.947-1.947V979.842H126.98a1.947,1.947,0,0,0,1.947-1.947V947.421h36.7a1.946,1.946,0,0,0,1.947-1.947V914.439A1.947,1.947,0,0,0,165.631,912.492Z" transform="translate(-49.514 -746.676)" fill="#003"/><path d="M355.431,1050.851s11.3,55.725,9.189,86.12H336.15l-9.288-70.078Z" transform="translate(-49.514 -746.676)" fill="#fff"/><path d="M329.665,887.918c.755-.9,1.787,6.379,9.117-.3,48.576-31.322,44.8-81.663,94.828-88.258,36.763-4.846,66.563,5.932,69.226,58.613s-29.821,91.549-31.418,101.936-4.793,17.842-.533,29.557-3.691,23.991-15.312,15.51.628-10.365.628-10.365,2.513-.314,1.257-4.711,4.711-15.705,1.256-18.531-10.365-9.737-5.654-13.82,8.8,0,10.051,5.025,3.455-15.39,9.737-36.749,23.243-74.191,7.538-94.731c0,0-20.1-27.764-49.94-8.29,0,0-14.918,12.98-32.666,40.2-20.8,31.914-47.214,38.529-51.925,39.523s-2.513,13.558-.942,17.955,19.957,123.979,17.444,133.716l-66.806-.6s9.158-96.05,11.985-106.73,3.769-20.729.942-17.274,2.827,18.845-27.012,27.011-56.222-14.762-69.1-33.607-22.929-36.68-44.915-28.077-17.911,17.57-17.911,17.57-15.83.343-16.328,3.466c-.643,4.032-3.452,14.694-13.5,14.694s-1.884-19.275,2.513-23.358S136.2,897.15,143.9,901.012c0,0,2.68,2.358,7.224-10.365,6.282-17.589,54.108-14.247,73.5,21.358,17.275,31.724,48.583,26.972,57.793,22.929,20.5-9,25.48-32.335,26.658-41.477C309.067,893.457,320.569,898.8,329.665,887.918Z" transform="translate(-49.514 -746.676)" fill="#00b4a6"/><path d="M403.167,1130.361H370.723a.818.818,0,0,0-.639,0H337.641a2.035,2.035,0,0,1-2.035-2.035v-33.387a2.035,2.035,0,0,1,2.035-2.035h31.047V1055.33a2.022,2.022,0,0,1,.7-1.524H205.545l-.215-126.823a6.869,6.869,0,0,0-6.87-6.869H167.768v28.763a1.947,1.947,0,0,1-1.947,1.947H129.116V981.3a1.947,1.947,0,0,1-1.947,1.947H90.937v30.42a1.947,1.947,0,0,1-1.947,1.947H52.084v43.123a2.5,2.5,0,0,1,0,1.942v140.69a6.869,6.869,0,0,0,6.869,6.869H168.46a6.488,6.488,0,0,0,1.078-.217,6.48,6.48,0,0,0,1.079.217H397.78a6.87,6.87,0,0,0,6.87-6.869v-71.654A2.027,2.027,0,0,1,403.167,1130.361Z" transform="translate(-49.514 -746.676)" fill="#ff595a"/><path d="M340.149,920.114s16.267,83,17.123,125.378" transform="translate(-49.514 -746.676)" fill="none" stroke="#fff" stroke-linecap="round" stroke-miterlimit="10" stroke-width="1.5"/><path d="M340.149,892.238s28.061-21.1,36.387-38.955" transform="translate(-49.514 -746.676)" fill="none" stroke="#fff" stroke-linecap="round" stroke-miterlimit="10" stroke-width="1.5"/><path d="M414.635,811.353s35.495-24.851,68.744,0" transform="translate(-49.514 -746.676)" fill="none" stroke="#fff" stroke-linecap="round" stroke-miterlimit="10" stroke-width="1.5"/><path d="M485.7,816.834s9.06,7.915,12.842,34.037" transform="translate(-49.514 -746.676)" fill="none" stroke="#fff" stroke-linecap="round" stroke-miterlimit="10" stroke-width="1.5"/><path d="M453.131,961.717s.8-4.484,4.726-3.456" transform="translate(-49.514 -746.676)" fill="none" stroke="#fff" stroke-linecap="round" stroke-miterlimit="10" stroke-width="1.5"/><path d="M453.131,999.525s3.629,5.113,9.174,5.838,7.784-8.618,7.784-8.618" transform="translate(-49.514 -746.676)" fill="none" stroke="#fff" stroke-linecap="round" stroke-miterlimit="10" stroke-width="1.5"/><path d="M432.242,924.282h12.321s4.379-.043,4.379,7.186" transform="translate(-49.514 -746.676)" fill="none" stroke="#fff" stroke-linecap="round" stroke-miterlimit="10" stroke-width="1.5"/><line y2="14.366" transform="translate(399.428 187.77)" fill="none" stroke="#fff" stroke-linecap="round" stroke-miterlimit="10" stroke-width="1.5"/><path d="M476.273,961.717s4.379-.044,4.379,7.185" transform="translate(-49.514 -746.676)" fill="none" stroke="#fff" stroke-linecap="round" stroke-miterlimit="10" stroke-width="1.5"/><line y2="14.366" transform="translate(431.138 225.205)" fill="none" stroke="#fff" stroke-linecap="round" stroke-miterlimit="10" stroke-width="1.5"/><path d="M123.118,927.875s-7.8,1.77-5.747-7.507,10.731-19.589,22.579-17.653" transform="translate(-49.514 -746.676)" fill="none" stroke="#fff" stroke-linecap="round" stroke-miterlimit="10" stroke-width="1.5"/><path d="M231.5,926.259s23.4,28.012,60.758,8.187" transform="translate(-49.514 -746.676)" fill="none" stroke="#fff" stroke-linecap="round" stroke-miterlimit="10" stroke-width="1.5"/><line y2="51.445" transform="translate(349.748 387.295)" fill="none" stroke="#fff" stroke-linecap="round" stroke-miterlimit="10" stroke-width="1.5"/><line y2="9.637" transform="translate(349.748 444.005)" fill="none" stroke="#fff" stroke-linecap="round" stroke-miterlimit="10" stroke-width="1.5"/><line y1="13.101" transform="translate(315.369 329.618)" fill="none" stroke="#fff" stroke-linecap="round" stroke-miterlimit="10" stroke-width="1.5"/><line y1="6.55" transform="translate(315.369 319.077)" fill="none" stroke="#fff" stroke-linecap="round" stroke-miterlimit="10" stroke-width="1.5"/><line y2="44.618" transform="translate(150.451 187.77)" fill="none" stroke="#fff" stroke-linecap="round" stroke-miterlimit="10" stroke-width="1.5"/><line y2="56.665" transform="translate(150.451 242.35)" fill="none" stroke="#fff" stroke-linecap="round" stroke-miterlimit="10" stroke-width="1.5"/><path d="M311.913,897.812s11,2.563,17.752-5.574" transform="translate(-49.514 -746.676)" fill="none" stroke="#fff" stroke-linecap="round" stroke-miterlimit="10" stroke-width="1.5"/><line x2="139.929" transform="translate(159.268 313.499)" fill="none" stroke="#fff" stroke-linecap="round" stroke-miterlimit="10" stroke-width="1.5"/><path d="M357.272,1097.345s2.517,13.279,1.071,26.023" transform="translate(-49.514 -746.676)" fill="none" stroke="#003" stroke-linecap="round" stroke-miterlimit="10" stroke-width="2"/><line x2="30.811" transform="translate(4.509 261.804)" fill="none" stroke="#fff" stroke-linecap="round" stroke-miterlimit="10" stroke-width="1.5"/><line x2="30.811" transform="translate(43.627 227.962)" fill="none" stroke="#fff" stroke-linecap="round" stroke-miterlimit="10" stroke-width="1.5"/><line x2="30.811" transform="translate(82.504 197.656)" fill="none" stroke="#fff" stroke-linecap="round" stroke-miterlimit="10" stroke-width="1.5"/><line y1="8.757" transform="translate(35.32 245.641)" fill="none" stroke="#fff" stroke-linecap="round" stroke-miterlimit="10" stroke-width="1.5"/></g></g></svg>