<svg xmlns="http://www.w3.org/2000/svg" width="465.587" height="442.854" viewBox="0 0 465.587 442.854"><g transform="translate(-628.371 -196.334)"><g transform="translate(554.777 94.792)"><path d="M354.356,331.932s10.446,32.253,26,26.839,3.66-96.393,3.66-96.393l-8.235-5.831s-3.493-4.872.083-5.83,9.24,2.916,9.24,2.916.262-20.266,3.26-22.949,13.43-9.619,17.9,4.43-7.749,31.3-7.749,31.3l-2.087,2.125s7.153,66.166,4.471,76.3-4.471,19.619-12.816,23.519-19.173-1.464-33.728-11.895-8.892-28.823-8.892-28.823l7.153-3.3Z" fill="#fff"/></g><g transform="translate(554.777 94.792)"><ellipse cx="32.42" cy="20.903" rx="32.42" ry="20.903" transform="translate(261.337 232.538) rotate(-87.745)" fill="#ffc055"/></g><g transform="translate(554.777 94.792)"><path d="M288.3,228.632a1.331,1.331,0,0,1-.917-2.295c9.172-8.717,12.571-19.611,10.1-32.381a51.861,51.861,0,0,0-6.606-16.885,1.331,1.331,0,0,1,2.217-1.473c.2.3,19.674,30.288-3.879,52.669A1.326,1.326,0,0,1,288.3,228.632Z" fill="#fff"/></g><g transform="translate(554.777 94.792)"><path d="M279.479,544.4,281,505.682s24.54-9.45,33.632-6.947l-1.8,45.661h27.244c1.825-14.8,8.1-69.376,1.574-71.234-7.547-2.151-88.492-.437-88.492-.437s-10.387,61.985-7.037,71.671Z" fill="#003"/></g><g transform="translate(554.777 94.792)"><path d="M236.931,332.617s-26.3,3.056-25.95-5.931,20.244-77.753,36.487-74.659,43.848,11.149,54.27,2.073,38.177-1.706,41.187,4.958,17.325,37.966,19.524,65.232c0,0-10.3,12.264-25.884,13.178,0,0,22.77,86.7,14.079,141.182,0,0-72.826,20.861-102.121-4.021C248.523,474.629,227.462,448.434,236.931,332.617Z" fill="#00b4a6"/></g><g transform="translate(554.777 94.792)"><path d="M261.383,246.588s-7.974,21.547.631,30.39c0,0-4.981,13.415,4.681,18.582s54.855.454,55.388-8.245,3.012-15.2-1.553-22.131l6.13-5.029s-.323-21.847-9.29-24.788S278.247,256.353,261.383,246.588Z" fill="#ff595a"/></g><g transform="translate(554.777 94.792)"><path d="M303.068,319.411s26.045,2.429,35.328-6.564c0,0-4.793-3.2-4.488-8.175s-1.248-27.1-4.874-28.988-2.385-16.5-2.475-17.744-15.409,4.27-15.409,4.27l-7.939,15.216S306.559,316.715,303.068,319.411Z" fill="#ff595a"/></g><g transform="translate(554.777 94.792)"><path d="M254.5,355.007s21.35-10.142,39.5,0V395.1H254.5Z" fill="#003"/></g><g transform="translate(554.777 94.792)"><path d="M294,364.729s9.074-2.906,10.676,4.952S294,387.146,294,387.146v-5.209s6.92-7.185,6.521-9.182-2.4-5.617-6.521-3.074-3.859,0-3.859,0Z" fill="#003"/></g><g transform="translate(554.777 94.792)"><path d="M280.223,366.815s-11.629-5.866-13.111,1.355-2.7,12.009-4.815,11.756-30.495,15.323-49.509-11.244c0,0-10.587-7.232,18.742-35.789-.384-.01-.77,0-1.154-.014a102.621,102.621,0,0,1-10.405-.947c-9.648,7.681-34.1,28.854-25.439,39.871,10.7,13.615,28.351,25.6,66.526,18.457S280.223,366.815,280.223,366.815Z" fill="#fff"/></g><g transform="translate(554.777 94.792)"><path d="M238.032,441.886a1.329,1.329,0,0,1-1.324-1.223c-.035-.426-3.441-42.911-3.215-72.32.228-29.538,10.676-64.464,10.782-64.814a1.33,1.33,0,1,1,2.546.769c-.1.347-10.442,34.916-10.667,64.065-.225,29.29,3.172,71.661,3.206,72.085a1.33,1.33,0,0,1-1.219,1.433A.983.983,0,0,1,238.032,441.886Z" fill="#fff"/></g><g transform="translate(554.777 94.792)"><path d="M272.673,279.783c-7.073,0-10.886-1.464-11.151-1.568a1.331,1.331,0,0,1,.981-2.474c.165.064,10.636,3.964,29.447-1.779a117.466,117.466,0,0,0,18.914-7.845c6.994-3.47,11.616-5.764,16.222-3.141a1.33,1.33,0,1,1-1.317,2.311c-3.378-1.919-7.271.011-13.723,3.214a119.6,119.6,0,0,1-19.318,8A68.774,68.774,0,0,1,272.673,279.783Z" fill="#fff"/></g><g transform="translate(554.777 94.792)"><path d="M304.371,296.939a1.331,1.331,0,0,1-.472-2.575c6.761-2.569,24.219-10.918,23.806-18.609a1.331,1.331,0,0,1,2.658-.142c.59,11.005-22.845,20.224-25.52,21.239A1.325,1.325,0,0,1,304.371,296.939Z" fill="#fff"/></g><g transform="translate(554.777 94.792)"><path d="M272.289,250.213c-7.254,0-11.3-2.308-11.584-2.48a1.331,1.331,0,0,1,1.352-2.292c.165.094,11.689,6.494,31.325-3.775,19.532-10.217,24.008-8.392,25.024-7.136a1.331,1.331,0,0,1-1.914,1.836c-.359-.15-4.464-1.45-21.876,7.66C285.421,248.834,277.9,250.213,272.289,250.213Zm44.053-14h0Zm0-.005,0,0Zm0,0,0,0Z" fill="#fff"/></g><g transform="translate(554.777 94.792)"><path d="M311.245,321c-4.756,0-8.226-.254-8.277-.258a1.331,1.331,0,0,1,.2-2.654c8.106.608,30.029.724,34.093-5.93a1.33,1.33,0,0,1,2.271,1.386c-2.47,4.045-9.445,6.474-20.729,7.221C316.143,320.937,313.543,321,311.245,321Z" fill="#fff"/></g><g transform="translate(554.777 94.792)"><path d="M304.817,324.567a1.331,1.331,0,0,1-1.33-1.33v-3.724a1.331,1.331,0,0,1,2.661,0v3.724A1.331,1.331,0,0,1,304.817,324.567Z" fill="#fff"/></g><g transform="translate(554.777 94.792)"><path d="M307.884,324.567a1.331,1.331,0,0,1-1.331-1.33v-3.569a1.331,1.331,0,0,1,2.662,0v3.569A1.331,1.331,0,0,1,307.884,324.567Z" fill="#fff"/></g><g transform="translate(554.777 94.792)"><path d="M313.7,326.967a1.331,1.331,0,0,1-1.33-1.331v-5.968a1.331,1.331,0,1,1,2.661,0v5.968A1.331,1.331,0,0,1,313.7,326.967Z" fill="#fff"/></g><g transform="translate(554.777 94.792)"><path d="M317.054,324.567a1.331,1.331,0,0,1-1.33-1.33v-3.724a1.331,1.331,0,0,1,2.661,0v3.724A1.331,1.331,0,0,1,317.054,324.567Z" fill="#fff"/></g><g transform="translate(554.777 94.792)"><path d="M320.732,324.567a1.331,1.331,0,0,1-1.331-1.33v-3.569a1.331,1.331,0,1,1,2.661,0v3.569A1.331,1.331,0,0,1,320.732,324.567Z" fill="#fff"/></g><g transform="translate(554.777 94.792)"><path d="M326.427,326.967a1.331,1.331,0,0,1-1.33-1.331v-6.123a1.331,1.331,0,0,1,2.661,0v6.123A1.331,1.331,0,0,1,326.427,326.967Z" fill="#fff"/></g><g transform="translate(554.777 94.792)"><path d="M330.162,324.567a1.331,1.331,0,0,1-1.33-1.33v-5.529a1.331,1.331,0,1,1,2.661,0v5.529A1.331,1.331,0,0,1,330.162,324.567Z" fill="#fff"/></g><g transform="translate(554.777 94.792)"><path d="M334.193,323.9a1.331,1.331,0,0,1-1.33-1.33v-6.317a1.33,1.33,0,1,1,2.661,0v6.317A1.331,1.331,0,0,1,334.193,323.9Z" fill="#fff"/></g><g transform="translate(554.777 94.792)"><path d="M337.049,320.747a1.331,1.331,0,0,1-1.33-1.331v-4.988a1.331,1.331,0,0,1,2.661,0v4.988A1.331,1.331,0,0,1,337.049,320.747Z" fill="#fff"/></g><g transform="translate(554.777 94.792)"><path d="M284.409,262.85a46.8,46.8,0,0,1-12.553-1.806.443.443,0,0,1-.292-.556.45.45,0,0,1,.554-.293c.176.056,17.549,5.291,27.175-2.777,9.954-8.34,26.317-7.074,26.482-7.06a.442.442,0,0,1,.4.478.428.428,0,0,1-.479.406c-.161-.019-16.167-1.246-25.837,6.855C295.448,261.8,289.612,262.85,284.409,262.85Z" fill="#fff"/></g><g transform="translate(554.777 94.792)"><path d="M349.636,407.893h-.027a1.331,1.331,0,0,1-1.3-1.357c.374-19.408-15.233-73.689-15.39-74.235a1.331,1.331,0,1,1,2.557-.738c.648,2.245,15.875,55.217,15.494,75.025A1.331,1.331,0,0,1,349.636,407.893Z" fill="#fff"/></g><g transform="translate(554.777 94.792)"><path d="M214.612,322.7a1.331,1.331,0,0,1-1.293-1.646c.384-1.572,9.527-38.684,20.378-55.375,4.88-7.507,9.361-11.227,13.26-11.192a5.693,5.693,0,0,1,4.621,2.587,1.33,1.33,0,0,1-2.282,1.368,3,3,0,0,0-2.435-1.294h-.025c-1.662,0-5.269,1.31-10.908,9.983C225.322,283.449,216,321.31,215.9,321.689A1.331,1.331,0,0,1,214.612,322.7Z" fill="#fff"/></g><g transform="translate(554.777 94.792)"><path d="M354.355,310.154a1.331,1.331,0,0,1-1.306-1.081c-8.407-44.046-15.349-49.6-17.277-50.258a1.233,1.233,0,0,0-.693-.063,1.332,1.332,0,0,1-1.771-1.989,3.361,3.361,0,0,1,3.319-.468c6.336,2.151,12.919,20.229,19.036,52.279a1.329,1.329,0,0,1-1.057,1.556A1.262,1.262,0,0,1,354.355,310.154Z" fill="#fff"/></g><g transform="translate(554.777 94.792)"><path d="M295.539,482.964c-22.744,0-37.867-7.015-38.092-7.122a1.331,1.331,0,0,1,1.143-2.4c.33.158,33.337,15.414,75.141-.045a1.33,1.33,0,1,1,.924,2.495A112.364,112.364,0,0,1,295.539,482.964Z" fill="#fff"/></g><g transform="translate(554.777 94.792)"><path d="M251.284,542.6a1.331,1.331,0,0,1-1.288-1c-2.137-8.333,4.9-54.385,5.2-56.343a1.33,1.33,0,0,1,2.63.4c-2.517,16.387-6.855,49.027-5.253,55.276a1.331,1.331,0,0,1-.958,1.62A1.357,1.357,0,0,1,251.284,542.6Z" fill="#fff"/></g><g transform="translate(554.777 94.792)"><path d="M318.5,538.057h-.034a1.332,1.332,0,0,1-1.3-1.364l1.04-41.911c-3.439-1.223-10.627.49-13.281,1.317a1.33,1.33,0,0,1-.791-2.54c1.162-.364,11.476-3.457,16.094-.764l.679.395-1.08,43.569A1.33,1.33,0,0,1,318.5,538.057Z" fill="#fff"/></g><g transform="translate(554.777 94.792)"><path d="M265.444,348.013a1.326,1.326,0,0,1-1.1-.58c-.435-.636-4.215-6.329-3.294-10.463a4.712,4.712,0,0,1,2.248-3.11,1.656,1.656,0,0,0,.873-1.228c.368-2.154-2.1-6.05-3.735-8a1.33,1.33,0,0,1,2.036-1.713c.515.612,5.016,6.1,4.322,10.163a4.326,4.326,0,0,1-2.144,3.073,2.033,2.033,0,0,0-1,1.4c-.572,2.562,1.894,6.919,2.893,8.382a1.33,1.33,0,0,1-1.1,2.08Z" fill="#fff"/></g><g transform="translate(554.777 94.792)"><path d="M273.047,340.557a1.331,1.331,0,0,1-1.251-1.785c.6-1.668,1.913-6.507.727-8.841a2.024,2.024,0,0,0-1.316-1.1,4.331,4.331,0,0,1-2.839-2.45c-1.679-3.768,1.324-10.194,1.672-10.915a1.331,1.331,0,0,1,2.4,1.158c-1.106,2.295-2.528,6.68-1.638,8.676a1.657,1.657,0,0,0,1.15.974,4.715,4.715,0,0,1,2.949,2.457c1.916,3.776-.338,10.228-.6,10.953A1.333,1.333,0,0,1,273.047,340.557Z" fill="#fff"/></g><g transform="translate(554.777 94.792)"><path d="M283.158,348.571a1.328,1.328,0,0,1-1.1-.58c-.435-.636-4.216-6.329-3.294-10.463a4.708,4.708,0,0,1,2.249-3.11,1.659,1.659,0,0,0,.872-1.228c.368-2.154-2.1-6.05-3.735-8a1.33,1.33,0,0,1,2.036-1.713c.516.611,5.016,6.1,4.322,10.163a4.323,4.323,0,0,1-2.144,3.073,2.033,2.033,0,0,0-1,1.4c-.572,2.553,1.895,6.918,2.894,8.383a1.331,1.331,0,0,1-.35,1.849A1.314,1.314,0,0,1,283.158,348.571Z" fill="#fff"/></g><g transform="translate(554.777 94.792)"><path d="M290.136,392.328a1.331,1.331,0,0,1-1.33-1.331V358.77a1.331,1.331,0,0,1,2.661,0V391A1.331,1.331,0,0,1,290.136,392.328Z" fill="#fff"/></g><g transform="translate(554.777 94.792)"><path d="M409.782,267.74a1.33,1.33,0,0,1-.809-2.387c.04-.033,5.043-4.132,11.649-20.648,6.5-16.256-11.626-35.78-11.809-35.974a1.331,1.331,0,1,1,1.937-1.826c.8.847,19.478,20.951,12.343,38.787-6.957,17.393-12.28,21.6-12.5,21.775A1.315,1.315,0,0,1,409.782,267.74Z" fill="#fff"/></g><g transform="translate(554.777 94.792)"><path d="M428.694,253.924a1.332,1.332,0,0,1-1.138-2.019c.046-.078,4.628-7.829,5.736-22.361,1.088-14.262-17.4-30.81-17.586-30.974a1.33,1.33,0,0,1,1.763-1.993c.8.712,19.664,17.6,18.477,33.168-1.162,15.227-5.912,23.207-6.114,23.539A1.332,1.332,0,0,1,428.694,253.924Z" fill="#fff"/></g><g transform="translate(554.777 94.792)"><path d="M372.122,278.172a1.326,1.326,0,0,1-.968-.418c-.587-.623-14.319-15.4-9.047-28.583,5.094-12.737,9.042-15.857,9.207-15.984a1.331,1.331,0,0,1,1.617,2.114c-.023.019-3.608,2.992-8.354,14.858-4.639,11.6,8.382,25.629,8.514,25.769a1.331,1.331,0,0,1-.969,2.244Z" fill="#fff"/></g><g transform="translate(554.777 94.792)"><path d="M367.173,285.62a1.33,1.33,0,0,1-.881-.334c-.589-.522-14.431-12.92-13.555-24.413.852-11.158,4.35-17.029,4.5-17.275a1.331,1.331,0,0,1,2.276,1.379c-.033.055-3.322,5.634-4.12,16.1-.777,10.19,12.531,22.1,12.665,22.219a1.331,1.331,0,0,1-.883,2.327Z" fill="#fff"/></g><path d="M539.181,457.618a2.589,2.589,0,0,1-2.589,2.589H495.316a1.049,1.049,0,0,0-.813,0H453.228a2.589,2.589,0,0,1-2.589-2.589V415.142a2.589,2.589,0,0,1,2.589-2.589h39.5v-47.8a2.589,2.589,0,0,1,2.589-2.589h41.276a2.59,2.59,0,0,1,2.589,2.589v49.66a2.388,2.388,0,0,1-.074.367,2.363,2.363,0,0,1,.074.365Z" transform="translate(554.777 94.792)" fill="#ffc055"/><path d="M73.594,425.617a2.222,2.222,0,0,0,2.222,2.221h35.409a2.147,2.147,0,0,0,.348-.07,2.138,2.138,0,0,0,.349.07h35.409a2.221,2.221,0,0,0,2.221-2.221V389.178a2.221,2.221,0,0,0-2.221-2.221H113.446V345.949a2.221,2.221,0,0,0-2.221-2.221H75.816a2.221,2.221,0,0,0-2.222,2.221v42.6a2.057,2.057,0,0,0,.064.314,2.1,2.1,0,0,0-.064.314Z" transform="translate(554.777 94.792)" fill="#ffc055"/><path d="M78.879,352.248v69.238h65.927" transform="translate(554.777 94.792)" fill="none" stroke="#fff" stroke-linecap="round" stroke-miterlimit="10" stroke-width="2"/><path d="M532.236,372.094V452.8h-76.85" transform="translate(554.777 94.792)" fill="none" stroke="#fff" stroke-linecap="round" stroke-miterlimit="10" stroke-width="2"/><line x2="30.363" transform="translate(669.219 485.546)" fill="none" stroke="#fff" stroke-linecap="round" stroke-miterlimit="10" stroke-width="2"/><line x2="33.22" transform="translate(1010.164 511.132)" fill="none" stroke="#fff" stroke-linecap="round" stroke-miterlimit="10" stroke-width="2"/><g transform="translate(554.777 94.792)"><path d="M99.439,238.451h31.835a1.66,1.66,0,0,0,1.66-1.66V210.809h31.294a1.66,1.66,0,0,0,1.66-1.66V183.214h30.891a1.66,1.66,0,0,0,1.66-1.66v-26.46a1.66,1.66,0,0,0-1.66-1.66H164.943a1.66,1.66,0,0,0-1.66,1.66v25.935h-30.89a1.66,1.66,0,0,0-1.66,1.66V208.67H99.439a1.66,1.66,0,0,0-1.66,1.66v26.461A1.66,1.66,0,0,0,99.439,238.451Z" fill="#00b4a6"/></g><line y1="12.728" transform="translate(668.005 290.734)" fill="none" stroke="#fff" stroke-miterlimit="10" stroke-width="2"/><line y1="11.701" transform="translate(702.886 264.119)" fill="none" stroke="#fff" stroke-miterlimit="10" stroke-width="2"/><line y1="9.992" transform="translate(736.545 238.233)" fill="none" stroke="#fff" stroke-miterlimit="10" stroke-width="2"/><circle cx="1.856" cy="1.856" r="1.856" transform="translate(666.149 288.878)" fill="#fff"/><circle cx="2.165" cy="2.165" r="2.165" transform="translate(700.721 261.954)" fill="#fff"/><circle cx="1.899" cy="1.899" r="1.899" transform="translate(734.646 236.334)" fill="#fff"/><path d="M101.961,213.047v20.039a2.847,2.847,0,0,0,2.415,1.69H128.76" transform="translate(554.777 94.792)" fill="none" stroke="#fff" stroke-miterlimit="10" stroke-width="1"/><path d="M134.555,184.075v19.556s.965,3.139,3.863,3.863,22.211,0,22.211,0" transform="translate(554.777 94.792)" fill="none" stroke="#fff" stroke-miterlimit="10" stroke-width="1"/><path d="M166.665,156.31v18.869s-.483,4.55,2.173,4.55H194.43" transform="translate(554.777 94.792)" fill="none" stroke="#fff" stroke-miterlimit="10" stroke-width="1"/><rect width="24.161" height="19.59" rx="1.623" transform="translate(659.376 307.838)" fill="#ffc055"/><rect width="24.161" height="19.59" rx="1.623" transform="translate(692.261 279.917)" fill="#ff595a"/><rect width="24.161" height="19.59" rx="1.623" transform="translate(724.464 252.159)" fill="#ffc055"/><g transform="translate(554.777 94.792)"><path d="M519.844,198.451H488.009a1.66,1.66,0,0,1-1.66-1.66V170.809H455.055a1.66,1.66,0,0,1-1.66-1.66V143.214H422.5a1.66,1.66,0,0,1-1.66-1.66v-26.46a1.66,1.66,0,0,1,1.66-1.66h31.835a1.66,1.66,0,0,1,1.66,1.66v25.935H486.89a1.66,1.66,0,0,1,1.66,1.66V168.67h31.294a1.66,1.66,0,0,1,1.66,1.66v26.461A1.66,1.66,0,0,1,519.844,198.451Z" fill="#00b4a6"/></g><line y1="12.728" transform="translate(1060.832 250.734)" fill="none" stroke="#fff" stroke-miterlimit="10" stroke-width="2"/><line y1="11.701" transform="translate(1025.951 224.119)" fill="none" stroke="#fff" stroke-miterlimit="10" stroke-width="2"/><line y1="9.992" transform="translate(992.293 198.233)" fill="none" stroke="#fff" stroke-miterlimit="10" stroke-width="2"/><circle cx="1.856" cy="1.856" r="1.856" transform="translate(1058.976 248.878)" fill="#fff"/><circle cx="2.165" cy="2.165" r="2.165" transform="translate(1023.786 221.954)" fill="#fff"/><circle cx="1.899" cy="1.899" r="1.899" transform="translate(990.393 196.334)" fill="#fff"/><path d="M517.321,173.047v20.039a2.845,2.845,0,0,1-2.414,1.69H490.522" transform="translate(554.777 94.792)" fill="none" stroke="#fff" stroke-miterlimit="10" stroke-width="1"/><path d="M484.728,144.075v19.556s-.966,3.139-3.863,3.863-22.212,0-22.212,0" transform="translate(554.777 94.792)" fill="none" stroke="#fff" stroke-miterlimit="10" stroke-width="1"/><path d="M452.618,116.31v18.869s.483,4.55-2.173,4.55H424.853" transform="translate(554.777 94.792)" fill="none" stroke="#fff" stroke-miterlimit="10" stroke-width="1"/><rect width="24.161" height="19.59" rx="1.623" transform="translate(1069.461 287.429) rotate(-180)" fill="#ffc055"/><rect width="24.161" height="19.59" rx="1.623" transform="translate(1036.576 259.508) rotate(-180)" fill="#ff595a"/><rect width="24.161" height="19.59" rx="1.623" transform="translate(1004.373 231.749) rotate(-180)" fill="#ffc055"/></g></svg>