<svg xmlns="http://www.w3.org/2000/svg" width="5246.509" height="1202.311" viewBox="0 0 5246.509 1202.311">
  <path id="Path_2159" data-name="Path 2159" d="M0,600.019C0,454.544-.807,201.236,0-2.271c7.023.1,5228.871.334,5246.15,0-1.028,144.723-.721,419.7-.72,602.29,0,331.382-583.251,600.021-1302.728,600.021-198.079,0-385.833-20.362-553.937-56.787q-46.365-10.049-90.675-21.7-16.186-4.546-32.671-8.879c-190.071-49.94-410.086-78.474-644.572-78.474-221.7,0-430.462,25.506-613.213,70.5q-47.023,11.576-91.69,24.845-19.149,4.713-38.672,9.14c-173.308,39.289-368.328,61.356-574.537,61.356C583.254,1200.04,0,931.4,0,600.019Z" transform="translate(0.359 2.271)" fill="#00b4a6"/>
</svg>
