<svg xmlns="http://www.w3.org/2000/svg" width="555.819" height="481.542" viewBox="0 0 555.819 481.542">
  <g id="Group_2163" data-name="Group 2163" transform="translate(-574 -159.013)">
    <g id="Group_1626" data-name="Group 1626" transform="translate(556.605 101.797)">
      <rect id="Rectangle_898" data-name="Rectangle 898" width="513.151" height="466.886" rx="86.788" transform="translate(40.448 71.872)" fill="#003"/>
      <g id="Group_1495" data-name="Group 1495">
        <path id="Path_1977" data-name="Path 1977" d="M124.067,115.046s209.651,97.3,363.721,0V226.71s-223.03,99.989-367.944,0Z" fill="#00b4a6"/>
      </g>
      <g id="Group_1496" data-name="Group 1496">
        <path id="Path_1978" data-name="Path 1978" d="M505.241,294.225s-7.045-30.974,0-36.962,4.932-18.317,4.932-18.317-5.427-22.543,4.155-23.6c0,0-.074-4.579,2.112-4.227s0,3.17,0,3.17,1.869-5.283,3.613-5.636,4.562.353,3.857,2.466a26.115,26.115,0,0,1-3.857,7.75c-1.779,2.113-5.836,1.534-5.725,2.724s-3.9,6.245.705,22.008c0,0,2.38,11.9-4.461,18.142s-.149,30.931-.149,30.931l.744,4.066Z" fill="#ffc055"/>
      </g>
      <g id="Group_1497" data-name="Group 1497">
        <path id="Path_1979" data-name="Path 1979" d="M468.656,301.538s-1.2-31.742-9.555-35.7-9.5-16.42-9.5-16.42-.585-23.18-10.114-21.724c0,0-1.113-4.442-3.134-3.537s.82,3.063.82,3.063-3.171-4.622-4.947-4.511-4.315,1.52-3.089,3.379a26.1,26.1,0,0,0,5.73,6.489c2.264,1.582,6.034-.026,6.234,1.151s5.387,5.025,5.008,21.443c0,0,.777,12.108,9,16.373s8.14,29.841,8.14,29.841l.333,4.119Z" fill="#ffc055"/>
      </g>
      <g id="Group_1498" data-name="Group 1498">
        <path id="Path_1980" data-name="Path 1980" d="M138.836,279.144s8.731-30.541,17.788-32.4,13.138-13.683,13.138-13.683,6.092-22.373,15-18.687c0,0,2.139-4.05,3.885-2.689s-1.525,2.779-1.525,2.779,4.181-3.732,5.879-3.2,3.829,2.5,2.194,4.018a26.1,26.1,0,0,1-7.11,4.936c-2.577,1-5.854-1.463-6.33-.367s-6.428,3.6-9.973,19.632c0,0-3.64,11.573-12.642,13.756s-15.016,27.042-15.016,27.042l-1.3,3.921Z" fill="#ffc055"/>
      </g>
      <g id="Group_1499" data-name="Group 1499">
        <path id="Path_1981" data-name="Path 1981" d="M570.434,363.478c-.93-.291-2.6.7-3.927,1.65a.963.963,0,0,0-.426-1.227c-1.747-1.361-3.886,2.689-3.886,2.689-8.908-3.686-15,18.687-15,18.687s-4.081,11.824-13.138,13.683c-.025.005-.049.017-.073.022a41.474,41.474,0,0,1,5.361,5.42c6.977-3.557,9.87-12.705,9.87-12.705,3.545-16.036,9.5-18.536,9.974-19.632s3.753,1.364,6.329.367a26.119,26.119,0,0,0,7.111-4.936C574.263,365.982,572.132,364.009,570.434,363.478Z" fill="#ffc055"/>
      </g>
      <g id="Group_1500" data-name="Group 1500">
        <path id="Path_1982" data-name="Path 1982" d="M97.617,287.4s-7.5-30.865-16.479-33.084-12.581-14.2-12.581-14.2-5.194-22.6-14.242-19.272c0,0-1.975-4.132-3.775-2.842s1.413,2.838,1.413,2.838-4.028-3.9-5.746-3.434-3.926,2.349-2.353,3.927a26.115,26.115,0,0,0,6.907,5.216c2.535,1.1,5.908-1.228,6.339-.114s6.28,3.85,9.182,20.015c0,0,3.174,11.709,12.082,14.25s13.923,27.62,13.923,27.62l1.148,3.97Z" fill="#ffc055"/>
      </g>
      <g id="Group_1501" data-name="Group 1501">
        <path id="Path_1983" data-name="Path 1983" d="M112.915,386.172s8.731-30.541,17.788-32.4,13.138-13.683,13.138-13.683,6.092-22.373,15-18.688c0,0,2.14-4.049,3.886-2.688s-1.525,2.779-1.525,2.779,4.18-3.733,5.879-3.2,3.829,2.5,2.194,4.018a26.119,26.119,0,0,1-7.11,4.936c-2.577,1-5.854-1.463-6.33-.367s-6.428,3.6-9.973,19.632c0,0-3.64,11.573-12.642,13.756S118.2,387.308,118.2,387.308l-1.305,3.921Z" fill="#ffc055"/>
      </g>
      <g id="Group_1502" data-name="Group 1502">
        <path id="Path_1984" data-name="Path 1984" d="M145.549,464.119s8.73-30.541,17.788-32.4,13.138-13.683,13.138-13.683,6.092-22.373,15-18.687c0,0,2.139-4.05,3.886-2.689s-1.526,2.779-1.526,2.779,4.181-3.732,5.879-3.2,3.829,2.5,2.195,4.018a26.119,26.119,0,0,1-7.111,4.936c-2.576,1-5.854-1.463-6.329-.367s-6.429,3.6-9.974,19.632c0,0-3.639,11.573-12.641,13.756s-15.016,27.042-15.016,27.042l-1.3,3.921Z" fill="#ffc055"/>
      </g>
      <g id="Group_1503" data-name="Group 1503">
        <path id="Path_1985" data-name="Path 1985" d="M193.823,339.769s8.731-30.541,17.788-32.4,13.138-13.683,13.138-13.683,6.092-22.373,15-18.688c0,0,2.139-4.05,3.886-2.689s-1.526,2.779-1.526,2.779,4.181-3.732,5.879-3.2,3.829,2.505,2.195,4.018a26.121,26.121,0,0,1-7.111,4.937c-2.576,1-5.854-1.464-6.329-.367s-6.429,3.6-9.974,19.631c0,0-3.639,11.574-12.641,13.756S199.112,340.9,199.112,340.9l-1.3,3.922Z" fill="#ffc055"/>
      </g>
      <g id="Group_1504" data-name="Group 1504">
        <path id="Path_1986" data-name="Path 1986" d="M292.528,340.091s8.731-30.541,17.788-32.4,13.138-13.683,13.138-13.683,6.093-22.373,15-18.688c0,0,2.139-4.049,3.886-2.688s-1.526,2.779-1.526,2.779,4.181-3.733,5.879-3.2,3.829,2.5,2.194,4.018a26.1,26.1,0,0,1-7.11,4.936c-2.576,1-5.854-1.463-6.33-.367s-6.428,3.6-9.973,19.632c0,0-3.64,11.573-12.642,13.756s-15.016,27.042-15.016,27.042l-1.3,3.921Z" fill="#ffc055"/>
      </g>
      <g id="Group_1505" data-name="Group 1505">
        <path id="Path_1987" data-name="Path 1987" d="M71.7,394.429s-7.5-30.866-16.479-33.085-12.581-14.2-12.581-14.2-5.194-22.6-14.242-19.273c0,0-1.975-4.131-3.775-2.841s1.413,2.837,1.413,2.837-4.028-3.9-5.746-3.434-3.926,2.35-2.353,3.927a26.1,26.1,0,0,0,6.907,5.217c2.535,1.1,5.908-1.228,6.339-.114s6.28,3.849,9.181,20.014c0,0,3.175,11.71,12.083,14.25s13.923,27.621,13.923,27.621l1.148,3.97Z" fill="#ffc055"/>
      </g>
      <g id="Group_1506" data-name="Group 1506">
        <path id="Path_1988" data-name="Path 1988" d="M254.666,351.972s-7.5-30.866-16.479-33.085-12.581-14.2-12.581-14.2-5.194-22.6-14.242-19.273c0,0-1.976-4.131-3.776-2.841S209,285.414,209,285.414s-4.028-3.9-5.746-3.434-3.927,2.35-2.354,3.927a26.119,26.119,0,0,0,6.908,5.217c2.534,1.1,5.908-1.228,6.339-.114s6.28,3.849,9.181,20.014c0,0,3.175,11.71,12.082,14.25s13.924,27.62,13.924,27.62l1.147,3.971Z" fill="#ffc055"/>
      </g>
      <g id="Group_1507" data-name="Group 1507">
        <path id="Path_1989" data-name="Path 1989" d="M417.067,331.561s-37.553-33.576-27.987-60.318,13.214-14.262,13.214-14.262-.083,6.537-3.352,8.32,2.511.594,2.511.594,4.026,1.783-1.322,4.457-6.826,10.1-6.826,10.1-4.168,14.33,25.842,46.386S417.067,331.561,417.067,331.561Z" fill="#ffc055"/>
      </g>
      <g id="Group_1508" data-name="Group 1508">
        <path id="Path_1990" data-name="Path 1990" d="M443.235,423.1s-37.553-33.576-27.988-60.317,13.214-14.263,13.214-14.263-.083,6.537-3.351,8.32,2.51.594,2.51.594,4.027,1.783-1.322,4.457-6.826,10.1-6.826,10.1-4.167,14.329,25.843,46.386S443.235,423.1,443.235,423.1Z" fill="#ffc055"/>
      </g>
      <g id="Group_1509" data-name="Group 1509">
        <path id="Path_1991" data-name="Path 1991" d="M458.654,326.84S476.2,303.5,473.819,283.361s4.444-20.437,4.444-20.437,8.669,4.873,2.113,12.655-1.8,39.343-19.036,58.953S458.654,326.84,458.654,326.84Z" fill="#ffc055"/>
      </g>
      <g id="Group_1510" data-name="Group 1510">
        <path id="Path_1992" data-name="Path 1992" d="M393,353.408s-2.377-32.572,2.674-36.407,19.21-22.188,16.736-25.95,6.44-13.865,9.411-13.865,2.378-8.466,2.378-8.466,2.674-2.226,2.674,0,2.73-10.55,4.93-9.659,6.482,0,2.113,7.725-12.689,16.343-14.472,19.908-5.768,25.851-20.415,35.656l-2.112,31.058Z" fill="#ffc055"/>
      </g>
      <g id="Group_1511" data-name="Group 1511">
        <path id="Path_1993" data-name="Path 1993" d="M480.817,419.039s-2.377-32.572,2.674-36.406,19.21-22.189,16.736-25.951,6.44-13.865,9.411-13.865,2.377-8.466,2.377-8.466,2.675-2.226,2.675,0,2.73-10.55,4.93-9.659,6.481,0,2.113,7.726-12.689,16.342-14.472,19.907-5.768,25.851-20.415,35.656l-2.112,31.058Z" fill="#ffc055"/>
      </g>
      <g id="Group_1512" data-name="Group 1512">
        <path id="Path_1994" data-name="Path 1994" d="M340.111,366.255s-16.937-32.614-12.183-48.362,12.516-37.141,16.658-39.221-5.961,24.989-5.961,24.989-7.617,12.7-2.323,34.117S347.8,366.971,347.8,366.971Z" fill="#ffc055"/>
      </g>
      <g id="Group_1513" data-name="Group 1513">
        <path id="Path_1995" data-name="Path 1995" d="M235.938,436.068s-19.605-31.084-16.185-47.174,9.366-38.058,13.319-40.477-3.85,25.4-3.85,25.4-6.527,13.293.539,34.191,13.9,28.129,13.9,28.129Z" fill="#ffc055"/>
      </g>
      <g id="Group_1514" data-name="Group 1514">
        <path id="Path_1996" data-name="Path 1996" d="M341.7,470s-24.644-27.262-24.034-43.7,2.7-39.1,6.182-42.162.562,25.685.562,25.685-4.151,14.216,6.394,33.593,18.513,25.329,18.513,25.329Z" fill="#ffc055"/>
      </g>
      <g id="Group_1515" data-name="Group 1515">
        <path id="Path_1997" data-name="Path 1997" d="M532.457,443.09s-32.139-17.823-36.878-33.576-10.093-37.871-7.791-41.893,8.842,24.121,8.842,24.121.67,14.795,16.916,29.718,25.712,17.979,25.712,17.979Z" fill="#ffc055"/>
      </g>
      <g id="Group_1516" data-name="Group 1516">
        <path id="Path_1998" data-name="Path 1998" d="M281.889,434.191s30.166-20.99,33.285-37.142,6.2-38.7,3.5-42.467-6.35,24.893-6.35,24.893.832,14.786-13.818,31.28-23.757,20.492-23.757,20.492Z" fill="#ffc055"/>
      </g>
      <g id="Group_1517" data-name="Group 1517">
        <path id="Path_1999" data-name="Path 1999" d="M433.916,394.675s2.709,10.466,5.3,13.305,16.683,15.05,30.772,5.187c0,0,8.094-14.588,8.274-18.566s11.637-3.015,11.637-3.015v21.581s-4.126,1.461-3.8,3.783,3.8,53.045,3.8,53.045-31.745,15.5-52.128,7.515c0,0-10.32-53.97-5.969-64.813,0,0-12.067-7.572-12.067-10.6v-4.9Z" fill="#ffc055"/>
      </g>
      <g id="Group_1518" data-name="Group 1518">
        <path id="Path_2000" data-name="Path 2000" d="M220.427,430.165l17.423-13.423s6.395,17.6,12.5,18.756,20.5,4.082,27.516-12.3S288.4,412.787,288.4,412.787l8.806,8.8s-2.488,14.638-9.508,17.136l5.265,49.536s-17.9,13.689-47.387,8.073c0,0-14.041-30.948-8.776-41.625l2.808-7.518S221.607,435.258,220.427,430.165Z" fill="#ffc055"/>
      </g>
      <g id="Group_1519" data-name="Group 1519">
        <path id="Path_2001" data-name="Path 2001" d="M177.437,444.748l-6.917-6.917,9.117-8.773S186.5,442.13,189.515,441s17-8.956,19.519-21.626l6.091,10.745-6.091,5.518-.629,38.82s-21.065,3.144-32.54,0S177.437,444.748,177.437,444.748Z" fill="#ff595a"/>
      </g>
      <g id="Group_1520" data-name="Group 1520">
        <path id="Path_2002" data-name="Path 2002" d="M128.451,432.68s5.757,12.487,10.58,13.465,14.848-1.974,21.694-16.024c0,0,12.5,5.51,9.795,9.178l-8.572,8.317,5.134,43.517s-15.338,12.225-30.163,8.069-18.248-4.646-18.248-4.646,9.046-42.3,10.758-42.3-6.357-11.491-6.357-11.491S124.294,432.664,128.451,432.68Z" fill="#ffc055"/>
      </g>
      <g id="Group_1521" data-name="Group 1521">
        <path id="Path_2003" data-name="Path 2003" d="M58.765,391.66,72.8,381.447l2.292,15.466s7.779,11.307,12.052,11.525,25.181-13.53,26.9-35.011l10.024,6.874s-2.005,14.244-7.733,13.566,9.829,50.877,2.337,63.766-41,11.367-44.44,8.548-15.466-41.062-6.3-57.743C67.93,408.438,54.182,399.867,58.765,391.66Z" fill="#00b4a6"/>
      </g>
      <g id="Group_1522" data-name="Group 1522">
        <path id="Path_2004" data-name="Path 2004" d="M239.1,336.326l11.247-8.006s10.806,24.32,21.9,23.294,14.36-10.564,14.36-12.773v-2.209s9.307-9.019,10.592-9.26,7.857,6.866,7.837,8.954-7.837,11.292-7.837,11.292l-3.315,57.847s-15.609,2.8-25.25-.5-27.42-45.173-21.5-51.408C247.138,353.556,236.97,337.844,239.1,336.326Z" fill="#00b4a6"/>
      </g>
      <g id="Group_1523" data-name="Group 1523">
        <path id="Path_2005" data-name="Path 2005" d="M118.925,362.808s-16.248-.12-17.5-2.216-8.943-51.1,0-56.347c0,0-19.467-18.064-16.479-20.686s13.185-9.907,14.934-8.45,6.945,20.1,18.623,17.482,17.8-23.871,17.8-23.871l2.331-1.477s12.82,5.535,12.82,7.575-9.906,18.064-12.237,18.355-4.953,47.492,3.205,60.02C142.417,353.193,131.561,361.642,118.925,362.808Z" fill="#ff595a"/>
      </g>
      <g id="Group_1524" data-name="Group 1524">
        <path id="Path_2006" data-name="Path 2006" d="M347.8,380.722s-13.643-12.108-11.2-14.467,14.887-11.388,14.887-11.388,5.614,19.525,11.959,20.013,15.864,2.912,21.966-8.551,3.173-20.174,3.173-20.174,12.54,3.406,12.86,7.4-5.294,20.836-9.687,22.056,14.643,61.384,3.172,77.8c0,0-41.734,12.387-48.08,0S341.183,383.88,347.8,380.722Z" fill="#ff595a"/>
      </g>
      <g id="Group_1525" data-name="Group 1525">
        <path id="Path_2007" data-name="Path 2007" d="M421.258,321.516s6.277,13.214,15.068,13.214,19.576-9.176,19.139-13.214,9.106,13.214,9.106,13.214l-11.219,7.889s5.992,23.31,5.3,26.981-22.346,7.341-31.523,0l1.836-22.229L414.279,337.3S416.12,321.516,421.258,321.516Z" fill="#00b4a6"/>
      </g>
      <g id="Group_1526" data-name="Group 1526">
        <path id="Path_2008" data-name="Path 2008" d="M458.654,303.661s13.258-4.168,13.258-6.921,7.564,4.483,6.351,6.921,7.239,9.78,15.493,3.173a21.837,21.837,0,0,0,8.254-15.783h12.318s-.205,15.049-5.344,15.416,4.038,52.843-.734,57.8-34.87,4.363-41.11.074-3.3-49.69-.367-49.747S461.546,310.4,458.654,303.661Z" fill="#ff595a"/>
      </g>
      <g id="Group_1527" data-name="Group 1527">
        <path id="Path_2009" data-name="Path 2009" d="M509.351,405.465s6.974,7.814,15.417,4.511,7.341-11.012,7.341-11.012l5.138-4.363s8.443,2.593,7.708,6.048-7.341,13-9.91,13,12.847,30.4,6.607,35.938-40.376,5.731-40.376,2.515-5.139-35.883-3.3-35.883-5.96-8.236-5.96-8.236,3.39-6.381,7.061-7.331,3.3-3.153,3.3-3.153Z" fill="#ff595a"/>
      </g>
      <g id="Group_1528" data-name="Group 1528">
        <path id="Path_2010" data-name="Path 2010" d="M126.463,433.536c-.169-.469-.262-.765-.262-.765s-5.194-22.6-14.242-19.272c0,0-1.976-4.132-3.775-2.842-.553.4-.631.817-.476,1.21-1.285-1.006-2.916-2.059-3.857-1.806-1.718.462-3.926,2.349-2.354,3.927A26.117,26.117,0,0,0,108.4,419.2c2.535,1.1,5.908-1.228,6.339-.114.419,1.082,5.937,3.731,8.914,18.678A40.749,40.749,0,0,1,126.463,433.536Z" fill="#ffc055"/>
      </g>
      <g id="Group_1529" data-name="Group 1529">
        <ellipse id="Ellipse_210" data-name="Ellipse 210" cx="22.397" cy="14.44" rx="22.397" ry="14.44" transform="matrix(0.062, -0.998, 0.998, 0.062, 354.801, 367.607)" fill="#fff"/>
      </g>
      <g id="Group_1530" data-name="Group 1530">
        <path id="Path_2011" data-name="Path 2011" d="M363.054,363.877a1.32,1.32,0,0,1-1.155-.68c-11.234-20.283,2.136-34.45,2.272-34.589a1.319,1.319,0,0,1,1.9,1.833c-.5.521-12.123,12.949-1.86,31.477a1.319,1.319,0,0,1-1.154,1.959Z" fill="#fff"/>
      </g>
      <g id="Group_1531" data-name="Group 1531">
        <path id="Path_2012" data-name="Path 2012" d="M369.192,367.7a6.925,6.925,0,0,1-4.577-2.028,1.319,1.319,0,0,1,1.907-1.824h0a3.981,3.981,0,0,0,3.189,1.161,1.319,1.319,0,1,1,.513,2.588A5.324,5.324,0,0,1,369.192,367.7Z" fill="#fff"/>
      </g>
      <g id="Group_1532" data-name="Group 1532">
        <ellipse id="Ellipse_211" data-name="Ellipse 211" cx="22.397" cy="14.44" rx="22.397" ry="14.44" transform="matrix(0.062, -0.998, 0.998, 0.062, 243.244, 424.425)" fill="#ff595a"/>
      </g>
      <g id="Group_1533" data-name="Group 1533">
        <path id="Path_2013" data-name="Path 2013" d="M251.5,420.7a1.32,1.32,0,0,1-1.155-.68c-11.235-20.283,2.135-34.45,2.272-34.589a1.319,1.319,0,0,1,1.9,1.834c-.5.52-12.124,12.948-1.86,31.476A1.32,1.32,0,0,1,251.5,420.7Z" fill="#fff"/>
      </g>
      <g id="Group_1534" data-name="Group 1534">
        <path id="Path_2014" data-name="Path 2014" d="M257.634,424.52a6.915,6.915,0,0,1-4.576-2.028,1.319,1.319,0,0,1,1.907-1.823,4,4,0,0,0,3.188,1.16,1.319,1.319,0,1,1,.514,2.588A5.334,5.334,0,0,1,257.634,424.52Z" fill="#fff"/>
      </g>
      <g id="Group_1535" data-name="Group 1535">
        <ellipse id="Ellipse_212" data-name="Ellipse 212" cx="22.397" cy="14.44" rx="22.397" ry="14.44" transform="matrix(0.062, -0.998, 0.998, 0.062, 74.175, 396.709)" fill="#ffc055"/>
      </g>
      <g id="Group_1536" data-name="Group 1536">
        <path id="Path_2015" data-name="Path 2015" d="M82.428,392.979a1.321,1.321,0,0,1-1.156-.68c-11.234-20.283,2.136-34.449,2.272-34.588a1.319,1.319,0,0,1,1.9,1.833c-.5.52-12.122,12.948-1.86,31.477a1.319,1.319,0,0,1-1.153,1.958Z" fill="#fff"/>
      </g>
      <g id="Group_1537" data-name="Group 1537">
        <path id="Path_2016" data-name="Path 2016" d="M88.565,396.8a6.924,6.924,0,0,1-4.576-2.027,1.319,1.319,0,0,1,1.906-1.825h0a3.979,3.979,0,0,0,3.189,1.161A1.319,1.319,0,1,1,89.6,396.7,5.334,5.334,0,0,1,88.565,396.8Z" fill="#fff"/>
      </g>
      <g id="Group_1538" data-name="Group 1538">
        <path id="Path_2017" data-name="Path 2017" d="M345.733,440.114a1.322,1.322,0,0,1-1.156-.681c-11.235-20.283,2.136-34.449,2.272-34.588a1.319,1.319,0,0,1,1.9,1.833c-.5.521-12.123,12.948-1.86,31.477a1.319,1.319,0,0,1-1.153,1.959Z" fill="#fff"/>
      </g>
      <g id="Group_1539" data-name="Group 1539">
        <path id="Path_2018" data-name="Path 2018" d="M351.87,443.939a6.912,6.912,0,0,1-4.576-2.028,1.32,1.32,0,0,1,1.907-1.825h0a4,4,0,0,0,3.188,1.162,1.319,1.319,0,1,1,.514,2.587A5.267,5.267,0,0,1,351.87,443.939Z" fill="#fff"/>
      </g>
      <g id="Group_1540" data-name="Group 1540">
        <ellipse id="Ellipse_213" data-name="Ellipse 213" cx="14.732" cy="9.498" rx="14.732" ry="9.498" transform="matrix(0.062, -0.998, 0.998, 0.062, 509.654, 403.97)" fill="#ff595a"/>
      </g>
      <g id="Group_1541" data-name="Group 1541">
        <path id="Path_2019" data-name="Path 2019" d="M515.083,401.969a1.319,1.319,0,0,1-1.155-.681c-7.551-13.632,1.473-23.19,1.565-23.284a1.319,1.319,0,0,1,1.9,1.833c-.329.344-7.729,8.3-1.154,20.173a1.32,1.32,0,0,1-1.154,1.959Z" fill="#fff"/>
      </g>
      <g id="Group_1542" data-name="Group 1542">
        <path id="Path_2020" data-name="Path 2020" d="M519.129,404.482a4.911,4.911,0,0,1-3.348-1.472,1.319,1.319,0,0,1,1.9-1.826,2.172,2.172,0,0,0,1.686.635,1.319,1.319,0,0,1,.515,2.588A3.9,3.9,0,0,1,519.129,404.482Z" fill="#fff"/>
      </g>
      <g id="Group_1543" data-name="Group 1543">
        <ellipse id="Ellipse_214" data-name="Ellipse 214" cx="14.732" cy="9.498" rx="14.732" ry="9.498" transform="matrix(0.062, -0.998, 0.998, 0.062, 475.701, 297.546)" fill="#ff595a"/>
      </g>
      <g id="Group_1544" data-name="Group 1544">
        <path id="Path_2021" data-name="Path 2021" d="M481.13,295.544a1.319,1.319,0,0,1-1.155-.681c-7.551-13.63,1.473-23.188,1.565-23.283a1.32,1.32,0,0,1,1.9,1.834c-.328.343-7.728,8.3-1.154,20.171a1.319,1.319,0,0,1-1.154,1.959Z" fill="#fff"/>
      </g>
      <g id="Group_1545" data-name="Group 1545">
        <path id="Path_2022" data-name="Path 2022" d="M485.18,298.057a4.908,4.908,0,0,1-3.35-1.472,1.319,1.319,0,0,1,1.9-1.826,2.222,2.222,0,0,0,1.687.637,1.319,1.319,0,1,1,.512,2.588A3.84,3.84,0,0,1,485.18,298.057Z" fill="#fff"/>
      </g>
      <g id="Group_1546" data-name="Group 1546">
        <ellipse id="Ellipse_215" data-name="Ellipse 215" cx="14.732" cy="9.498" rx="14.732" ry="9.498" transform="matrix(0.062, -0.998, 0.998, 0.062, 448.678, 405.77)" fill="#fff"/>
      </g>
      <g id="Group_1547" data-name="Group 1547">
        <path id="Path_2023" data-name="Path 2023" d="M454.107,403.768a1.319,1.319,0,0,1-1.155-.681c-7.551-13.63,1.473-23.188,1.565-23.283a1.319,1.319,0,0,1,1.9,1.834c-.328.343-7.728,8.3-1.153,20.171a1.32,1.32,0,0,1-1.154,1.959Z" fill="#fff"/>
      </g>
      <g id="Group_1548" data-name="Group 1548">
        <path id="Path_2024" data-name="Path 2024" d="M458.156,406.281a4.917,4.917,0,0,1-3.349-1.469,1.319,1.319,0,0,1,1.9-1.828,2.206,2.206,0,0,0,1.688.636,1.319,1.319,0,1,1,.512,2.588A3.85,3.85,0,0,1,458.156,406.281Z" fill="#fff"/>
      </g>
      <g id="Group_1549" data-name="Group 1549">
        <ellipse id="Ellipse_216" data-name="Ellipse 216" cx="14.732" cy="9.498" rx="14.732" ry="9.498" transform="matrix(0.062, -0.998, 0.998, 0.062, 261.851, 339.647)" fill="#fff"/>
      </g>
      <g id="Group_1550" data-name="Group 1550">
        <path id="Path_2025" data-name="Path 2025" d="M267.28,337.646a1.319,1.319,0,0,1-1.155-.681c-7.551-13.632,1.474-23.19,1.566-23.286a1.32,1.32,0,0,1,1.9,1.835c-.33.345-7.728,8.3-1.154,20.173a1.319,1.319,0,0,1-1.154,1.959Z" fill="#fff"/>
      </g>
      <g id="Group_1551" data-name="Group 1551">
        <path id="Path_2026" data-name="Path 2026" d="M271.33,340.159a4.913,4.913,0,0,1-3.351-1.472,1.319,1.319,0,0,1,1.9-1.826,2.22,2.22,0,0,0,1.687.637,1.319,1.319,0,1,1,.512,2.588A3.84,3.84,0,0,1,271.33,340.159Z" fill="#fff"/>
      </g>
      <g id="Group_1552" data-name="Group 1552">
        <ellipse id="Ellipse_217" data-name="Ellipse 217" cx="14.732" cy="9.498" rx="14.732" ry="9.498" transform="matrix(0.062, -0.998, 0.998, 0.062, 134.357, 433.486)" fill="#fff"/>
      </g>
      <g id="Group_1553" data-name="Group 1553">
        <path id="Path_2027" data-name="Path 2027" d="M139.786,431.485a1.318,1.318,0,0,1-1.155-.68c-7.551-13.632,1.473-23.19,1.565-23.285a1.319,1.319,0,0,1,1.9,1.833c-.329.344-7.729,8.3-1.154,20.174a1.32,1.32,0,0,1-1.154,1.958Z" fill="#fff"/>
      </g>
      <g id="Group_1554" data-name="Group 1554">
        <path id="Path_2028" data-name="Path 2028" d="M143.832,434a4.906,4.906,0,0,1-3.347-1.473,1.319,1.319,0,0,1,1.9-1.826,2.164,2.164,0,0,0,1.685.636,1.319,1.319,0,1,1,.515,2.587A3.828,3.828,0,0,1,143.832,434Z" fill="#fff"/>
      </g>
      <g id="Group_1555" data-name="Group 1555">
        <ellipse id="Ellipse_218" data-name="Ellipse 218" cx="14.732" cy="9.498" rx="14.732" ry="9.498" transform="matrix(0.062, -0.998, 0.998, 0.062, 158.779, 345.632)" fill="#ffc055"/>
      </g>
      <g id="Group_1556" data-name="Group 1556">
        <path id="Path_2029" data-name="Path 2029" d="M164.208,343.63a1.32,1.32,0,0,1-1.155-.68c-7.551-13.631,1.473-23.189,1.565-23.283a1.319,1.319,0,0,1,1.9,1.833h0c-.319.333-7.733,8.3-1.154,20.171a1.32,1.32,0,0,1-1.154,1.959Z" fill="#fff"/>
      </g>
      <g id="Group_1557" data-name="Group 1557">
        <path id="Path_2030" data-name="Path 2030" d="M168.257,346.144a4.912,4.912,0,0,1-3.35-1.473,1.32,1.32,0,0,1,1.906-1.826,2.2,2.2,0,0,0,1.685.637,1.319,1.319,0,1,1,.512,2.588A3.842,3.842,0,0,1,168.257,346.144Z" fill="#fff"/>
      </g>
      <g id="Group_1558" data-name="Group 1558">
        <ellipse id="Ellipse_219" data-name="Ellipse 219" cx="14.732" cy="9.498" rx="14.732" ry="9.498" transform="matrix(0.062, -0.998, 0.998, 0.062, 108.526, 279.88)" fill="#fff"/>
      </g>
      <g id="Group_1559" data-name="Group 1559">
        <path id="Path_2031" data-name="Path 2031" d="M113.955,277.878a1.319,1.319,0,0,1-1.155-.681c-7.551-13.63,1.473-23.188,1.565-23.283a1.32,1.32,0,0,1,1.9,1.834c-.329.343-7.729,8.3-1.154,20.171a1.32,1.32,0,0,1-1.154,1.959Z" fill="#fff"/>
      </g>
      <g id="Group_1560" data-name="Group 1560">
        <path id="Path_2032" data-name="Path 2032" d="M118,280.391a4.919,4.919,0,0,1-3.349-1.469,1.319,1.319,0,0,1,1.9-1.828,2.22,2.22,0,0,0,1.688.636,1.319,1.319,0,1,1,.512,2.587A3.777,3.777,0,0,1,118,280.391Z" fill="#fff"/>
      </g>
      <g id="Group_1561" data-name="Group 1561">
        <ellipse id="Ellipse_220" data-name="Ellipse 220" cx="14.732" cy="9.498" rx="14.732" ry="9.498" transform="matrix(0.062, -0.998, 0.998, 0.062, 171.46, 303.363)" fill="#ff595a"/>
      </g>
      <g id="Group_1562" data-name="Group 1562">
        <path id="Path_2033" data-name="Path 2033" d="M176.888,301.361a1.318,1.318,0,0,1-1.155-.68c-7.551-13.632,1.474-23.19,1.566-23.286a1.32,1.32,0,0,1,1.9,1.835c-.33.345-7.728,8.3-1.154,20.173a1.318,1.318,0,0,1-1.154,1.958Z" fill="#fff"/>
      </g>
      <g id="Group_1563" data-name="Group 1563">
        <path id="Path_2034" data-name="Path 2034" d="M180.938,303.875a4.908,4.908,0,0,1-3.35-1.472,1.319,1.319,0,0,1,1.9-1.827,2.217,2.217,0,0,0,1.687.638,1.319,1.319,0,1,1,.512,2.587A3.767,3.767,0,0,1,180.938,303.875Z" fill="#fff"/>
      </g>
      <g id="Group_1564" data-name="Group 1564">
        <ellipse id="Ellipse_221" data-name="Ellipse 221" cx="14.732" cy="9.498" rx="14.732" ry="9.498" transform="matrix(0.062, -0.998, 0.998, 0.062, 180.985, 430.927)" fill="#ffc055"/>
      </g>
      <g id="Group_1565" data-name="Group 1565">
        <path id="Path_2035" data-name="Path 2035" d="M186.414,428.925a1.323,1.323,0,0,1-1.156-.68c-7.55-13.63,1.474-23.189,1.566-23.283a1.319,1.319,0,0,1,1.9,1.833c-.328.344-7.728,8.3-1.154,20.171a1.319,1.319,0,0,1-1.153,1.959Z" fill="#fff"/>
      </g>
      <g id="Group_1566" data-name="Group 1566">
        <path id="Path_2036" data-name="Path 2036" d="M190.463,431.439a4.908,4.908,0,0,1-3.35-1.473,1.319,1.319,0,0,1,1.9-1.826,2.21,2.21,0,0,0,1.686.637,1.319,1.319,0,1,1,.512,2.588A3.85,3.85,0,0,1,190.463,431.439Z" fill="#fff"/>
      </g>
      <g id="Group_1567" data-name="Group 1567">
        <ellipse id="Ellipse_222" data-name="Ellipse 222" cx="14.732" cy="9.498" rx="14.732" ry="9.498" transform="matrix(0.062, -0.998, 0.998, 0.062, 294.641, 456.729)" fill="#ff595a"/>
      </g>
      <g id="Group_1568" data-name="Group 1568">
        <path id="Path_2037" data-name="Path 2037" d="M300.071,454.727a1.322,1.322,0,0,1-1.156-.681c-7.55-13.63,1.473-23.188,1.565-23.282a1.319,1.319,0,0,1,1.9,1.833h0c-.319.333-7.733,8.3-1.154,20.171a1.319,1.319,0,0,1-1.153,1.959Z" fill="#fff"/>
      </g>
      <g id="Group_1569" data-name="Group 1569">
        <path id="Path_2038" data-name="Path 2038" d="M304.119,457.241a4.908,4.908,0,0,1-3.35-1.473,1.319,1.319,0,0,1,1.9-1.826,2.234,2.234,0,0,0,1.687.637,1.319,1.319,0,1,1,.512,2.588A3.852,3.852,0,0,1,304.119,457.241Z" fill="#fff"/>
      </g>
      <g id="Group_1570" data-name="Group 1570">
        <ellipse id="Ellipse_223" data-name="Ellipse 223" cx="14.732" cy="9.498" rx="14.732" ry="9.498" transform="matrix(0.062, -0.998, 0.998, 0.062, 210.451, 467.518)" fill="#00b4a6"/>
      </g>
      <g id="Group_1571" data-name="Group 1571">
        <path id="Path_2039" data-name="Path 2039" d="M215.879,465.517a1.322,1.322,0,0,1-1.155-.68c-7.55-13.632,1.474-23.191,1.566-23.287a1.32,1.32,0,0,1,1.9,1.835c-.33.346-7.727,8.3-1.154,20.173a1.319,1.319,0,0,1-1.154,1.959Z" fill="#fff"/>
      </g>
      <g id="Group_1572" data-name="Group 1572">
        <path id="Path_2040" data-name="Path 2040" d="M219.929,468.031a4.908,4.908,0,0,1-3.35-1.473,1.319,1.319,0,0,1,1.9-1.826,2.241,2.241,0,0,0,1.688.637,1.319,1.319,0,0,1,.512,2.588A3.852,3.852,0,0,1,219.929,468.031Z" fill="#fff"/>
      </g>
      <g id="Group_1573" data-name="Group 1573">
        <ellipse id="Ellipse_224" data-name="Ellipse 224" cx="14.732" cy="9.498" rx="14.732" ry="9.498" transform="matrix(0.062, -0.998, 0.998, 0.062, 313.917, 367.667)" fill="#ff595a"/>
      </g>
      <g id="Group_1574" data-name="Group 1574">
        <path id="Path_2041" data-name="Path 2041" d="M319.346,365.666a1.322,1.322,0,0,1-1.156-.681c-7.55-13.632,1.474-23.19,1.566-23.284a1.319,1.319,0,0,1,1.9,1.833c-.328.344-7.728,8.3-1.153,20.173a1.32,1.32,0,0,1-1.154,1.959Z" fill="#fff"/>
      </g>
      <g id="Group_1575" data-name="Group 1575">
        <path id="Path_2042" data-name="Path 2042" d="M323.4,368.179a4.908,4.908,0,0,1-3.351-1.472,1.32,1.32,0,0,1,1.9-1.827,2.233,2.233,0,0,0,1.687.638,1.319,1.319,0,1,1,.512,2.587A3.774,3.774,0,0,1,323.4,368.179Z" fill="#fff"/>
      </g>
      <g id="Group_1576" data-name="Group 1576">
        <ellipse id="Ellipse_225" data-name="Ellipse 225" cx="14.732" cy="9.498" rx="14.732" ry="9.498" transform="matrix(0.062, -0.998, 0.998, 0.062, 286.804, 314.152)" fill="#ff595a"/>
      </g>
      <g id="Group_1577" data-name="Group 1577">
        <path id="Path_2043" data-name="Path 2043" d="M292.233,312.15a1.319,1.319,0,0,1-1.155-.681c-7.551-13.63,1.473-23.188,1.565-23.282a1.319,1.319,0,0,1,1.9,1.833h0c-.319.333-7.733,8.3-1.154,20.171a1.32,1.32,0,0,1-1.154,1.959Z" fill="#fff"/>
      </g>
      <g id="Group_1578" data-name="Group 1578">
        <path id="Path_2044" data-name="Path 2044" d="M296.281,314.664a4.918,4.918,0,0,1-3.349-1.471,1.32,1.32,0,0,1,1.9-1.827,2.188,2.188,0,0,0,1.686.636,1.319,1.319,0,1,1,.512,2.588A3.853,3.853,0,0,1,296.281,314.664Z" fill="#fff"/>
      </g>
      <g id="Group_1579" data-name="Group 1579">
        <ellipse id="Ellipse_226" data-name="Ellipse 226" cx="14.732" cy="9.498" rx="14.732" ry="9.498" transform="matrix(0.062, -0.998, 0.998, 0.062, 403.88, 452.905)" fill="#00b4a6"/>
      </g>
      <g id="Group_1580" data-name="Group 1580">
        <path id="Path_2045" data-name="Path 2045" d="M409.309,450.9a1.32,1.32,0,0,1-1.155-.68c-7.551-13.632,1.473-23.191,1.565-23.285a1.319,1.319,0,0,1,1.9,1.833c-.329.344-7.729,8.3-1.154,20.173a1.32,1.32,0,0,1-1.154,1.959Z" fill="#fff"/>
      </g>
      <g id="Group_1581" data-name="Group 1581">
        <path id="Path_2046" data-name="Path 2046" d="M413.355,453.418a4.906,4.906,0,0,1-3.347-1.473,1.319,1.319,0,0,1,1.9-1.826,2.147,2.147,0,0,0,1.685.635,1.319,1.319,0,0,1,.515,2.588A3.828,3.828,0,0,1,413.355,453.418Z" fill="#fff"/>
      </g>
      <g id="Group_1582" data-name="Group 1582">
        <ellipse id="Ellipse_227" data-name="Ellipse 227" cx="14.732" cy="9.498" rx="14.732" ry="9.498" transform="matrix(0.062, -0.998, 0.998, 0.062, 429.241, 328.709)" fill="#fff"/>
      </g>
      <g id="Group_1583" data-name="Group 1583">
        <path id="Path_2047" data-name="Path 2047" d="M434.67,326.708a1.319,1.319,0,0,1-1.155-.681c-7.551-13.63,1.474-23.188,1.566-23.284a1.32,1.32,0,0,1,1.9,1.835c-.33.345-7.728,8.3-1.154,20.171a1.32,1.32,0,0,1-1.154,1.959Z" fill="#fff"/>
      </g>
      <g id="Group_1584" data-name="Group 1584">
        <path id="Path_2048" data-name="Path 2048" d="M438.72,329.222a4.913,4.913,0,0,1-3.351-1.473,1.319,1.319,0,0,1,1.9-1.826,2.223,2.223,0,0,0,1.687.637,1.319,1.319,0,1,1,.512,2.588A3.842,3.842,0,0,1,438.72,329.222Z" fill="#fff"/>
      </g>
      <g id="Group_1585" data-name="Group 1585">
        <ellipse id="Ellipse_228" data-name="Ellipse 228" cx="14.732" cy="9.498" rx="14.732" ry="9.498" transform="matrix(0.062, -0.998, 0.998, 0.062, 485.226, 367.593)" fill="#00b4a6"/>
      </g>
      <g id="Group_1586" data-name="Group 1586">
        <path id="Path_2049" data-name="Path 2049" d="M490.655,365.592a1.319,1.319,0,0,1-1.155-.681c-7.551-13.632,1.474-23.19,1.566-23.286a1.319,1.319,0,0,1,1.9,1.835c-.329.345-7.727,8.3-1.153,20.173a1.32,1.32,0,0,1-1.154,1.959Z" fill="#fff"/>
      </g>
      <g id="Group_1587" data-name="Group 1587">
        <path id="Path_2050" data-name="Path 2050" d="M494.7,368.105a4.913,4.913,0,0,1-3.348-1.472,1.319,1.319,0,0,1,1.9-1.826,2.154,2.154,0,0,0,1.685.635,1.319,1.319,0,0,1,.516,2.588A3.9,3.9,0,0,1,494.7,368.105Z" fill="#fff"/>
      </g>
      <g id="Group_1588" data-name="Group 1588">
        <path id="Path_2051" data-name="Path 2051" d="M319.306,165.755a445.11,445.11,0,0,1-72.512-6.1C184.856,149.381,141.271,129.6,140.838,129.4a1.32,1.32,0,0,1,1.1-2.4c.43.2,43.755,19.848,105.363,30.06,56.8,9.415,141.2,12.5,220.776-26.256a1.319,1.319,0,1,1,1.157,2.371C418.421,157.929,365.677,165.755,319.306,165.755Z" fill="#fff"/>
      </g>
      <g id="Group_1589" data-name="Group 1589">
        <path id="Path_2052" data-name="Path 2052" d="M282.208,266c-55.072,0-94.18-9.738-94.763-9.888a1.32,1.32,0,1,1,.653-2.557c.871.222,88.27,21.969,185.984-.008a1.319,1.319,0,1,1,.579,2.574A423.3,423.3,0,0,1,282.208,266Z" fill="#fff"/>
      </g>
      <g id="Group_1590" data-name="Group 1590">
        <path id="Path_2053" data-name="Path 2053" d="M258.749,201.192l.937.26c.229.063.377.44.441,1.129a108.383,108.383,0,0,0-7.1,12.08,104.322,104.322,0,0,0-5.97,11.63,1.746,1.746,0,0,0-.765.043q-1.291-.355-1.468-4.668l.237.065.917-8.773-.226-.062L240,220.078q-3.15,4.147-3.85,3.954a2.836,2.836,0,0,0-1.206-1.086q.1-.345,1.081-5.715l.387-1.4a.211.211,0,0,1,.3-.16l-.106-.539.642-2.325q1.79-6.482,1.682-8.818l1.35-4.886a2.414,2.414,0,0,1,2.041-1.938l.926.254q.638.42.317,1.583l-.131.474a.208.208,0,0,1-.289.163l.1.536-.063.227a1.979,1.979,0,0,1-.485.873l.1.525a11.172,11.172,0,0,1-1.1,2.2l.106.54q-.055.2-.751,1.8-1.685,7.9-1.744,9.041a1.732,1.732,0,0,0-.431.635,1.864,1.864,0,0,1-.019.99l.463.129q5.214-7.088,9.24-13.484.1-.355,1.13-.44l1.336.612q-1.446,6.123-1.21,6.188l-.365.4a1.911,1.911,0,0,1-.022,1l-.365.4a1.9,1.9,0,0,1-.021,1l-.4-.364-.065.237c.3.127.408.325.335.59a.217.217,0,0,1-.3.171q-.3,2.168.123,2.282.123-.441,9.5-14.419Z" fill="#fff"/>
        <path id="Path_2054" data-name="Path 2054" d="M267.287,203.366q2.586.453,3.75.665l1.493.218.638.173q2.331.722,2.211,1.382l-.131.715a5.416,5.416,0,0,0-1.273.254l-.045.242-.482-.089a1.784,1.784,0,0,1-1.659-.3l-.714-.131q-2.615-.48-2.963,1.421-.906,4.013-1.214,3.955l.144.516a.213.213,0,0,1-.275.2l.144.514a.212.212,0,0,1-.275.2l.014,1.229a1.988,1.988,0,0,1-.407.914,2.926,2.926,0,0,1-.029,1.458l2.426.208.473.086.429.318c.109-.306.3-.435.559-.387q3.91,1.467,3.608,3.115l-.044.241q-1.187-.216-1.273.254a24.387,24.387,0,0,0-3.715-1.168,10.772,10.772,0,0,1-2.942-.052l-.231-.043-.461,1.153-.7,3.8c-.006.323.122.51.385.558l2.384.436,1.659.305.516-.155q2.385.438,2.079,2.106.705,1.472-.629,1.94-2.163-.157-2.1-.476a.213.213,0,0,0-.275.2,11.678,11.678,0,0,1-2.295-.921,3.909,3.909,0,0,1-1.989.135l-.473-.087a21.232,21.232,0,0,0-2.138-.471q-.363-.067-.214-1.436l.46-1.141.827-4.516a1.9,1.9,0,0,0-.066-1l.328-.427a.218.218,0,0,0-.2-.287l.46-1.141,1-5.471a.207.207,0,0,1,.273-.189l-.142-.526.042-.23q.252-1.374.458-3.857l.328-.428.02-1.472.173-.944q.384.07.548-1.625Z" fill="#fff"/>
        <path id="Path_2055" data-name="Path 2055" d="M284.311,202.57q-.453-.405,2.547.346l-.654,4.939q-.974,1.317-1.146,5.486-2.985,12.722-2.183,13.127l-.048.478.453.292,1.47-.1.464.292a1.672,1.672,0,0,0,.736-.172q7.272.9,7.507,2.7a1.911,1.911,0,0,0-.342.942l-1.677-.169-.024.234a2.685,2.685,0,0,1,.357,1.247q-.064.645-1.541.823-5.22-1.221-5.193-1.5l-.233-.024a1.747,1.747,0,0,0-.747.172q-5.5-.923-5.366-2.234,2.055-14.844,2.56-18.207,1.692-8.81,2.338-8.744Z" fill="#fff"/>
        <path id="Path_2056" data-name="Path 2056" d="M307.7,206.013v.234l.482-.23,1.217.01q3.987.036,4.3,4.863l0,.491-.235,0,.229.729c0,.156,0,.316,0,.479q-.252,1.93-.743,1.926l-1.207-.01a1.121,1.121,0,0,1-1.223-.626l.479-2.419-.421-1.555a9.019,9.019,0,0,0-2.891-1.477q-2.893-.025-2.92,3.111-.392,0-.822,10.873-.136,8.118,2.632,8.142a3.58,3.58,0,0,1,1.217.011,6.468,6.468,0,0,0,3.571-.841c.646.251.967.5.965.734l-.007.727a7.352,7.352,0,0,1-3.644,1.654h-.234c-.164,0-.245-.081-.244-.237l-.482.23-1.7-.016a6.727,6.727,0,0,1-5.008-7.046l.012-1.452q.048-5.448.2-6.185l.109-1.06a19.712,19.712,0,0,0,.258-2.656,1.8,1.8,0,0,1-.228-.727h.234l-.23-.482.023-2.658q.018-2.078,2.686-3.126A8.5,8.5,0,0,1,307.7,206.013Z" fill="#fff"/>
        <path id="Path_2057" data-name="Path 2057" d="M324.973,202.776l.02.234a1.822,1.822,0,0,1,.7-.3q4.662.606,4.809,2.239.967-.085,2.611,7.527l-.245.021.287.457a1.9,1.9,0,0,1-.158.989,1.749,1.749,0,0,1,.309.7l-.244.023c.013.154.1.225.265.211a60.82,60.82,0,0,1-.5,13.4l-.615,1.267q-1.672,4.756-4.408,5-3.2.286-6.139-3.577l-1.4-4.73q.014-3.355.112-4.137l-.275-.457a.206.206,0,0,1,.212-.255,1.791,1.791,0,0,0-.3-.7q-.2-16.722,1.4-16.866Q321.373,203.267,324.973,202.776Zm-.114,3q-1.773.729-1.914,1.539a44.478,44.478,0,0,0-.734,10.739q-.244.022-.2.5l.257.864q-.02,1.794.2,4.2l.365,4.1q2.046,3.7,4.437,3.483,3.961-.354,3.068-17.261l-.15-1.68a.218.218,0,0,1,.223-.267q-1.069-6.45-3.951-6.2Z" fill="#fff"/>
        <path id="Path_2058" data-name="Path 2058" d="M338.935,204.02l.47-.1a2.269,2.269,0,0,0,1.858.591q1.149.8,3.5,4.95l2.485,2.435.24-.051a73.169,73.169,0,0,0,2.858-8.746,1.937,1.937,0,0,0,1.082-.716q1.89-.4,2.436,2.2a6.978,6.978,0,0,1,.588,1.612q.174,3.169.675,6.762a.216.216,0,0,0,.291.189l.007,1.232.537,1.371a1.744,1.744,0,0,0-.091.76l.488,1.13c.237,1.93.274,2.909.115,2.944a1.762,1.762,0,0,1,.389.659l-.143.521.34.419a10.628,10.628,0,0,0,.3,2.653,1.8,1.8,0,0,1-.081.758.211.211,0,0,0,.28.192q.635,4.934-.559,3.541l-.94.2q-.711.15-1.126-.962a1.917,1.917,0,0,0,.042-1q-.15-.708-.39-.659l-.007-1.231q-.575-2.743-2.139-16.1-.6.126-1.469,4.758-.534.112-.7,2.611l-.419.339q-1.9.4-5.492-5.024l-.481.1.048.23q.7,3.355.465,13.983l.339.419.6,2.842.477,1.132-.612.62q-1.892.395-2.436-2.206l-.521-.142a12.748,12.748,0,0,1-.253-2.411q-1.158-4.321-1.778-7.285a44.339,44.339,0,0,1-.965-7.282c-.035-.161-.12-.857-.256-2.092Q338.115,204.192,338.935,204.02Z" fill="#fff"/>
        <path id="Path_2059" data-name="Path 2059" d="M359.585,200.4q2.48-.854,3.6-1.23l1.412-.533.642-.156q2.391-.5,2.6.141l.231.689a5.437,5.437,0,0,0-.991.838l.078.232-.466.156a1.778,1.778,0,0,1-1.6.536l-.688.231q-2.52.845-1.906,2.677,1.146,3.949.849,4.049l.376.382a.212.212,0,0,1-.145.306l.375.381a.213.213,0,0,1-.144.308l.605,1.068a1.984,1.984,0,0,1,.087,1,2.959,2.959,0,0,1,.68,1.292l2.223-.993.455-.153.53.07q-.078-.479.3-.608,4.129-.606,4.663.981l.078.234c-.763.256-1.093.534-.992.838a24.083,24.083,0,0,0-3.816.773,10.76,10.76,0,0,1-2.6,1.377l-.222.075.153,1.232,1.228,3.665c.151.287.354.387.608.3l2.3-.769,1.6-.536.377-.387q2.3-.768,2.838.84,1.329.946.388,2-1.971.907-2.072.6a.211.211,0,0,0-.144.307,11.542,11.542,0,0,1-2.455.3A3.9,3.9,0,0,1,368.951,224l-.455.153a21.352,21.352,0,0,0-2.1.62q-.348.118-.88-1.153l-.151-1.221-1.458-4.353a1.9,1.9,0,0,0-.542-.843l.08-.535a.217.217,0,0,0-.311-.154l-.149-1.222-1.767-5.273a.207.207,0,0,1,.148-.3l-.379-.392-.074-.221q-.445-1.326-1.465-3.6l.081-.534-.694-1.3-.305-.91q.369-.125-.307-1.688Z" fill="#fff"/>
        <path id="Path_2060" data-name="Path 2060" d="M374.812,193.433l.549.027.342-.415q2.412-.506,4.143,3.469l.1.225q.585,1.34,3.465,10.355l.772,1.772a9.006,9.006,0,0,1,.411,1.611q1.5,5.622-.777,6.381-1.285-.548-2.373-3.376a7.242,7.242,0,0,0-1.062-2.436l-.738-2.309-.712-1.019-.575-1.32a.217.217,0,0,1,.127-.324.218.218,0,0,0-.323-.128q-.74-2.309-1.221-3.414l-2.8-6.429Q373.665,193.931,374.812,193.433Zm11.706,24.429a2.177,2.177,0,0,1,2.2,1.416,4.609,4.609,0,0,1-.453,4.412l-.225.1a2.969,2.969,0,0,1-2.889-.593l-.773-1.77a2.524,2.524,0,0,1,1.665-2.833Q385.852,218.151,386.518,217.862Z" fill="#fff"/>
      </g>
      <g id="Group_1591" data-name="Group 1591">
        <path id="Path_2061" data-name="Path 2061" d="M458.653,233.212a1.32,1.32,0,0,1-.278-2.61c9.647-2.091,18.283-7.2,20.565-8.623l.116-69.212a1.319,1.319,0,0,1,1.319-1.317h0a1.319,1.319,0,0,1,1.317,1.321l-.118,70.637-.586.392a72.227,72.227,0,0,1-22.058,9.383A1.409,1.409,0,0,1,458.653,233.212Z" fill="#fff"/>
      </g>
      <g id="Group_1592" data-name="Group 1592">
        <path id="Path_2062" data-name="Path 2062" d="M151.449,239.542a1.338,1.338,0,0,1-.45-.079,47.87,47.87,0,0,1-25.719-21.508l-.147-.3,2.325-71.336a1.37,1.37,0,0,1,1.362-1.277,1.32,1.32,0,0,1,1.276,1.362l-2.3,70.655A46.386,46.386,0,0,0,151.9,236.982a1.319,1.319,0,0,1-.45,2.56Z" fill="#fff"/>
      </g>
      <g id="Group_1593" data-name="Group 1593">
        <path id="Path_2063" data-name="Path 2063" d="M406.35,411.68c-.93-.291-2.6.7-3.927,1.65A.966.966,0,0,0,402,412.1c-1.747-1.36-3.886,2.689-3.886,2.689-8.908-3.685-15,18.688-15,18.688s-4.08,11.824-13.138,13.683c-.024.005-.048.016-.072.022a41.538,41.538,0,0,1,5.361,5.42c6.977-3.557,9.87-12.706,9.87-12.706,3.545-16.036,9.5-18.535,9.973-19.631s3.753,1.364,6.33.367a26.1,26.1,0,0,0,7.11-4.937C410.179,414.184,408.048,412.21,406.35,411.68Z" fill="#ffc055"/>
      </g>
      <g id="Group_1594" data-name="Group 1594">
        <path id="Path_2064" data-name="Path 2064" d="M333.319,435.639s5.909,18.645,14.931,19.221,22.08-11.572,22.361-16.065c0,0,8.735-2.773,8.735,6.464v4.325l-6.392,11.176,1.815,22.189s-2.017,6.052-5.043,7.061-40.143,0-40.143,0-3.631-7.262-3.228-9.078,1.614-25.009,1.614-25.009l-7.061-13.3S327.172,434.323,333.319,435.639Z" fill="#00b4a6"/>
      </g>
      <g id="Group_1595" data-name="Group 1595">
        <path id="Path_2065" data-name="Path 2065" d="M89.5,465.995a39.786,39.786,0,0,1-13.931-2.236l-.424-.172-.228-.4C62.695,441.8,67.39,412.735,67.6,411.508a1.306,1.306,0,0,1,1.519-1.082,1.32,1.32,0,0,1,1.084,1.518c-.049.289-4.676,28.983,6.774,49.516,2.635.9,17.45,5.227,35.353-3.69a1.32,1.32,0,0,1,1.177,2.364A53.581,53.581,0,0,1,89.5,465.995Z" fill="#fff"/>
      </g>
      <g id="Group_1596" data-name="Group 1596">
        <path id="Path_2066" data-name="Path 2066" d="M140.707,497.5c-6.411,0-18.081-5.137-18.587-5.362l-1.017-.451,9.369-37.15a1.319,1.319,0,1,1,2.558.646l-8.821,34.977c3.052,1.277,12.173,4.857,16.874,4.692a1.284,1.284,0,0,1,1.378,1.258,1.318,1.318,0,0,1-1.257,1.378C141.042,497.494,140.875,497.5,140.707,497.5Z" fill="#fff"/>
      </g>
      <g id="Group_1597" data-name="Group 1597">
        <path id="Path_2067" data-name="Path 2067" d="M188.439,474.055c-4.418,0-8.779-.591-11.863-2.384a1.319,1.319,0,1,1,1.324-2.281c6.934,4.025,22.259.993,26.313.093V440.207a1.32,1.32,0,1,1,2.639,0V471.56l-1,.251A81.322,81.322,0,0,1,188.439,474.055Z" fill="#fff"/>
      </g>
      <g id="Group_1598" data-name="Group 1598">
        <path id="Path_2068" data-name="Path 2068" d="M104.733,358.185a1.32,1.32,0,0,1-1.3-1.1c-.273-1.632-6.634-40.064-2.088-49.333a1.319,1.319,0,1,1,2.369,1.161c-3.464,7.067.5,36.855,2.322,47.736a1.319,1.319,0,0,1-1.084,1.519A1.164,1.164,0,0,1,104.733,358.185Z" fill="#fff"/>
      </g>
      <g id="Group_1599" data-name="Group 1599">
        <path id="Path_2069" data-name="Path 2069" d="M280.047,402.694a29.768,29.768,0,0,1-4.308-.328,1.32,1.32,0,0,1,.383-2.612c6.971,1.031,10.78-.861,11.969-1.612l3.121-46.516a1.32,1.32,0,0,1,2.634.176l-3.2,47.682-.408.359C290.084,399.981,286.914,402.694,280.047,402.694Z" fill="#fff"/>
      </g>
      <g id="Group_1600" data-name="Group 1600">
        <path id="Path_2070" data-name="Path 2070" d="M262.293,495.327A65.589,65.589,0,0,1,246.8,493.5l-.687-.182-.226-.674c-11.09-33.166-3.659-45.248-3.337-45.746a1.319,1.319,0,0,1,2.221,1.424c-.1.16-6.869,11.651,3.39,42.79,3.994.9,24.623,4.893,38.419-5.378a1.319,1.319,0,1,1,1.575,2.116C280.191,493.781,270.369,495.327,262.293,495.327Z" fill="#fff"/>
      </g>
      <g id="Group_1601" data-name="Group 1601">
        <path id="Path_2071" data-name="Path 2071" d="M368.309,487.772H333.483a1.32,1.32,0,1,1,0-2.639h33.731c1.565-1.666,2.879-3.871,2.364-4.517a1.319,1.319,0,1,1,2.065-1.642c2.352,2.953-2.044,7.532-2.949,8.42Z" fill="#fff"/>
      </g>
      <g id="Group_1602" data-name="Group 1602">
        <path id="Path_2072" data-name="Path 2072" d="M330.5,452.887a1.317,1.317,0,0,1-1.115-.614l-6.186-9.757a1.319,1.319,0,1,1,2.229-1.412l6.185,9.757a1.319,1.319,0,0,1-1.113,2.026Z" fill="#fff"/>
      </g>
      <g id="Group_1603" data-name="Group 1603">
        <path id="Path_2073" data-name="Path 2073" d="M381.788,453.923a1.319,1.319,0,0,1-.468-2.553c5.421-2.052,9.489-5.7,11.454-10.261a17.232,17.232,0,0,0-.22-13.725,1.319,1.319,0,1,1,2.435-1.017,19.808,19.808,0,0,1,.21,15.785c-2.252,5.23-6.849,9.379-12.944,11.685A1.324,1.324,0,0,1,381.788,453.923Z" fill="#fff"/>
      </g>
      <g id="Group_1604" data-name="Group 1604">
        <path id="Path_2074" data-name="Path 2074" d="M391.992,412.819a1.319,1.319,0,0,1-1.307-1.149c-1.28-9.887-2.783-20.228-4.468-30.738a1.32,1.32,0,0,1,2.606-.42c1.689,10.538,3.2,20.907,4.479,30.817a1.322,1.322,0,0,1-1.139,1.48A1.42,1.42,0,0,1,391.992,412.819Z" fill="#fff"/>
      </g>
      <g id="Group_1605" data-name="Group 1605">
        <path id="Path_2075" data-name="Path 2075" d="M461.372,423.712c-8.562,0-16.539-4.1-16.669-4.166a1.319,1.319,0,0,1,1.224-2.337c.193.1,19.489,9.989,28.544-2.189a1.319,1.319,0,0,1,2.118,1.574C472.537,422.044,466.835,423.712,461.372,423.712Z" fill="#fff"/>
      </g>
      <g id="Group_1606" data-name="Group 1606">
        <path id="Path_2076" data-name="Path 2076" d="M452.583,476.359c-2.915,0-6.058-.15-9.448-.481a1.321,1.321,0,0,1-1.185-1.442,1.3,1.3,0,0,1,1.442-1.184c27.3,2.665,37.93-7,39.772-8.955l-1.656-39.839a1.319,1.319,0,0,1,1.264-1.373,1.288,1.288,0,0,1,1.374,1.263l1.7,40.851-.3.382C485.165,466.07,476.852,476.357,452.583,476.359Z" fill="#fff"/>
      </g>
      <g id="Group_1607" data-name="Group 1607">
        <path id="Path_2077" data-name="Path 2077" d="M445.715,371.82c-6.2,0-13.18-2.38-14.352-2.8a1.32,1.32,0,1,1,.881-2.488c4.519,1.6,16.928,4.8,20.036.474,3.26-4.541-.548-18.9-2.29-24.044a1.319,1.319,0,0,1,2.5-.845c.686,2.024,6.568,19.973,1.934,26.428C452.655,371.014,449.318,371.82,445.715,371.82Z" fill="#fff"/>
      </g>
      <g id="Group_1608" data-name="Group 1608">
        <path id="Path_2078" data-name="Path 2078" d="M481.674,364.827c-6.761,0-9.7-1.8-12.107-3.282-.515-.316-1.009-.62-1.521-.888-2.593-1.352-2.83-16.907-.707-46.227a1.335,1.335,0,0,1,1.412-1.222,1.32,1.32,0,0,1,1.221,1.411c-1.42,19.606-2,41.165-.543,43.784.509.275,1.005.577,1.519.893,2.511,1.542,5.359,3.289,13.2,2.813a1.32,1.32,0,0,1,.16,2.636Q482.9,364.829,481.674,364.827Zm-12.194-6.342Z" fill="#fff"/>
      </g>
      <g id="Group_1609" data-name="Group 1609">
        <path id="Path_2079" data-name="Path 2079" d="M507.777,452.467a22.828,22.828,0,0,1-2.552-.12,1.32,1.32,0,0,1-1.159-1.464,1.336,1.336,0,0,1,1.463-1.158c7.968.93,29.257-3.208,31.614-5.127.385-2.3-3.083-16.118-6.736-28.415a1.319,1.319,0,1,1,2.529-.752c3.07,10.329,8,28.032,6.5,30.526C537.559,449.086,517.062,452.466,507.777,452.467Z" fill="#fff"/>
      </g>
      <g id="Group_1610" data-name="Group 1610">
        <path id="Path_2080" data-name="Path 2080" d="M457.921,444.071a.231.231,0,0,0,.23.231h3.678a.085.085,0,0,1,.072,0h3.678a.231.231,0,0,0,.23-.231v-3.784a.23.23,0,0,0-.23-.231h-3.52V435.8a.231.231,0,0,0-.23-.231h-3.678a.231.231,0,0,0-.23.231v4.424a.094.094,0,0,1,0,.066Z" fill="#003"/>
      </g>
      <g id="Group_1611" data-name="Group 1611">
        <path id="Path_2081" data-name="Path 2081" d="M348.624,468.964a.211.211,0,0,0,.212.211h3.373c.012,0,.022,0,.034-.006a.32.32,0,0,0,.033.006h3.373a.211.211,0,0,0,.212-.211v-3.472a.211.211,0,0,0-.212-.211h-3.228v-3.907a.212.212,0,0,0-.212-.212h-3.373a.212.212,0,0,0-.212.212v4.058a.265.265,0,0,0,.006.03c0,.01-.006.02-.006.03Z" fill="#003"/>
      </g>
      <g id="Group_1612" data-name="Group 1612">
        <path id="Path_2082" data-name="Path 2082" d="M267.943,368.821a.233.233,0,0,0,.233.233h3.712a.239.239,0,0,0,.037-.007.208.208,0,0,0,.036.007h3.712a.233.233,0,0,0,.233-.233V365a.232.232,0,0,0-.233-.232h-3.552v-4.3a.232.232,0,0,0-.233-.232h-3.712a.232.232,0,0,0-.233.232v4.467a.182.182,0,0,0,.007.032.216.216,0,0,0-.007.033Z" fill="#003"/>
      </g>
      <g id="Group_1613" data-name="Group 1613">
        <path id="Path_2083" data-name="Path 2083" d="M140.526,468.425a.294.294,0,0,0,.294.293H145.5a.25.25,0,0,0,.046-.009.221.221,0,0,0,.046.009h4.682a.293.293,0,0,0,.294-.293v-4.819a.294.294,0,0,0-.294-.294H145.8v-5.423a.293.293,0,0,0-.293-.293H140.82a.294.294,0,0,0-.294.293v5.634a.272.272,0,0,0,.009.041.316.316,0,0,0-.009.042Z" fill="#003"/>
      </g>
      <g id="Group_1614" data-name="Group 1614">
        <path id="Path_2084" data-name="Path 2084" d="M112.034,312.989a.294.294,0,0,0,.293.294h4.683a.122.122,0,0,1,.092,0h4.682a.294.294,0,0,0,.294-.294V308.17a.293.293,0,0,0-.294-.293H117.3v-5.423a.294.294,0,0,0-.294-.294h-4.683a.294.294,0,0,0-.293.294v5.633a.284.284,0,0,0,.008.042.3.3,0,0,0-.008.041Z" fill="#003"/>
      </g>
      <g id="Group_1615" data-name="Group 1615">
        <path id="Path_2085" data-name="Path 2085" d="M83.6,437.106h6.217a.325.325,0,0,0,.325-.325v-5.074h6.111a.325.325,0,0,0,.325-.324v-5.065h6.033a.324.324,0,0,0,.324-.324v-5.168a.324.324,0,0,0-.324-.324H96.393a.324.324,0,0,0-.324.324v5.065H90.036a.324.324,0,0,0-.324.324v5.074H83.6a.325.325,0,0,0-.324.325v5.167A.325.325,0,0,0,83.6,437.106Z" fill="#003"/>
      </g>
      <g id="Group_1616" data-name="Group 1616">
        <path id="Path_2086" data-name="Path 2086" d="M254.749,460.906h6.217a.325.325,0,0,0,.324-.325v-5.074H267.4a.324.324,0,0,0,.324-.324v-5.065h6.033a.324.324,0,0,0,.324-.324v-5.168a.324.324,0,0,0-.324-.324h-6.217a.324.324,0,0,0-.324.324v5.065h-6.033a.324.324,0,0,0-.325.324v5.074h-6.111a.326.326,0,0,0-.325.325v5.167A.326.326,0,0,0,254.749,460.906Z" fill="#003"/>
      </g>
      <g id="Group_1617" data-name="Group 1617">
        <path id="Path_2087" data-name="Path 2087" d="M358.912,404.413h6.217a.324.324,0,0,0,.324-.324v-5.074h6.112a.324.324,0,0,0,.324-.325v-5.065h6.033a.324.324,0,0,0,.324-.324v-5.168a.324.324,0,0,0-.324-.324H371.7a.325.325,0,0,0-.325.324V393.2h-6.032a.324.324,0,0,0-.325.324V398.6h-6.111a.325.325,0,0,0-.325.324v5.168A.325.325,0,0,0,358.912,404.413Z" fill="#003"/>
      </g>
      <g id="Group_1618" data-name="Group 1618">
        <path id="Path_2088" data-name="Path 2088" d="M478.59,332.949h6.217a.324.324,0,0,0,.325-.324v-5.074h6.111a.325.325,0,0,0,.325-.324v-5.065H497.6a.324.324,0,0,0,.324-.324V316.67a.324.324,0,0,0-.324-.324h-6.218a.324.324,0,0,0-.324.324v5.065h-6.033a.324.324,0,0,0-.324.324v5.074H478.59a.325.325,0,0,0-.324.325v5.167A.324.324,0,0,0,478.59,332.949Z" fill="#003"/>
      </g>
      <g id="Group_1619" data-name="Group 1619">
        <ellipse id="Ellipse_229" data-name="Ellipse 229" cx="22.397" cy="14.44" rx="22.397" ry="14.44" transform="matrix(0.062, -0.998, 0.998, 0.062, 337.479, 443.844)" fill="#fff"/>
      </g>
      <g id="Group_1620" data-name="Group 1620">
        <path id="Path_2089" data-name="Path 2089" d="M124.6,314.68c2.534,1.1,5.907-1.228,6.338-.114s6.28,3.85,9.182,20.014a28.335,28.335,0,0,0,2.3,5.45q2.055-1.852,4.225-3.6a29.656,29.656,0,0,1-4.249-8.185s-5.193-22.6-14.242-19.272c0,0-1.975-4.132-3.775-2.842a.966.966,0,0,0-.476,1.209c-1.285-1.005-2.916-2.059-3.857-1.806-1.718.463-3.926,2.35-2.353,3.927A26.086,26.086,0,0,0,124.6,314.68Z" fill="#ffc055"/>
      </g>
      <g id="Group_1621" data-name="Group 1621">
        <path id="Path_2090" data-name="Path 2090" d="M134.428,337.778l11.843-9.458s4.1,25.661,17.182,26.977,29.316-17.327,29.974-26.977c0,0,12.94,1.316,12.063,6.141s-11.625,18.423-11.625,18.423,9.87,46.655,3.729,49.976-19.959,13.916-24.784,13.882-36.087-43.733-28.023-50.944C144.787,365.8,130.32,341.059,134.428,337.778Z" fill="#fff"/>
      </g>
      <g id="Group_1622" data-name="Group 1622">
        <path id="Path_2091" data-name="Path 2091" d="M162.205,381.729h6.217a.324.324,0,0,0,.324-.324v-5.074h6.112a.324.324,0,0,0,.324-.324v-5.065h6.033a.325.325,0,0,0,.324-.325V365.45a.325.325,0,0,0-.324-.325H175a.325.325,0,0,0-.324.325v5.065h-6.033a.325.325,0,0,0-.325.324v5.074h-6.111a.324.324,0,0,0-.324.324V381.4A.324.324,0,0,0,162.205,381.729Z" fill="#003"/>
      </g>
      <g id="Group_1623" data-name="Group 1623">
        <rect id="Rectangle_899" data-name="Rectangle 899" width="9.767" height="8.886" rx="1.652" transform="translate(513.186 417.988)" fill="#003"/>
      </g>
      <g id="Group_1624" data-name="Group 1624">
        <rect id="Rectangle_900" data-name="Rectangle 900" width="9.767" height="8.886" rx="1.652" transform="translate(435.972 342.928)" fill="#003"/>
      </g>
      <g id="Group_1625" data-name="Group 1625">
        <rect id="Rectangle_901" data-name="Rectangle 901" width="9.767" height="8.886" rx="1.652" transform="translate(186.502 445.276)" fill="#003"/>
      </g>
      <path id="Path_2092" data-name="Path 2092" d="M136.641,120.356s-7.405-33.393,5.15-58.484" fill="none" stroke="#fff" stroke-linecap="round" stroke-miterlimit="10" stroke-width="3"/>
      <path id="Path_2093" data-name="Path 2093" d="M130.408,120.356S123,86.963,135.558,61.872" fill="none" stroke="#fff" stroke-linecap="round" stroke-miterlimit="10" stroke-width="3"/>
      <path id="Path_2094" data-name="Path 2094" d="M475.339,123.356s7.4-36.631-5.15-64.153" fill="none" stroke="#fff" stroke-linecap="round" stroke-miterlimit="10" stroke-width="3"/>
      <path id="Path_2095" data-name="Path 2095" d="M481.572,123.356s7.4-36.631-5.15-64.153" fill="none" stroke="#fff" stroke-linecap="round" stroke-miterlimit="10" stroke-width="3"/>
    </g>
  </g>
</svg>
