<svg xmlns="http://www.w3.org/2000/svg" width="64.039" height="67.696" viewBox="0 0 64.039 67.696">
  <g id="noun_Community_3363741_1_" data-name="noun_Community_3363741 (1)" transform="translate(-7.395 -5.22)">
    <g id="Group_2159" data-name="Group 2159" transform="translate(7.395 5.22)">
      <path id="Path_2274" data-name="Path 2274" d="M23.114,22.437a7.281,7.281,0,0,0,9.772-3.267A7.3,7.3,0,0,0,29.618,9.4a7.286,7.286,0,1,0-6.5,13.041Zm-1.231-8.756a5.008,5.008,0,1,1-.269,3.825A4.986,4.986,0,0,1,21.884,13.681Z" transform="translate(-10.212 -6.042)" fill="#0060e2"/>
      <path id="Path_2275" data-name="Path 2275" d="M68.187,23.2A7.287,7.287,0,1,0,64.929,9.4,7.287,7.287,0,0,0,68.187,23.2ZM65.946,11.433A5.011,5.011,0,1,1,63.7,18.152,5.015,5.015,0,0,1,65.946,11.433Z" transform="translate(-20.298 -6.042)" fill="#0060e2"/>
      <path id="Path_2276" data-name="Path 2276" d="M71.11,15.059a3.066,3.066,0,0,0-5.652.4,11.7,11.7,0,0,1-5,6.486,9.119,9.119,0,0,1-7.707.725c-5.368-1.795-7.814-7.433-5.818-13.406a3.066,3.066,0,1,0-5.816-1.945c-2.394,7.161-1.672,13.679,1.909,17.632l-.85,2.352a22.3,22.3,0,0,0-5.292-.029l-1.037-2.363c3.55-3.957,4.258-10.456,1.873-17.593A3.067,3.067,0,1,0,31.9,9.259c2,5.973-.448,11.612-5.817,13.407s-10.714-1.237-12.712-7.21A3.066,3.066,0,1,0,7.555,17.4c2.376,7.106,6.823,11.862,12.01,12.916l1.019,6.58c0,.03.022.054.029.083a22.894,22.894,0,1,0,37.312-.407l1.3-6.247c5.205-1.037,9.671-5.8,12.054-12.924A3.051,3.051,0,0,0,71.11,15.059ZM21.687,29.151A1.14,1.14,0,0,0,20.7,28.2c-4.659-.57-8.767-4.875-10.988-11.518a.789.789,0,1,1,1.5-.5C13.626,23.4,20.186,27.039,26.8,24.825s9.67-9.063,7.254-16.287a.791.791,0,1,1,1.5-.5c2.221,6.643,1.528,12.552-1.852,15.81a1.139,1.139,0,0,0-.253,1.277l1.108,2.525a22.9,22.9,0,0,0-12.031,6.929Zm2.971,9.677a2.4,2.4,0,0,1-2.4,2.395h-1.49a20.678,20.678,0,0,1,2.807-4.39A2.41,2.41,0,0,1,24.658,38.829Zm-4.8,4.671h2.4a4.656,4.656,0,0,0,2.874-8.333,20.559,20.559,0,0,1,27.149-1.235H45.456a4.98,4.98,0,0,0-4.975,4.974,4.836,4.836,0,0,0,.448,2,7.053,7.053,0,0,0-1.522,1.569,5.689,5.689,0,0,0-5.654-2.626A6.422,6.422,0,0,0,29.3,42.454a9.73,9.73,0,0,0-1.361,7.184c.631,3.382,2.971,6.644,5.528,8.912a4.591,4.591,0,0,0-1.632-.3H27.461a5.066,5.066,0,0,0-5.051-4.732H19.1A20.475,20.475,0,0,1,19.859,43.5ZM59.97,48.516H53.683a1.138,1.138,0,0,0-.82,1.928,2.37,2.37,0,0,1-.544,3.727,1.139,1.139,0,0,0-.008,1.974,2.371,2.371,0,0,1,1.227,2.05,2.459,2.459,0,0,1-2.457,2.395H47.373a2.379,2.379,0,0,1-2.3-1.776l.051-.047c.206-.176.409-.367.613-.556A17.834,17.834,0,0,0,50.2,51.946c.052-.131.092-.263.141-.393.091-.248.188-.5.263-.744a11.279,11.279,0,0,0,.288-1.172c0-.005,0-.012,0-.017.042-.222.074-.458.1-.7.014-.117.02-.239.03-.36s.019-.257.024-.391c.007-.163.008-.327.008-.494,0-.09,0-.179,0-.27-.005-.2-.016-.4-.032-.6,0-.045-.01-.09-.014-.134a9.312,9.312,0,0,0-.76-2.946c-.016-.035-.027-.071-.044-.106a1.138,1.138,0,0,0-.728-2.013h-.683c-.006-.006-.013-.01-.018-.016a6.193,6.193,0,0,0-.72-.595c-.05-.036-.1-.067-.154-.1a6.045,6.045,0,0,0-.656-.379c-.059-.03-.115-.063-.175-.09a6.689,6.689,0,0,0-.819-.309c-.079-.024-.159-.047-.24-.068a7.487,7.487,0,0,0-.934-.2,6.187,6.187,0,0,0-.76-.053c-.03,0-.062-.007-.092-.007s-.071,0-.106.005c-.1,0-.192.008-.288.014-.08.005-.16.011-.242.02-.108.012-.213.03-.319.048-.08.014-.159.026-.239.044l-.058.011a2.581,2.581,0,0,1-.212-1.027,2.7,2.7,0,0,1,2.7-2.7h9.249A20.558,20.558,0,0,1,59.97,48.516ZM43.737,56.954l-.087.077c-1.691,1.439-3.359,2.312-4.236,2.312-2.014,0-8.21-4.6-9.242-10.123a7.507,7.507,0,0,1,.969-5.435A4.15,4.15,0,0,1,34.066,42.1a4.092,4.092,0,0,1,.549-.039c1.555,0,2.752,1.008,3.768,3.174a1.211,1.211,0,0,0,1.037.655,1.139,1.139,0,0,0,1.03-.666,5.268,5.268,0,0,1,2.617-2.94c.038-.016.076-.028.113-.042a3.106,3.106,0,0,1,.4-.111c.041-.008.08-.018.121-.024a3.137,3.137,0,0,1,.458-.041c.027,0,.052,0,.08,0a3.911,3.911,0,0,1,.522.037,5.079,5.079,0,0,1,.855.2c.071.022.134.055.2.08a4.325,4.325,0,0,1,.546.243c.091.05.175.111.262.168a3.9,3.9,0,0,1,.37.269,3.837,3.837,0,0,1,.3.283,4.081,4.081,0,0,1,.395.442c.068.093.119.2.179.294a5.352,5.352,0,0,1,.3.551l.015.035a7.732,7.732,0,0,1,.6,3.374c0,.022,0,.043,0,.065-.008.187-.02.371-.039.546-.022.2-.049.391-.082.568-.055.3-.134.594-.218.888-.024.083-.048.166-.074.248-.08.253-.171.5-.269.749-.058.145-.123.289-.187.433-.043.095-.087.188-.133.282A16.038,16.038,0,0,1,44.9,55.856c-.063.064-.126.127-.189.19-.153.155-.307.3-.46.448C44.076,56.653,43.907,56.808,43.737,56.954ZM19.623,55.79H22.41a2.779,2.779,0,0,1,2.723,3.36,1.138,1.138,0,0,0,1.114,1.373H31.83a2.364,2.364,0,0,1,0,4.727h-6.3A20.659,20.659,0,0,1,19.623,55.79ZM39.412,70.64a20.49,20.49,0,0,1-10.875-3.113H31.83a4.632,4.632,0,0,0,3.754-7.356,7.755,7.755,0,0,0,3.83,1.449,7.669,7.669,0,0,0,3.758-1.405,4.643,4.643,0,0,0,4.2,2.653h3.707A4.709,4.709,0,0,0,55.813,58.2a4.614,4.614,0,0,0-1.159-3.033,4.632,4.632,0,0,0,.972-4.37H60.01A20.64,20.64,0,0,1,39.412,70.64Zm29.7-53.962C66.893,23.32,62.785,27.625,58.127,28.2a1.139,1.139,0,0,0-.977.9l-1.087,5.237a22.894,22.894,0,0,0-11.614-6.641l.954-2.638a1.137,1.137,0,0,0-.28-1.207c-3.38-3.258-4.072-9.168-1.851-15.811a.791.791,0,0,1,1-.5.792.792,0,0,1,.5,1c-2.415,7.225.636,14.075,7.255,16.288a11.486,11.486,0,0,0,9.58-.92,13.966,13.966,0,0,0,6.013-7.729.79.79,0,1,1,1.5.5Z" transform="translate(-7.395 -5.22)" fill="#0060e2"/>
    </g>
  </g>
</svg>
