<svg xmlns="http://www.w3.org/2000/svg" width="64.957" height="51.966" viewBox="0 0 64.957 51.966">
  <g id="noun_legos_1580006" transform="translate(-2 -8)">
    <path id="Path_2273" data-name="Path 2273" d="M65.874,27.487H62.627V24.239a1.083,1.083,0,0,0-1.083-1.083h-6.5a1.083,1.083,0,0,0-1.083,1.083v3.248H51.8V13.413a1.083,1.083,0,0,0-1.083-1.083H49.635V9.083A1.083,1.083,0,0,0,48.553,8h-6.5a1.083,1.083,0,0,0-1.083,1.083V12.33H38.809V9.083A1.083,1.083,0,0,0,37.726,8h-6.5a1.083,1.083,0,0,0-1.083,1.083V12.33H27.983V9.083A1.083,1.083,0,0,0,26.9,8H20.4a1.083,1.083,0,0,0-1.083,1.083V12.33H18.239a1.083,1.083,0,0,0-1.083,1.083V28.57a1.083,1.083,0,0,0,1.083,1.083h9.744V42.644H25.818V39.4a1.083,1.083,0,0,0-1.083-1.083h-6.5A1.083,1.083,0,0,0,17.157,39.4v3.248H14.991V39.4a1.083,1.083,0,0,0-1.083-1.083h-6.5A1.083,1.083,0,0,0,6.33,39.4v3.248H3.083A1.083,1.083,0,0,0,2,43.726V58.883a1.083,1.083,0,0,0,1.083,1.083H50.718A1.083,1.083,0,0,0,51.8,58.883V44.809H65.874a1.083,1.083,0,0,0,1.083-1.083V28.57A1.083,1.083,0,0,0,65.874,27.487Zm-9.744-2.165h4.33v2.165h-4.33ZM43.139,10.165h4.33V12.33h-4.33Zm-10.826,0h4.33V12.33h-4.33Zm-10.826,0h4.33V12.33h-4.33ZM19.322,14.5H49.635V27.487H19.322Zm0,25.983h4.33v2.165h-4.33Zm-10.826,0h4.33v2.165H8.5Zm-4.33,4.33H14.991V57.8H4.165ZM49.635,57.8H17.157V44.809H49.635ZM64.792,42.644H30.148V29.652H64.792Z" fill="#0060e2"/>
    <rect id="Rectangle_1342" data-name="Rectangle 1342" width="2" height="7" transform="translate(21.479 17.983)" fill="#0060e2"/>
    <rect id="Rectangle_1343" data-name="Rectangle 1343" width="3" height="6" transform="translate(61.479 33.983)" fill="#0060e2"/>
  </g>
</svg>
