<svg xmlns="http://www.w3.org/2000/svg" width="478.132" height="465.595" viewBox="0 0 478.132 465.595"><g transform="translate(-716 -836)"><g transform="translate(641.688 1475.28)"><path d="M552.327-398.421V-545.867a80.769,80.769,0,0,0-80.766-80.766H155.548a80.763,80.763,0,0,0-80.767,80.766v147.446Z" fill="#003"/><path d="M74.781-388.288v115.379a80.763,80.763,0,0,0,80.767,80.767H471.561a80.769,80.769,0,0,0,80.766-80.767V-388.288Z" fill="#ffc055"/><rect width="477.663" height="98.599" transform="translate(74.781 -385.058)" fill="#ffc055"/><path d="M74.781-384.7v-30.383a3.406,3.406,0,0,1,3.406-3.406h49.757a3.406,3.406,0,0,0,3.406-3.406v-6.042a11.093,11.093,0,0,1,11.093-11.092H300.025a11.092,11.092,0,0,1,11.092,11.092v6.042a3.406,3.406,0,0,0,3.406,3.406h18.345a3.406,3.406,0,0,0,3.406-3.406v-6.042a11.092,11.092,0,0,1,11.092-11.092h68.521a11.093,11.093,0,0,1,11.093,11.092v6.042a3.406,3.406,0,0,0,3.406,3.406H548.921a3.406,3.406,0,0,1,3.406,3.406V-384.7Z" fill="#ff595a"/><path d="M552.327-291.329V-314.7H382.651a11.67,11.67,0,0,0-11.671,11.671V-291.8c0,6.446-4.7,11.671,1.75,11.671H540.656A11.671,11.671,0,0,0,552.327-291.8" fill="#fff"/><path d="M75.961-259.3a80.752,80.752,0,0,0,79.587,67.162H471.56A80.76,80.76,0,0,0,551.147-259.3Z" fill="#ffc055"/><path d="M551.64-257.048c.448-5.129.687-10.431.687-15.861v-18.42H354.482a6.8,6.8,0,0,0-6.8,6.8v11.616c0,5.43.239,10.732.688,15.861Z" fill="#ff595a"/><path d="M83.116-269.519s4.146,61,61.153,69.368" fill="none" stroke="#fff" stroke-linecap="round" stroke-linejoin="round" stroke-width="4"/><path d="M125.313-639.28h12.353a.644.644,0,0,1,.644.644v10.082h12.143a.644.644,0,0,1,.644.644v10.063h11.987a.644.644,0,0,1,.644.644v10.268a.644.644,0,0,1-.644.644H150.731a.644.644,0,0,1-.644-.644V-617H138.1a.644.644,0,0,1-.644-.644v-10.081H125.313a.645.645,0,0,1-.644-.645v-10.267A.644.644,0,0,1,125.313-639.28Z" fill="#ffc055"/><ellipse cx="21.419" cy="26.049" rx="21.419" ry="26.049" transform="translate(211.075 -508.044)" fill="#ffc055"/><path d="M233.169-503.891s11.9-2.628,15.4,13.466" fill="none" stroke="#fff" stroke-linecap="round" stroke-miterlimit="10" stroke-width="1.5"/><line x2="151.201" transform="translate(142.443 -434.876)" fill="none" stroke="#fff" stroke-linecap="round" stroke-miterlimit="10" stroke-width="2"/><path d="M298.161-434.876s8.308-.574,7.576,14.727" fill="none" stroke="#fff" stroke-linecap="round" stroke-miterlimit="10" stroke-width="2"/><line x2="58.889" transform="translate(350.466 -434.876)" fill="none" stroke="#fff" stroke-linecap="round" stroke-miterlimit="10" stroke-width="2"/><line x2="46.946" transform="translate(79.726 -414.843)" fill="none" stroke="#fff" stroke-linecap="round" stroke-miterlimit="10" stroke-width="2"/><path d="M413.871-434.876s8.308-.574,7.577,14.727" fill="none" stroke="#fff" stroke-linecap="round" stroke-miterlimit="10" stroke-width="2"/><path d="M250.409-486.1a27.727,27.727,0,0,1,0,9.347" fill="none" stroke="#fff" stroke-linecap="round" stroke-miterlimit="10" stroke-width="1.5"/><path d="M240.869-508.044s-6.208-28-29.794-12.551-44.382,2.648-44.382,2.648C135.8-531.187,123-521.036,123-521.036s-37.151,21.14,1.4,66.769c25.219,29.854,69.488,24.59,69.488,24.59s18.833-2.978,19.645.883c.406,1.928-6.232,13.241-6.232,13.241-2.648,9.268,11.917,38.4,15.448,35.749s4.413,1.324,16.33,4.414,11.738-1.766,11.738-1.766-1.146-32.218-2.244-41.928,6.836-1.324,13.9,12.358-4.413,33.1-4.413,33.1a20.5,20.5,0,0,1,11.475,3.09c4.855-7.5,8.386-23.833,8.386-23.833,3.013-22.951-13.549-37.258-24-47.225a20.455,20.455,0,0,0-14.4-5.738,16.034,16.034,0,0,1-16.771,0,43.464,43.464,0,0,0-17.961.946c-12.033,3.4-38.952.455-53.664-6.3-11.358-5.219-30.192-22.733-27.985-40.352s17.077-20.05,41.792-6.809c0,0,22.4,13.747,40.946-1.7,19.784-16.479,24.314,6.812,24.314,6.812s2.588,7.81,8.376,4.448S244.87-498.691,240.869-508.044Z" fill="#00b4a6"/><path d="M218.7-332.076,217.464-348.6l2.911-32.107c2.107-3,9.005,1.756,11.377,2.848a67.532,67.532,0,0,0,7.323,2.469c9.59,2.5,11.738-1.766,11.738-1.766s-3.223-11.5,23.4,10c15.085,12.18,22.96,10.96,36.635,13.166,5.412.873,15.61,26.179,11.7,76.37,0,0-6.321,9.316-29.281,6.691,0,0,2.582-23.4,3.027-43.771a35.53,35.53,0,0,0-1.7-3.874c-2.456-4.865-7.567-12.629-15.3-13.008-11.308-.553-18.946-.21-50.542-4.2C228.748-335.786,225.279-332.689,218.7-332.076Z" fill="#fff"/><path d="M473.782-409.388s4.316,77.843-.8,94.685h17.539s-8.739-61.07-3.623-94.685Z" fill="#003"/><rect width="77.907" height="70.883" rx="13.176" transform="translate(441.387 -470.318)" fill="#ffc055"/><path d="M503.769-366.42s4.316,34.875-.8,51.717h17.538s-8.738-18.1-3.623-51.717Z" fill="#ff595a"/><path d="M513.61-446.505v-11.53s.611-7.605-10.132-7.343" fill="none" stroke="#fff" stroke-linecap="round" stroke-miterlimit="10" stroke-width="2"/><line x1="12.565" transform="translate(486.611 -465.385)" fill="none" stroke="#fff" stroke-linecap="round" stroke-miterlimit="10" stroke-width="2"/><rect width="96.088" height="32.557" rx="6.758" transform="translate(404.353 -574.985)" fill="#00b4a6" opacity="0.81"/><path d="M496.567-556.7v-9.309s.494-6.141-8.18-5.929" fill="none" stroke="#fff" stroke-linecap="round" stroke-miterlimit="10" stroke-width="2"/><line x1="10.145" transform="translate(476.371 -571.947)" fill="none" stroke="#fff" stroke-linecap="round" stroke-miterlimit="10" stroke-width="2"/><line x1="52.987" transform="translate(420.856 -571.947)" fill="none" stroke="#fff" stroke-linecap="round" stroke-miterlimit="10" stroke-width="2"/><rect width="156.834" height="32.557" rx="6.758" transform="translate(278.274 -570.277)" fill="#00b4a6" opacity="0.81"/><rect width="126.461" height="32.557" rx="6.758" transform="translate(342.718 -548.256)" fill="#00b4a6" opacity="0.81"/><path d="M465.306-529.975v-9.309s.494-6.141-8.181-5.929" fill="none" stroke="#fff" stroke-linecap="round" stroke-miterlimit="10" stroke-width="2"/><path d="M345.438-524.338s-.494,6.14,8.18,5.929" fill="none" stroke="#fff" stroke-linecap="round" stroke-miterlimit="10" stroke-width="2"/><path d="M282.673-548.186s-.494,6.141,8.181,5.929" fill="none" stroke="#fff" stroke-linecap="round" stroke-miterlimit="10" stroke-width="2"/><line x1="10.145" transform="translate(445.109 -545.219)" fill="none" stroke="#fff" stroke-linecap="round" stroke-miterlimit="10" stroke-width="2"/><line x1="52.987" transform="translate(389.595 -545.219)" fill="none" stroke="#fff" stroke-linecap="round" stroke-miterlimit="10" stroke-width="2"/><path d="M429.94-551.084v-9.309s.493-6.141-8.181-5.929" fill="none" stroke="#fff" stroke-linecap="round" stroke-miterlimit="10" stroke-width="2"/><line x1="129.131" transform="translate(290.757 -566.328)" fill="none" stroke="#fff" stroke-linecap="round" stroke-miterlimit="10" stroke-width="2"/><rect width="15.702" height="14.287" rx="2.656" transform="translate(120.744 -570.341)" fill="#00b4a6"/><rect width="15.702" height="14.287" rx="2.656" transform="translate(274.775 -608.294)" fill="#00b4a6"/><rect width="15.702" height="14.287" rx="2.656" transform="translate(511.442 -507.982)" fill="#00b4a6"/><rect width="15.702" height="14.287" rx="2.656" transform="translate(344.82 -476.753)" fill="#ffc055"/><rect width="66.847" height="60.82" rx="11.306" transform="translate(478.315 -422.865)" fill="#00b4a6"/><path d="M220.977-377.564c-1.146-7.258-4.054-14.025-4.806-21.331-.013-.067-.028-.131-.039-.2-.63-4.1-3.705-26.131-20.175-17.339S177.042-357.8,177.042-357.8c-1.79,17.263,4.1,20.176,4.1,20.176,19.545.315,40.91,2.207,43.117-6.3,1.245-4.8,0-18.337-1.314-30.184A5.86,5.86,0,0,1,220.977-377.564Z" fill="#fff"/><path d="M165.194-331.841s1.224-21.833,27.39-22.149,29.67,21.9,29.67,21.9Z" fill="#003"/><path d="M219.6-339.416c5.411-1.462,5.148-12.618,5.148-12.618a212.2,212.2,0,0,0-4.371-28.673s-2.53-10.4-4.2-18.188" fill="none" stroke="#003" stroke-linecap="round" stroke-linejoin="round" stroke-width="2"/><path d="M217.464-334.567s8.928,4.614,13.387-5.994" fill="none" stroke="#003" stroke-linecap="round" stroke-linejoin="round" stroke-width="2"/><path d="M228.748-335.786s22.114,3.945,33.22-4.775" fill="none" stroke="#003" stroke-linecap="round" stroke-linejoin="round" stroke-width="2"/><path d="M322.55-277.623s17.281,2.367,22.27,23.32c0,0-22.075,14.966-62.193,5.987,0,0,4.323-20.288,10.642-22.616C293.269-270.932,313.723-269.519,322.55-277.623Z" fill="#003"/><path d="M540.641-399.948v-11.529s.611-7.606-10.132-7.344" fill="none" stroke="#fff" stroke-linecap="round" stroke-miterlimit="10" stroke-width="2"/><line x1="12.565" transform="translate(513.642 -418.828)" fill="none" stroke="#fff" stroke-linecap="round" stroke-miterlimit="10" stroke-width="2"/><path d="M513.616-357.91s-3.834,25.6,2.389,38.316" fill="none" stroke="#fff" stroke-linecap="round" stroke-miterlimit="10" stroke-width="2"/><path d="M482.965-360.752s1.843,33.039,3.646,41.158" fill="none" stroke="#fff" stroke-linecap="round" stroke-miterlimit="10" stroke-width="2"/><path d="M302.528-335.946s6.218,6.612,10.935.291" fill="none" stroke="#003" stroke-linecap="round" stroke-linejoin="round" stroke-width="2"/><path d="M299.651-324.12s-3.111,2.011-3.355,9.417l-3.027,43.771" fill="none" stroke="#003" stroke-linecap="round" stroke-linejoin="round" stroke-width="2"/><path d="M192.584-405.1s6.629,6.507,13.289,0" fill="none" stroke="#003" stroke-linecap="round" stroke-linejoin="round" stroke-width="2"/><path d="M220.375-380.707s3.121-2.89,11.377,2.848,19.964,3.486,19.061.7" fill="none" stroke="#003" stroke-linecap="round" stroke-linejoin="round" stroke-width="2"/><path d="M244.062-334.637s32.2,1.459,38.565,2.8C290.792-330.126,296.3-314.7,296.3-314.7" fill="none" stroke="#003" stroke-linecap="round" stroke-linejoin="round" stroke-width="2"/><path d="M240.869-442.83s12.181-3.675,24.363,19.965" fill="none" stroke="#fff" stroke-linecap="round" stroke-miterlimit="10" stroke-width="1.5"/><path d="M244.062-418.491s4.507,22.9,1.3,40.63" fill="none" stroke="#fff" stroke-linecap="round" stroke-miterlimit="10" stroke-width="1.5"/><path d="M119.325-512.321s9.27-18.065,42.443-3.378" fill="none" stroke="#fff" stroke-linecap="round" stroke-miterlimit="10" stroke-width="1.5"/><path d="M205.873-512.321s18.9-19.656,27.3-3.378" fill="none" stroke="#fff" stroke-linecap="round" stroke-miterlimit="10" stroke-width="1.5"/><path d="M142.443-453.371s16.138,11.061,42.218,10.334" fill="none" stroke="#fff" stroke-linecap="round" stroke-miterlimit="10" stroke-width="1.5"/><line x2="24.651" transform="translate(516.005 -283.739)" fill="none" stroke="#fff" stroke-linecap="round" stroke-miterlimit="10" stroke-width="2"/><line x2="130.117" transform="translate(372.73 -283.739)" fill="none" stroke="#fff" stroke-linecap="round" stroke-miterlimit="10" stroke-width="2"/><line x2="24.651" transform="translate(521.11 -310.674)" stroke-width="2" stroke="#ff595a" stroke-linecap="round" stroke-linejoin="round" fill="none"/><line x2="88.777" transform="translate(419.174 -310.674)" stroke-width="2" stroke="#ff595a" stroke-linecap="round" stroke-linejoin="round" fill="none"/><ellipse cx="37.459" cy="8.645" rx="37.459" ry="8.645" transform="translate(276.264 -219.86)" fill="#003"/><rect width="214.138" height="158.156" rx="10.453" transform="translate(74.313 -331.841)" fill="#ff595a"/><line y1="0.295" x2="178.419" transform="translate(86.813 -326.075)" fill="none" stroke="#fff" stroke-linecap="round" stroke-miterlimit="10" stroke-width="2"/><path d="M270.443-326.075s12.187-.268,12.184,12.962" fill="none" stroke="#fff" stroke-linecap="round" stroke-miterlimit="10" stroke-width="2"/><line y2="30.607" transform="translate(282.627 -304.796)" fill="none" stroke="#fff" stroke-linecap="round" stroke-miterlimit="10" stroke-width="2"/><line y2="67.936" transform="translate(282.627 -265.442)" fill="none" stroke="#fff" stroke-linecap="round" stroke-miterlimit="10" stroke-width="2"/></g></g></svg>