<svg xmlns="http://www.w3.org/2000/svg" xmlns:xlink="http://www.w3.org/1999/xlink" width="473.602" height="351.93" viewBox="0 0 473.602 351.93"><defs><clipPath id="a"><path d="M34.223,427.856V452.79a80.1,80.1,0,0,0,80.1,80.1h313.4a80.1,80.1,0,0,0,80.1-80.1V427.856Z" transform="translate(-34.223 -427.856)" fill="none"/></clipPath></defs><g transform="translate(-146 -3474.628)"><g transform="translate(111.777 3329.447)"><path d="M34.223,427.856V452.79a80.1,80.1,0,0,0,80.1,80.1h313.4a80.1,80.1,0,0,0,80.1-80.1V427.856Z" transform="translate(0 -35.779)" fill="#ffc055"/><path d="M507.825,401.634H34.223L80.859,389.94H470.517Z" transform="translate(0 -32.028)" fill="#ff595a"/><rect width="473.602" height="23.387" transform="translate(34.223 369.005)" fill="#fff"/><path d="M516.3,246.981c0,31.659-62.46,71.444-101.366,71.444s-70.444-25.664-70.444-57.322,62.46-71.444,101.366-71.444S516.3,208.446,516.3,246.981Z" transform="translate(-30.695 -12.213)" fill="#fff"/><path d="M505.445,247.5c0,26.757-52.789,60.382-85.671,60.382s-59.538-21.69-59.538-48.448,52.79-60.381,85.672-60.381S505.445,214.936,505.445,247.5Z" transform="translate(-32.253 -13.143)" fill="#ff595a"/><ellipse cx="21.977" cy="13.385" rx="21.977" ry="13.385" transform="translate(337.656 244.763) rotate(-30)" fill="#003"/><ellipse cx="21.977" cy="13.385" rx="21.977" ry="13.385" transform="matrix(0.922, -0.387, 0.387, 0.922, 392.091, 254.487)" fill="#003"/><ellipse cx="21.977" cy="13.385" rx="21.977" ry="13.385" transform="matrix(0.922, -0.387, 0.387, 0.922, 393.803, 210.606)" fill="#003"/><ellipse cx="21.977" cy="13.385" rx="21.977" ry="13.385" transform="translate(338.718 242.046) rotate(-30)" fill="#ffc055"/><ellipse cx="2.557" cy="1.558" rx="2.557" ry="1.558" transform="matrix(0.922, -0.387, 0.387, 0.922, 363.278, 231.598)" fill="#003"/><ellipse cx="2.557" cy="1.558" rx="2.557" ry="1.558" transform="matrix(0.922, -0.387, 0.387, 0.922, 365.712, 247.634)" fill="#003"/><ellipse cx="2.557" cy="1.558" rx="2.557" ry="1.558" transform="matrix(0.779, -0.627, 0.627, 0.779, 352, 241.701)" fill="#003"/><ellipse cx="2.557" cy="1.558" rx="2.557" ry="1.558" transform="matrix(0.632, -0.775, 0.775, 0.632, 362.729, 241.326)" fill="#003"/><ellipse cx="2.557" cy="1.558" rx="2.557" ry="1.558" transform="matrix(0.922, -0.387, 0.387, 0.922, 354.443, 249.799)" fill="#003"/><ellipse cx="2.557" cy="1.558" rx="2.557" ry="1.558" transform="matrix(0.922, -0.387, 0.387, 0.922, 372.525, 234.681)" fill="#003"/><ellipse cx="21.977" cy="13.385" rx="21.977" ry="13.385" transform="matrix(0.922, -0.387, 0.387, 0.922, 394.432, 208.019)" fill="#ffc055"/><ellipse cx="21.977" cy="13.385" rx="21.977" ry="13.385" transform="matrix(0.922, -0.387, 0.387, 0.922, 391.159, 253.167)" fill="#ffc055"/><path d="M319.519,183.692c-63.321-11.111-91.79,38.475-91.79,38.475" transform="translate(-19.144 -11.462)" fill="none" stroke="#ff595a" stroke-linecap="round" stroke-linejoin="round" stroke-width="4"/><path d="M317.223,171.545l10.767,11.106-14.63,7.437" transform="translate(-27.616 -10.421)" fill="none" stroke="#ff595a" stroke-linecap="round" stroke-linejoin="round" stroke-width="4"/><ellipse cx="2.557" cy="1.558" rx="2.557" ry="1.558" transform="matrix(0.922, -0.387, 0.387, 0.922, 415.48, 246.295)" fill="#003"/><ellipse cx="2.557" cy="1.558" rx="2.557" ry="1.558" transform="matrix(0.922, -0.387, 0.387, 0.922, 404.211, 255.564)" fill="#003"/><ellipse cx="2.557" cy="1.558" rx="2.557" ry="1.558" transform="matrix(0.811, -0.584, 0.584, 0.811, 413.203, 256.241)" fill="#003"/><ellipse cx="2.557" cy="1.558" rx="2.557" ry="1.558" transform="matrix(0.922, -0.387, 0.387, 0.922, 406.645, 264.496)" fill="#003"/><ellipse cx="2.557" cy="1.558" rx="2.557" ry="1.558" transform="matrix(0.922, -0.387, 0.387, 0.922, 424.728, 249.379)" fill="#003"/><ellipse cx="2.557" cy="1.558" rx="2.557" ry="1.558" transform="translate(421.641 263.123) rotate(-67.919)" fill="#003"/><ellipse cx="2.557" cy="1.558" rx="2.557" ry="1.558" transform="matrix(0.922, -0.387, 0.387, 0.922, 414.663, 220.675)" fill="#003"/><ellipse cx="2.557" cy="1.558" rx="2.557" ry="1.558" transform="matrix(0.922, -0.387, 0.387, 0.922, 425.932, 211.406)" fill="#003"/><ellipse cx="2.557" cy="1.558" rx="2.557" ry="1.558" transform="matrix(0.811, -0.584, 0.584, 0.811, 416.892, 212.083)" fill="#003"/><ellipse cx="2.557" cy="1.558" rx="2.557" ry="1.558" transform="matrix(0.922, -0.387, 0.387, 0.922, 423.498, 202.474)" fill="#003"/><ellipse cx="2.557" cy="1.558" rx="2.557" ry="1.558" transform="matrix(0.922, -0.387, 0.387, 0.922, 405.415, 217.591)" fill="#003"/><ellipse cx="2.557" cy="1.558" rx="2.557" ry="1.558" transform="translate(409.615 208.307) rotate(-67.919)" fill="#003"/><path d="M310.721,358.814s11.141,4.614,6.748,18.878c0,0-1.946,5.743-4.053,8.772" transform="translate(-27.355 -28.948)" fill="none" stroke="#00b4a6" stroke-linecap="round" stroke-miterlimit="10" stroke-width="1"/><path d="M340.523,355.562a78.349,78.349,0,0,1,2.888,20.88s.2,6.942-1.518,9.283" transform="translate(-30.303 -28.627)" fill="none" stroke="#00b4a6" stroke-linecap="round" stroke-miterlimit="10" stroke-width="1"/><g transform="translate(293.593 147.691)"><line x2="13.101" y2="4.149" transform="translate(9.567 53.867)" stroke-width="4" stroke="#ffc055" stroke-linecap="round" stroke-linejoin="round" fill="none"/><line x2="13.562" y2="2.216" transform="translate(0 77.138)" stroke-width="4" stroke="#ffc055" stroke-linecap="round" stroke-linejoin="round" fill="none"/><line x1="4.149" y2="13.101" transform="translate(109.21)" stroke-width="4" stroke="#ffc055" stroke-linecap="round" stroke-linejoin="round" fill="none"/><line x1="5.699" y2="12.505" transform="translate(134.525 1.807)" stroke-width="4" stroke="#ffc055" stroke-linecap="round" stroke-linejoin="round" fill="none"/><line x2="9.897" y2="8.218" transform="translate(30.943 33.477)" stroke-width="4" stroke="#ffc055" stroke-linecap="round" stroke-linejoin="round" fill="none"/><line x2="1.023" y2="12.824" transform="translate(85.79 5.012)" stroke-width="4" stroke="#ffc055" stroke-linecap="round" stroke-linejoin="round" fill="none"/><line x2="4.633" y2="8.928" transform="translate(58.52 17.129)" stroke-width="4" stroke="#ffc055" stroke-linecap="round" stroke-linejoin="round" fill="none"/></g><g transform="translate(34.223 392.077)"><g clip-path="url(#a)"><g transform="translate(5.452 0.315)"><line y2="110.458" transform="translate(424.251)" fill="none" stroke="#00b4a6" stroke-miterlimit="10" stroke-width="3"/><line y2="110.458" transform="translate(451.301)" fill="none" stroke="#00b4a6" stroke-miterlimit="10" stroke-width="3"/><line y2="110.458" transform="translate(397.736)" fill="none" stroke="#00b4a6" stroke-miterlimit="10" stroke-width="3"/><line y2="110.458" transform="translate(371.22)" fill="none" stroke="#00b4a6" stroke-miterlimit="10" stroke-width="3"/><line y2="110.458" transform="translate(344.704)" fill="none" stroke="#00b4a6" stroke-miterlimit="10" stroke-width="3"/><line y2="110.458" transform="translate(318.188)" fill="none" stroke="#00b4a6" stroke-miterlimit="10" stroke-width="3"/><line y2="110.458" transform="translate(291.673)" fill="none" stroke="#00b4a6" stroke-miterlimit="10" stroke-width="3"/><line y2="110.458" transform="translate(265.157)" fill="none" stroke="#00b4a6" stroke-miterlimit="10" stroke-width="3"/><line y2="110.458" transform="translate(238.641)" fill="none" stroke="#00b4a6" stroke-miterlimit="10" stroke-width="3"/><line y2="110.458" transform="translate(212.126)" fill="none" stroke="#00b4a6" stroke-miterlimit="10" stroke-width="3"/><line y2="110.458" transform="translate(185.61)" fill="none" stroke="#00b4a6" stroke-miterlimit="10" stroke-width="3"/><line y2="110.458" transform="translate(159.094)" fill="none" stroke="#00b4a6" stroke-miterlimit="10" stroke-width="3"/><line y2="110.458" transform="translate(132.578)" fill="none" stroke="#00b4a6" stroke-miterlimit="10" stroke-width="3"/><line y2="110.458" transform="translate(106.063)" fill="none" stroke="#00b4a6" stroke-miterlimit="10" stroke-width="3"/><line y2="110.458" transform="translate(79.547)" fill="none" stroke="#00b4a6" stroke-miterlimit="10" stroke-width="3"/><line y2="110.458" transform="translate(53.031)" fill="none" stroke="#00b4a6" stroke-miterlimit="10" stroke-width="3"/><line y2="110.458" transform="translate(26.516)" fill="none" stroke="#00b4a6" stroke-miterlimit="10" stroke-width="3"/><line y2="110.458" fill="none" stroke="#00b4a6" stroke-miterlimit="10" stroke-width="3"/></g></g></g><g transform="translate(174.869 246.196)"><path d="M269.922,272.7V379.8a4.972,4.972,0,0,1-4.972,4.972H195.283a4.973,4.973,0,0,1-4.972-4.972V272.7" transform="translate(-190.311 -266.625)" fill="#003"/><path d="M190.468,359.2c0,3.355,17.79,6.073,39.734,6.073s39.735-2.719,39.735-6.073V316.063c0,3.354-17.79,6.073-39.735,6.073s-39.734-2.719-39.734-6.073Z" transform="translate(-190.327 -270.915)" fill="#ffc055"/><ellipse cx="39.735" cy="6.073" rx="39.735" ry="6.073" transform="translate(0.141)" fill="#ffc055"/><g transform="translate(15.455 57.978)"><path d="M262.777,340.4c.123,2.072.229,7.044-.658,8.921-1.567,3.32-5.642,4.577-9.3,4.892" transform="translate(-211.95 -331.301)" fill="none" stroke="#fff" stroke-miterlimit="10" stroke-width="1"/><path d="M263.632,332.213" transform="translate(-213.02 -330.491)" fill="none" stroke="#fff" stroke-miterlimit="10" stroke-width="1"/><path d="M249.687,340.475c.186,1.653.347,3.435-.473,4.883-1.262,2.226-5.488,3.264-8.041,3.1-2.142-.134-6.407.414-8.165-.817s-4.121-6.745-3.757-8.859c.285,2.7.84,7.54-.992,9.549-2.008,2.2-5.932.316-8.732-.7" transform="translate(-208.656 -331.141)" fill="none" stroke="#fff" stroke-miterlimit="10" stroke-width="1"/><path d="M208.264,337.63a5.522,5.522,0,0,0,3.673,7.238,1.63,1.63,0,0,0,.961-.005,1.75,1.75,0,0,0,.83-.938,5.667,5.667,0,0,0,0-5.527c-1.07-1.606-3.685-2.135-4.966-.69" transform="translate(-207.505 -330.951)" fill="none" stroke="#fff" stroke-miterlimit="10" stroke-width="1"/><path d="M207.463,330.3" transform="translate(-207.463 -330.302)" fill="none" stroke="#fff" stroke-miterlimit="10" stroke-width="1"/><path d="M213.887,330.886" transform="translate(-208.099 -330.36)" fill="none" stroke="#fff" stroke-miterlimit="10" stroke-width="1"/><path d="M240.857,355.281" transform="translate(-210.767 -332.773)" fill="none" stroke="#fff" stroke-miterlimit="10" stroke-width="1"/></g><path d="M240.857,268.8s20.522-.467,28.677,2.213c0,0,4.094,4.493-28.677,5.5" transform="translate(-195.312 -266.236)" fill="none" stroke="#fff" stroke-linecap="round" stroke-miterlimit="10" stroke-width="1"/><path d="M230.3,277.2a131.741,131.741,0,0,1-22.115-1.6" transform="translate(-192.079 -266.911)" fill="none" stroke="#fff" stroke-linecap="round" stroke-miterlimit="10" stroke-width="1"/><line y2="26.167" transform="translate(76.113 13.571)" fill="none" stroke="#fff" stroke-linecap="round" stroke-miterlimit="10" stroke-width="2"/><line y2="11.495" transform="translate(76.113 95.558)" fill="none" stroke="#fff" stroke-linecap="round" stroke-miterlimit="10" stroke-width="2"/></g><ellipse cx="53.113" cy="4.075" rx="53.113" ry="4.075" transform="translate(67.408 359.861)" fill="#003"/><ellipse cx="13.829" cy="3.039" rx="13.829" ry="3.039" transform="translate(255.332 361.933)" fill="#003"/><ellipse cx="13.125" cy="3.039" rx="13.125" ry="3.039" transform="translate(282.989 358.894)" fill="#003"/><ellipse cx="14.527" cy="3.039" rx="14.527" ry="3.039" transform="translate(313.792 358.929)" fill="#003"/><ellipse cx="52.231" cy="3.039" rx="52.231" ry="3.039" transform="translate(369.667 360.794)" fill="#003"/><g transform="translate(259.016 317.21)"><path d="M371.415,364.514c3.965,11.1,6.718,20.427-7.151,25.224-12.394,4.286-17.543-3.887-21.508-14.992s2.825-23.72,7.151-25.223C355.089,347.722,367.45,353.409,371.415,364.514Z" transform="translate(-289.422 -345.207)" fill="#fff"/><path d="M340.7,369.556c-.328,11.766-1.138,21.435-15.776,20.881-13.082-.495-14.916-9.961-14.588-21.727s7.583-23.94,15.169-23.94C332.524,344.769,341.029,357.79,340.7,369.556Z" transform="translate(-286.33 -344.769)" fill="#fff"/><path d="M312.4,383.694c-5.18,9.425-11.836,15.966-21.508,10.4-10.34-5.951-7.93-14.307-2.749-23.733s17.887-12.458,21.508-10.4C316.262,363.72,317.582,374.269,312.4,383.694Z" transform="translate(-283.697 -346.211)" fill="#fff"/><path d="M310.3,362.223s7.617,4.312,4.264,14.631" transform="translate(-286.33 -346.496)" fill="none" stroke="#00b4a6" stroke-linecap="round" stroke-miterlimit="10" stroke-width="1"/><path d="M328.234,346.52a14.908,14.908,0,0,1,8.47,9.375" transform="translate(-288.104 -344.942)" fill="none" stroke="#00b4a6" stroke-linecap="round" stroke-miterlimit="10" stroke-width="1"/><path d="M356.618,351.722a14.91,14.91,0,0,1,10,7.727" transform="translate(-290.912 -345.457)" fill="none" stroke="#00b4a6" stroke-linecap="round" stroke-miterlimit="10" stroke-width="1"/></g><g transform="translate(57.517 217.368)"><path d="M69.979,240.116s63.5-13.839,104.2,0c0,0,16.282,101.018,3.256,138.024,0,0-33.823,3.5-59.421,3.465-19.41-.025-48.039-3.465-48.039-3.465S48,280.82,69.979,240.116Z" transform="translate(-60.088 -233.965)" fill="#ffc055"/><path d="M60.215,297.7s48.174,13.831,120.141,0c0,0,3.6,29.341,2.033,50.5,0,0-71.1,21.18-118.671-.009C63.717,348.2,59.235,313.308,60.215,297.7Z" transform="translate(-60.075 -240.27)" fill="#ff595a"/><path d="M177.305,259.995c-1.537-12.067-2.8-19.879-2.8-19.879-40.7-13.839-104.2,0-104.2,0a73.114,73.114,0,0,0-6.8,19.879,184.592,184.592,0,0,1,56.9-9.923C158.475,249.521,177.305,259.995,177.305,259.995Z" transform="translate(-60.414 -233.965)" fill="#fff"/><g transform="translate(24.57 75.772)"><path d="M164.008,327.043c2.3,2.341,4.771,5.66,3.257,8.57-1.553,2.986-5.834,2.759-9.134,2.1" transform="translate(-94.346 -318.945)" fill="none" stroke="#fff" stroke-miterlimit="10" stroke-width="1"/><path d="M145.646,324.425c-1.442-1.079-5.939-.358-6.528,1.344s.874,5.344,2.674,5.387,5.4-3.515,4.888-5.242a30.268,30.268,0,0,1,.779,8.612,2.994,2.994,0,0,1-.525,1.819,3.048,3.048,0,0,1-1.8.814,47.836,47.836,0,0,1-11.572.832c-3.117-.156-7.115-.572-9.193-3.218" transform="translate(-91.006 -318.636)" fill="none" stroke="#fff" stroke-miterlimit="10" stroke-width="1"/><path d="M141.146,318.056" transform="translate(-92.666 -318.056)" fill="none" stroke="#fff" stroke-miterlimit="10" stroke-width="1"/><path d="M147.071,318.433" transform="translate(-93.252 -318.093)" fill="none" stroke="#fff" stroke-miterlimit="10" stroke-width="1"/><path d="M124.664,328.112c.173,2.457-1.612,4.721-3.8,5.851a18.038,18.038,0,0,1-7.179,1.51,74.693,74.693,0,0,1-12.287-.011c-2.819-.285-7.064-1.58-6.464-4.349.414-1.913,1.68-4.5,3.439-4.936s4.479-.319,5.16,1.143c.906,1.945,2.924,4.156,2.926,6.3,0,2.249-1.9,6.271-3.847,7.394a17.485,17.485,0,0,1-6.453,1.812c-2.668.363-5.524-1.562-7.2-3.666a7.2,7.2,0,0,1-1.249-3.447,30.821,30.821,0,0,1,.469-11.845" transform="translate(-87.343 -318.631)" fill="none" stroke="#fff" stroke-miterlimit="10" stroke-width="1"/><path d="M98.674,320.638" transform="translate(-88.464 -318.311)" fill="none" stroke="#fff" stroke-miterlimit="10" stroke-width="1"/><path d="M106.575,321.141" transform="translate(-89.245 -318.361)" fill="none" stroke="#fff" stroke-miterlimit="10" stroke-width="1"/><path d="M113.007,344.688" transform="translate(-89.882 -320.691)" fill="none" stroke="#fff" stroke-miterlimit="10" stroke-width="1"/><path d="M119.712,344.688" transform="translate(-90.545 -320.691)" fill="none" stroke="#fff" stroke-miterlimit="10" stroke-width="1"/></g><path d="M61.769,301.185s55.772,11.7,117.6,0" transform="translate(-60.242 -240.615)" fill="none" stroke="#fff" stroke-linecap="round" stroke-miterlimit="10" stroke-width="2"/><path d="M66.4,350.9s48.252,19.478,113.424,0" transform="translate(-60.701 -245.534)" fill="none" stroke="#fff" stroke-linecap="round" stroke-miterlimit="10" stroke-width="2"/><path d="M186.006,266.122s3.692,16.25,3.419,25.423" transform="translate(-72.533 -237.146)" fill="none" stroke="#fff" stroke-linecap="round" stroke-miterlimit="10" stroke-width="2"/><path d="M190.027,360.833s-.876,16.61-4.021,26.832" transform="translate(-72.533 -246.516)" fill="none" stroke="#fff" stroke-linecap="round" stroke-miterlimit="10" stroke-width="2"/></g><path d="M462.22,192.124s43.235-1.082,57.857,32.185" transform="translate(-42.343 -12.457)" fill="none" stroke="#ff595a" stroke-linecap="round" stroke-linejoin="round" stroke-width="2"/><path d="M527.958,232.746s6.491,9.668,2.326,20.437" transform="translate(-48.847 -16.476)" fill="none" stroke="#ff595a" stroke-linecap="round" stroke-linejoin="round" stroke-width="2"/><path d="M409.283,246.335s9.005-.672,10.236,5.862" transform="translate(-37.106 -17.819)" fill="none" stroke="#fff" stroke-linecap="round" stroke-miterlimit="10" stroke-width="1"/><path d="M420.452,255.427s.866,1.361-1.741,5.122" transform="translate(-38.039 -18.72)" fill="none" stroke="#fff" stroke-linecap="round" stroke-miterlimit="10" stroke-width="1"/><path d="M470.89,213.067s9.005-.672,10.236,5.861" transform="translate(-43.201 -14.527)" fill="none" stroke="#fff" stroke-linecap="round" stroke-miterlimit="10" stroke-width="1"/><path d="M482.059,222.159s.866,1.36-1.741,5.122" transform="translate(-44.134 -15.429)" fill="none" stroke="#fff" stroke-linecap="round" stroke-miterlimit="10" stroke-width="1"/><path d="M467.9,262.7s9.005.438,10.236,6.972" transform="translate(-42.905 -19.44)" fill="none" stroke="#fff" stroke-linecap="round" stroke-miterlimit="10" stroke-width="1"/><path d="M479.066,273.025s.866,1.361-1.741,5.123" transform="translate(-43.837 -20.461)" fill="none" stroke="#fff" stroke-linecap="round" stroke-miterlimit="10" stroke-width="1"/></g></g></svg>